P2
# High-boost result
90 90
255
255 255 255 255 255 255 255 255 255 255 255 255 255 255 255 253 249 248 251 249 247 247 248 246 244 245 245 245 245 243 245 246 255 238 203 212 214 213 223 237 238 234 234 235 231 221 219 224 230 230 230 232 224 255 255 255 255 255 255 255 255 255 255 255 255 255 255 255 255 255 255 255 255 255 255 255 255 255 255 255 255 255 255 255 255 255 255 255 255 255
255 197 214 213 211 210 210 210 211 212 214 215 207 201 196 192 187 186 185 185 186 184 185 184 182 184 182 181 181 181 181 184 196 155 131 146 155 157 171 177 177 175 175 177 172 165 164 170 173 175 166 172 159 209 255 247 248 248 248 248 248 248 248 248 248 248 248 248 248 248 248 248 248 248 248 248 248 248 248 248 248 248 248 248 248 248 248 248 248 255
255 200 215 213 213 212 212 217 225 223 218 214 214 215 211 198 190 187 184 187 186 183 182 183 181 181 181 181 182 183 182 184 187 158 169 177 151 148 161 162 165 166 177 175 167 165 164 170 173 174 170 176 160 198 255 247 248 248 248 248 248 248 248 248 248 248 248 248 248 248 248 248 248 248 248 248 248 248 248 248 248 248 248 248 248 248 248 248 248 255
255 205 218 214 210 212 223 220 179 156 137 127 128 157 193 212 205 193 188 185 186 184 181 181 181 182 182 183 182 176 172 170 161 167 205 221 209 181 159 156 162 166 174 169 172 167 164 169 177 171 174 181 161 202 255 247 248 248 248 248 248 248 248 248 248 248 248 248 248 248 248 248 248 248 248 248 248 248 248 248 248 248 248 248 248 248 248 248 248 255
255 205 215 208 208 221 206 160 128 123 125 122 119 115 113 140 174 193 194 189 183 182 179 182 182 181 182 180 172 170 169 162 168 178 178 174 179 197 191 167 161 163 168 167 173 167 163 169 174 174 177 182 164 228 255 248 248 248 248 248 248 248 248 248 248 248 248 248 248 248 248 248 248 248 248 248 248 248 248 248 248 248 248 248 248 248 248 248 248 255
255 199 206 206 214 194 147 127 124 125 120 126 129 127 133 117 116 140 183 189 184 183 180 181 179 180 178 171 168 167 173 180 178 168 164 163 159 162 181 185 168 159 164 163 166 166 167 169 174 176 184 180 171 255 255 248 248 248 248 248 248 248 248 248 248 248 248 248 248 248 248 248 248 248 248 248 248 248 248 248 248 248 248 248 248 248 248 248 248 255
255 199 201 214 198 141 131 134 120 125 116 119 121 121 138 144 126 111 126 182 189 181 179 180 181 179 171 164 170 182 187 180 169 163 156 151 153 152 158 175 182 165 159 164 169 165 167 172 175 177 187 172 188 255 251 248 248 248 248 248 248 248 248 248 248 248 248 248 248 248 248 248 248 248 248 248 248 248 248 248 248 248 248 248 248 248 248 248 248 255
255 197 204 214 155 131 130 128 119 115 110 115 129 119 131 138 140 140 135 182 190 181 178 177 182 171 159 182 199 190 181 175 167 158 145 139 147 151 152 155 172 181 165 163 166 163 162 170 178 176 187 164 216 255 248 248 248 248 248 248 248 248 248 249 249 249 249 249 249 249 249 248 248 248 248 248 248 248 248 248 248 248 248 248 248 248 248 248 248 255
255 195 211 188 120 127 125 121 123 119 118 117 127 124 122 134 142 148 159 179 190 183 177 176 175 156 162 213 200 181 179 172 166 161 149 140 144 149 148 146 150 173 183 159 165 164 162 172 178 179 186 168 196 255 250 248 248 248 248 248 248 248 249 249 248 249 249 249 247 248 249 249 249 249 249 249 248 248 248 248 248 248 248 248 248 248 248 248 248 255
255 195 213 168 108 119 119 120 126 124 119 118 120 129 126 135 146 149 141 151 180 188 176 173 159 154 155 177 195 178 176 173 166 163 158 152 149 149 149 147 147 150 186 168 167 168 162 171 176 181 185 180 202 255 248 248 248 248 248 248 248 248 249 247 243 242 246 246 245 246 250 249 250 248 249 249 249 248 248 248 248 248 248 248 248 248 248 248 248 255
254 195 213 154 107 114 110 113 125 126 120 114 118 125 124 134 149 150 148 138 157 185 180 175 157 163 157 164 191 181 178 170 168 164 162 158 152 152 149 148 148 140 171 180 159 164 161 170 177 179 186 181 231 255 248 248 248 248 248 248 248 248 249 248 230 226 220 219 231 243 255 255 255 238 243 249 249 249 248 248 248 248 248 248 248 248 248 248 248 255
251 193 210 133 99 114 116 115 119 123 112 110 115 118 128 156 159 150 150 144 140 170 188 165 159 159 155 163 193 183 179 172 169 169 164 161 155 151 151 148 147 146 148 194 164 159 162 168 171 180 187 190 255 253 248 249 249 249 248 248 249 249 250 248 230 221 224 187 134 168 218 239 218 239 240 245 249 249 249 248 248 248 248 248 248 248 248 248 248 255
248 194 199 135 109 118 114 114 113 111 119 114 117 118 131 156 161 154 150 149 136 154 185 159 161 155 154 163 189 181 176 174 169 173 169 164 155 149 151 148 147 148 138 191 186 159 165 163 163 176 181 218 255 249 250 249 248 249 249 249 249 248 250 254 234 216 226 194 116 142 157 137 114 191 241 237 252 249 249 249 249 248 248 248 248 248 248 248 248 255
249 192 197 131 112 118 105 117 114 110 121 121 113 121 130 146 158 157 153 150 138 150 174 160 158 154 154 167 190 183 182 182 174 173 173 169 165 154 148 148 145 147 142 171 199 155 165 162 158 173 190 252 255 248 247 246 249 250 249 249 249 248 251 231 169 148 154 175 138 176 150 137 174 149 224 213 246 254 248 249 250 249 249 249 249 248 248 248 248 255
250 186 199 132 114 113 110 116 116 120 120 120 118 127 125 140 153 155 154 151 144 150 163 161 156 155 152 174 189 177 175 175 171 172 180 163 156 156 152 148 145 145 144 153 216 158 163 159 164 193 212 220 207 206 203 195 220 248 251 249 246 236 234 178 143 114 117 136 147 166 157 142 174 143 217 180 207 253 247 246 249 248 249 248 249 249 249 248 248 255
255 179 198 129 116 117 118 110 122 124 126 116 119 127 128 141 160 156 153 159 153 145 164 162 153 154 151 182 172 158 158 159 154 166 180 178 157 154 149 150 148 146 145 146 218 157 159 154 174 219 202 189 187 185 186 179 193 227 231 225 222 213 204 161 173 120 118 110 136 144 148 142 160 147 161 156 148 175 230 232 234 243 247 248 250 248 249 249 249 255
255 181 192 126 109 111 116 121 121 115 115 113 102 113 114 128 145 143 147 160 132 112 152 163 152 153 151 164 161 157 158 158 157 161 159 173 166 156 146 150 153 149 157 146 206 161 151 155 200 219 192 186 192 200 205 196 190 192 191 189 193 202 171 146 144 112 144 123 125 118 115 131 138 130 123 139 129 126 169 235 215 219 227 237 243 248 249 249 247 255
255 190 192 135 97 107 112 120 120 114 183 149 130 142 127 143 152 147 148 137 133 135 141 156 152 152 154 157 156 154 157 156 158 157 157 156 162 155 146 142 148 152 164 146 222 162 149 204 243 224 226 229 235 234 217 193 187 194 194 194 192 202 178 147 110 111 160 138 115 109 113 141 133 127 120 131 128 172 139 214 220 210 213 217 223 232 237 244 249 255
255 207 196 149 98 107 102 111 118 147 178 134 148 149 156 161 162 160 156 144 140 145 175 153 151 151 152 153 155 154 154 154 157 156 150 149 162 162 149 143 145 163 166 145 191 154 183 211 192 185 195 195 213 227 235 231 209 190 195 198 196 199 179 182 171 122 123 132 115 103 113 128 133 127 117 122 126 128 114 192 240 213 213 214 214 213 214 232 249 255
255 216 217 160 103 115 117 110 118 153 168 138 152 152 145 157 159 156 145 126 117 126 157 150 150 150 151 151 154 154 152 153 157 154 151 152 162 160 148 142 144 180 178 149 172 181 188 177 179 184 183 181 188 194 194 207 229 230 200 194 199 203 182 191 210 161 115 119 123 109 118 135 137 123 114 119 124 123 114 153 229 230 215 215 215 215 208 228 251 255
246 187 214 205 108 103 113 114 130 150 164 130 140 166 145 153 159 156 157 149 137 129 154 152 150 153 150 152 152 153 151 153 153 153 150 150 153 150 145 142 143 177 167 146 175 185 183 186 188 190 192 196 202 201 196 192 191 211 232 204 194 198 195 197 222 204 124 106 126 125 114 132 133 116 112 122 127 126 130 116 127 215 226 214 216 218 209 229 251 255
221 169 202 233 129 87 105 108 140 156 150 149 145 166 153 151 156 157 161 161 144 131 158 151 145 149 149 150 148 149 153 150 150 151 147 148 148 147 145 141 144 179 165 143 176 184 186 189 192 196 201 200 197 198 196 197 194 191 197 229 205 193 193 204 220 197 140 116 127 122 127 120 118 111 115 117 134 125 125 144 123 152 230 214 214 216 209 229 252 255
251 175 212 239 149 90 102 103 145 151 137 172 162 153 157 151 155 156 157 163 154 146 159 162 152 152 147 145 146 147 150 148 148 148 146 149 149 146 142 143 146 178 177 147 180 186 188 196 200 201 201 197 196 194 195 195 196 196 187 195 230 196 189 208 202 192 159 120 125 133 138 133 115 110 117 118 131 129 123 150 151 136 218 219 215 214 207 227 252 255
255 171 206 238 172 92 110 107 144 158 136 135 151 153 155 154 157 153 152 155 159 147 139 153 159 154 153 144 143 143 149 148 148 148 147 151 150 145 144 145 146 180 172 152 184 185 189 204 201 200 197 197 198 196 195 195 194 195 194 183 205 227 193 213 198 194 175 112 118 130 119 129 117 114 116 125 131 127 123 136 144 154 218 222 215 216 210 229 252 255
255 185 193 228 191 103 109 115 145 154 150 139 140 148 149 150 155 158 146 139 151 136 153 152 153 152 153 147 142 143 143 144 145 147 146 150 147 144 143 143 147 181 153 165 185 182 189 198 201 198 198 197 197 198 196 197 196 193 192 189 178 227 210 207 209 192 184 151 126 110 117 132 115 114 114 135 136 129 121 126 121 168 227 217 214 216 207 229 251 255
255 216 198 207 205 132 100 118 154 152 148 149 154 150 145 147 148 152 146 138 146 143 226 176 148 153 149 149 146 140 141 142 143 145 146 146 145 142 142 142 150 167 147 176 183 185 189 191 201 201 199 200 198 197 198 196 197 194 194 194 183 197 172 125 169 190 175 152 130 117 137 129 113 110 124 134 133 128 123 128 142 167 210 214 215 216 209 229 252 255
255 219 189 177 222 163 121 144 159 152 150 149 148 149 144 144 144 150 149 142 134 129 208 189 145 152 150 149 147 140 138 140 141 143 142 142 143 141 142 140 145 149 156 182 184 184 191 193 199 201 202 200 199 198 197 198 197 196 195 195 188 182 179 151 179 171 176 146 124 111 112 119 118 118 128 126 127 122 120 122 150 150 174 210 219 218 209 227 252 255
255 214 187 178 228 159 136 156 157 153 148 146 146 142 141 143 145 148 148 146 120 155 219 202 152 151 150 148 148 145 139 139 137 141 140 140 141 139 139 139 139 147 171 184 188 185 191 194 199 202 203 203 200 199 200 197 196 195 194 194 188 196 192 145 182 165 164 158 134 123 124 132 119 119 128 116 121 111 115 128 156 142 163 203 210 218 210 227 252 255
255 226 207 205 217 145 144 155 157 153 148 145 142 137 136 138 139 143 146 147 134 157 203 203 176 147 151 148 148 146 145 143 138 139 138 139 139 137 139 136 140 158 182 183 191 187 190 194 200 201 204 204 203 198 200 199 198 197 195 190 199 207 185 132 129 160 166 166 150 136 124 120 108 144 131 121 114 114 120 138 159 168 193 209 214 219 214 228 252 255
255 231 212 218 255 149 132 159 154 150 149 146 141 135 133 134 132 136 144 141 131 158 194 184 192 156 150 149 146 144 143 139 135 136 136 137 135 135 134 131 150 178 184 184 189 186 189 195 203 203 204 205 204 202 200 198 199 196 193 206 205 174 203 190 174 175 165 161 145 124 120 121 118 135 129 125 111 122 123 132 142 158 175 208 212 220 216 225 252 255
255 214 218 155 255 255 146 143 152 148 146 148 143 137 132 133 131 134 142 141 125 195 201 185 186 174 150 149 147 144 141 136 133 134 134 135 133 133 128 138 172 185 184 190 194 193 190 199 206 204 204 205 204 200 198 198 199 198 197 188 192 168 215 228 201 182 160 159 130 115 122 113 113 117 127 121 117 131 122 129 138 151 180 206 207 226 223 224 252 255
255 213 217 121 150 255 246 152 136 147 147 145 144 138 131 134 134 134 138 137 130 200 203 190 186 182 161 146 146 146 142 138 131 133 134 130 128 132 135 143 143 140 140 151 168 186 196 197 197 197 199 208 206 198 198 197 199 199 199 188 147 142 202 209 178 166 145 154 134 127 117 113 123 119 119 114 116 123 126 134 143 167 198 205 223 224 225 225 249 255
255 240 196 118 89 221 255 240 149 133 149 141 141 135 129 130 135 134 135 138 121 164 209 192 190 189 177 163 150 146 147 142 135 134 127 125 140 146 146 146 146 144 140 151 142 154 186 194 199 196 199 204 204 199 199 199 198 200 200 210 190 161 192 189 170 160 135 147 134 106 123 131 130 128 120 114 112 117 129 133 134 130 178 178 212 226 226 231 249 255
255 249 153 123 107 124 255 251 239 147 123 139 141 132 127 127 132 131 128 119 107 169 207 193 192 190 185 171 170 162 144 139 131 126 130 147 149 145 147 148 147 147 159 177 168 170 181 180 193 201 197 199 199 198 197 197 198 200 204 192 140 178 192 173 162 153 137 144 138 126 148 129 130 127 118 113 112 117 132 136 140 132 173 174 186 219 219 230 249 255
223 135 128 128 121 83 204 255 241 236 137 126 141 133 126 109 102 102 110 133 173 210 198 194 194 191 188 178 160 180 170 149 146 134 144 149 149 147 148 153 154 161 164 159 159 157 158 170 173 196 202 199 199 197 196 197 199 198 198 211 201 152 162 169 164 157 145 150 131 138 137 120 121 119 114 115 113 124 130 135 146 134 174 187 198 225 214 227 250 255
188 108 118 126 124 96 116 255 230 239 226 127 126 138 113 150 197 201 212 220 216 201 196 194 193 194 189 186 162 161 200 173 164 155 149 149 148 152 162 167 166 161 150 146 147 147 149 155 159 172 203 199 197 200 196 196 199 199 198 212 232 183 160 172 171 164 143 144 127 124 130 120 117 112 115 115 115 128 126 150 140 121 168 206 218 229 213 227 250 255
181 121 122 116 116 114 78 199 248 219 241 206 114 115 133 238 229 221 214 202 198 198 198 197 195 193 189 188 177 176 184 166 135 145 148 152 157 175 174 165 160 155 153 146 146 145 143 147 152 156 180 204 198 198 196 198 197 197 204 165 156 171 197 174 175 162 137 136 123 129 138 124 115 114 113 111 124 128 131 159 125 132 165 179 214 228 209 225 250 255
177 119 122 114 114 116 94 120 250 223 219 243 178 98 206 223 202 207 208 205 200 198 197 197 194 194 190 188 193 176 174 192 162 156 162 162 160 173 166 165 161 158 155 150 149 147 144 144 143 146 160 197 199 195 197 198 198 198 206 175 161 183 184 168 171 155 139 136 126 136 142 121 120 124 118 112 135 135 140 132 107 135 187 201 216 223 220 222 244 255
174 117 115 114 113 115 111 80 215 240 214 221 223 147 225 209 206 208 208 208 201 200 197 196 196 195 193 192 200 177 161 183 158 164 165 154 169 174 162 163 159 156 155 150 145 144 142 138 143 145 141 181 203 193 195 197 195 195 197 202 191 180 174 170 164 150 140 137 125 123 125 110 121 113 115 125 139 129 124 118 110 147 187 200 205 222 230 219 236 255
170 119 116 117 106 114 115 78 160 251 208 213 222 210 216 206 204 209 209 203 200 199 199 198 195 194 194 189 196 184 154 165 160 158 155 163 183 169 163 161 158 156 155 150 147 144 142 139 139 143 135 166 203 194 196 196 194 195 195 194 194 184 172 171 158 150 137 141 139 118 116 112 124 111 112 123 128 115 121 119 109 175 203 202 209 220 231 216 229 255
162 115 115 118 108 107 112 97 102 246 225 219 230 201 199 213 205 211 213 209 204 199 198 197 197 196 196 189 188 195 171 165 165 151 156 190 178 149 153 159 157 158 155 151 149 144 140 141 139 141 136 147 207 195 195 194 192 193 195 168 162 167 169 168 154 141 130 135 142 130 114 127 123 103 114 120 121 123 136 121 111 179 220 224 223 227 227 219 234 255
156 114 113 115 111 106 109 110 73 201 248 223 243 175 174 221 205 209 211 208 203 200 198 199 196 195 195 192 187 188 171 171 163 154 153 184 163 142 148 160 157 156 156 151 150 147 143 144 143 140 139 134 200 198 190 190 190 190 192 188 146 123 132 130 120 120 129 133 137 129 107 124 109 112 122 126 124 125 137 117 111 156 196 213 226 239 233 225 223 255
152 112 111 111 111 105 107 113 80 140 239 226 242 150 160 222 206 205 205 208 205 203 199 199 196 197 196 191 189 181 179 171 158 154 155 186 157 144 152 164 159 158 157 151 148 147 145 145 144 141 136 133 206 202 185 190 190 188 186 194 224 205 156 136 138 128 113 129 141 136 117 113 106 117 118 130 127 126 139 110 107 125 192 206 204 223 232 217 209 255
143 110 112 110 112 103 106 109 95 98 222 218 232 132 116 203 212 201 201 205 205 208 202 197 196 198 197 194 189 179 181 164 160 150 167 186 153 149 160 163 159 159 160 159 149 149 146 145 145 140 140 130 207 216 176 188 188 186 181 187 226 224 205 207 214 227 145 124 141 138 123 109 113 113 114 139 127 137 132 109 112 128 205 211 211 231 238 207 211 255
147 109 109 111 112 103 108 106 106 75 198 229 214 157 95 169 220 200 201 205 204 205 201 197 196 198 199 195 191 178 179 160 154 145 154 153 151 152 153 153 149 149 159 166 161 155 147 143 133 137 137 138 200 231 171 187 184 182 178 216 220 195 195 190 193 221 210 132 148 142 108 106 128 121 126 135 125 127 118 123 126 152 188 207 225 233 236 203 209 255
153 109 110 109 112 102 109 111 109 79 143 249 209 177 89 146 218 200 200 200 200 198 200 199 196 198 198 195 193 179 170 156 148 138 138 140 150 153 151 155 151 148 153 157 165 155 148 144 143 137 136 151 208 242 166 185 178 174 205 232 158 180 198 190 196 210 233 162 143 131 110 124 133 126 113 109 114 109 125 139 145 173 207 221 219 236 224 201 212 255
149 106 107 109 112 107 89 109 110 97 99 243 215 184 96 137 215 199 199 199 199 200 198 197 196 196 198 196 195 177 161 153 148 139 141 141 144 147 150 153 153 151 152 151 154 157 152 144 146 138 137 145 225 249 161 177 175 205 229 187 158 186 205 203 204 200 211 165 131 118 125 126 126 123 103 96 106 113 132 137 150 179 208 235 227 248 220 214 218 255
151 114 109 110 108 114 97 88 113 106 76 213 228 180 116 152 212 201 198 200 200 198 197 198 198 198 199 197 195 178 159 154 141 130 137 139 141 143 153 157 154 150 155 150 153 156 159 147 143 138 132 128 240 245 154 185 214 225 187 166 197 214 199 161 152 160 129 109 138 125 129 122 115 107 114 118 122 125 126 128 156 176 195 217 211 232 221 218 214 255
149 113 109 110 108 111 116 90 100 109 75 171 246 184 128 144 202 203 198 199 199 197 197 198 196 196 197 193 193 178 157 152 137 126 135 137 139 140 151 157 152 152 153 148 156 159 157 147 143 140 136 133 225 224 190 218 197 170 183 172 211 207 129 129 156 168 101 103 138 131 119 119 114 106 134 129 130 129 112 135 160 143 155 226 223 226 235 215 211 255
148 107 106 107 107 108 112 104 101 110 84 123 248 189 140 136 193 205 197 197 197 198 198 198 198 197 195 187 191 191 155 152 138 129 136 136 138 138 142 154 155 154 152 152 154 152 148 144 143 142 138 135 194 219 201 206 193 188 200 204 217 141 118 155 174 142 88 115 143 130 110 112 103 104 110 116 130 110 97 115 147 140 127 207 235 223 243 216 208 255
144 107 110 105 107 109 110 100 105 109 98 88 231 208 136 131 179 208 195 198 196 196 198 198 196 194 194 207 216 197 159 152 136 132 132 137 138 140 139 147 155 155 152 154 152 153 155 146 144 140 132 136 202 217 194 209 201 204 200 209 169 124 126 161 162 109 85 124 164 116 102 96 96 106 98 107 107 96 120 131 133 165 147 162 210 218 244 216 197 255
143 115 114 107 110 109 111 96 105 106 106 73 194 231 140 142 158 213 196 196 196 196 198 196 198 193 204 224 211 173 168 150 132 132 134 136 133 140 138 138 148 153 151 153 151 152 152 147 142 141 129 147 211 225 164 163 170 177 185 163 138 133 126 171 135 95 88 160 164 113 109 110 109 114 112 110 100 128 151 152 146 137 179 204 218 208 245 207 175 244
149 115 108 104 106 107 110 95 108 106 107 77 146 254 149 141 135 205 200 194 194 198 198 198 198 195 203 212 189 123 169 155 134 134 138 134 134 135 135 137 140 148 151 152 151 147 144 142 143 141 126 156 228 215 153 156 164 170 174 137 146 127 149 166 110 91 105 196 149 125 121 129 117 89 81 100 138 158 156 156 154 145 135 222 255 215 249 220 166 228
140 110 108 103 105 108 112 92 101 108 107 90 102 255 150 141 125 189 208 196 198 196 197 197 198 202 200 193 133 114 166 169 137 133 134 136 132 136 137 137 137 142 152 151 147 145 145 144 142 140 121 169 234 187 169 181 182 192 170 133 145 130 149 146 111 74 129 189 148 149 137 149 136 120 120 144 161 157 160 156 148 148 128 151 255 225 245 211 178 236
144 109 106 103 104 106 111 100 93 109 108 101 75 240 166 105 119 162 215 194 197 198 200 202 200 190 182 204 115 133 131 126 124 131 136 141 131 134 137 135 137 136 145 149 144 143 142 141 139 136 118 197 221 186 179 181 188 196 140 140 138 137 136 123 91 72 139 174 154 148 154 158 136 147 155 157 157 161 155 144 142 144 143 118 234 244 232 178 174 236
154 108 101 97 104 109 110 107 90 110 107 107 67 199 195 83 99 131 216 196 196 198 200 198 184 173 218 231 117 139 129 130 116 126 136 146 138 134 133 133 136 137 141 147 144 141 139 143 139 124 133 218 216 211 179 177 192 168 122 140 122 135 136 120 80 116 173 117 161 156 172 139 136 155 155 159 164 156 142 143 146 142 145 124 191 230 182 176 183 245
144 108 103 92 101 108 108 113 94 104 110 106 76 150 226 95 134 121 202 199 194 191 187 178 180 204 255 214 104 146 137 165 110 123 137 151 143 138 134 137 137 136 135 136 140 141 142 144 135 109 193 240 209 183 165 176 194 144 118 124 111 137 136 113 88 140 174 120 150 173 163 109 155 161 159 162 165 133 136 145 148 142 145 137 157 212 184 192 190 255
129 106 105 95 98 107 106 110 98 95 110 105 89 108 239 140 147 106 173 195 182 182 181 193 212 245 220 87 68 128 152 140 77 107 125 151 148 142 138 138 137 136 134 132 139 145 145 137 111 143 251 248 205 168 184 188 150 124 119 124 114 152 145 103 102 145 140 161 143 158 125 113 166 161 158 166 146 121 143 146 148 142 143 142 143 183 210 203 201 255
142 108 105 91 98 106 107 109 108 89 107 105 101 81 224 168 145 101 162 231 201 200 205 215 243 202 77 72 83 85 153 157 127 167 106 133 141 146 143 137 135 133 133 134 140 145 146 116 123 208 224 228 226 215 182 128 113 125 122 123 127 156 154 108 117 168 168 150 139 139 114 136 169 157 160 164 132 122 143 149 149 142 143 144 136 164 211 205 202 255
157 102 99 88 92 104 110 108 111 90 100 108 106 73 194 160 159 105 122 237 200 199 209 241 179 73 77 95 93 71 125 157 166 230 205 154 128 126 135 130 129 126 134 133 144 156 129 129 214 222 207 227 224 164 109 109 125 122 123 119 139 152 160 125 107 142 139 128 142 154 148 159 159 154 161 153 126 122 145 150 150 142 141 148 133 156 200 205 197 255
154 100 97 86 90 101 106 106 111 96 94 111 105 75 166 157 155 126 84 226 199 208 233 157 67 88 97 95 94 78 96 155 156 187 223 218 192 146 124 125 109 115 146 162 162 135 119 117 103 116 255 182 93 104 114 123 123 119 124 117 145 149 161 146 98 102 132 143 149 151 161 159 151 157 159 139 129 122 148 153 152 141 141 149 136 149 188 206 196 255
147 100 93 85 95 102 107 107 108 104 87 110 107 80 144 167 134 170 86 203 211 229 154 78 93 100 96 93 92 88 71 134 186 196 205 213 221 213 211 192 186 196 186 147 115 105 108 98 93 130 213 121 100 114 120 123 126 116 118 121 149 151 156 150 104 108 148 153 154 163 162 144 152 159 149 131 133 119 151 155 150 136 132 144 139 141 184 199 194 255
139 101 90 83 89 99 106 105 105 109 85 103 107 90 119 187 105 157 79 199 255 198 92 90 98 95 94 92 91 92 59 145 254 199 198 209 215 215 245 109 115 129 107 92 103 110 109 109 116 106 99 103 115 116 115 127 127 111 109 142 150 156 153 157 102 135 164 162 165 153 145 142 158 156 137 128 132 121 155 151 147 139 136 140 140 130 175 196 183 253
132 101 86 83 83 95 107 106 105 111 92 92 108 96 100 190 96 109 77 140 134 134 102 86 96 94 93 93 94 95 58 164 255 187 184 190 214 237 231 68 87 94 98 103 106 111 108 112 115 108 106 118 111 118 110 122 123 103 122 167 148 155 155 150 114 170 170 158 147 141 142 146 160 148 134 130 130 125 152 151 149 140 138 136 141 132 160 203 181 244
131 102 86 84 84 94 104 106 105 107 100 85 112 101 89 183 119 114 91 91 80 129 91 87 92 95 94 95 95 92 69 119 251 170 178 200 214 224 242 67 82 111 109 110 109 112 110 112 109 119 114 116 107 116 119 108 107 98 153 165 150 154 160 132 143 174 151 147 147 147 150 157 163 139 133 131 126 131 150 153 148 144 139 134 141 141 136 200 180 233
131 104 83 85 84 95 103 105 106 107 108 79 103 106 90 156 121 116 94 100 101 111 99 86 94 97 94 98 94 94 83 93 205 166 196 204 203 222 223 160 85 73 103 112 110 115 113 111 111 114 109 116 114 107 125 122 95 111 175 150 151 150 172 123 143 158 150 152 156 159 162 169 154 133 135 132 123 132 150 153 146 143 140 136 137 149 128 183 206 255
137 97 80 85 86 97 101 102 103 106 109 83 92 112 95 115 117 125 113 92 102 94 94 86 92 94 97 99 94 95 90 81 190 182 205 199 197 199 201 240 219 117 63 108 111 113 116 115 108 116 94 108 115 110 110 129 110 145 167 147 147 151 167 108 155 155 156 158 166 167 166 160 136 129 134 133 120 131 151 150 147 143 142 138 131 150 132 153 246 255
138 92 82 83 86 97 102 103 105 106 108 91 80 111 99 103 151 152 120 86 107 90 94 89 92 93 104 94 91 97 93 89 191 189 184 188 217 210 192 207 200 229 136 75 119 113 108 115 108 120 116 106 110 114 107 113 118 157 153 147 149 169 132 124 164 158 161 169 162 147 142 131 124 131 137 133 117 128 148 147 145 141 141 140 132 142 145 139 243 255
136 88 81 83 87 96 98 101 106 105 107 100 73 105 101 102 176 151 124 79 113 91 94 89 93 98 104 92 95 99 91 84 171 181 180 193 217 222 224 184 167 201 213 71 103 122 107 111 113 113 125 118 115 113 116 101 111 160 151 149 159 161 112 161 163 163 165 153 130 118 112 113 121 132 134 133 117 125 147 147 148 143 143 141 136 137 153 134 210 255
133 85 81 85 89 96 101 103 99 100 106 105 72 93 107 96 174 154 139 72 121 99 91 90 91 105 97 93 98 86 84 141 166 163 181 215 195 201 226 163 170 185 218 120 60 114 118 109 123 115 119 122 122 120 120 112 114 162 149 150 161 133 146 171 162 160 151 132 130 136 134 132 129 134 134 133 122 120 148 147 147 143 144 142 136 134 152 141 175 235
129 86 81 84 90 96 99 98 95 105 106 108 79 81 109 87 164 143 130 70 120 105 87 91 98 109 92 92 83 100 202 221 174 156 207 212 179 171 221 141 179 211 191 190 95 62 106 112 114 122 114 118 119 123 127 117 122 161 146 151 152 131 162 161 160 156 145 143 146 147 145 139 138 137 133 132 125 116 149 151 147 142 144 144 138 133 143 147 159 243
129 90 81 86 92 96 98 93 97 107 102 107 87 72 106 92 147 137 134 70 115 114 81 89 111 100 85 79 119 182 210 190 163 187 226 180 210 188 204 136 230 255 183 189 245 171 67 79 88 111 124 121 121 122 120 103 125 162 148 154 143 134 158 154 154 148 146 147 146 141 139 137 139 137 130 125 126 115 144 152 147 143 144 143 137 135 134 151 155 255
129 89 80 86 92 97 97 97 101 103 102 106 93 72 96 97 127 144 143 72 106 129 77 100 111 74 77 157 194 167 159 164 167 226 183 169 178 158 191 151 224 230 171 168 229 255 201 155 132 85 79 91 102 102 100 82 123 159 150 160 131 144 157 159 150 138 139 139 142 141 139 136 134 133 128 121 126 117 142 151 147 143 142 145 141 137 129 155 148 255
131 89 80 87 92 95 95 98 98 102 103 107 94 75 84 98 125 156 159 68 91 141 81 109 72 89 184 216 163 160 173 173 210 207 151 189 151 172 177 152 166 146 171 174 195 224 198 204 204 190 159 126 96 102 112 135 151 147 152 155 125 157 164 154 135 134 137 141 139 138 138 134 132 130 127 123 123 110 134 151 147 145 140 145 140 139 126 150 163 255
131 89 82 89 92 93 95 96 98 101 103 103 95 82 76 99 119 161 184 70 80 142 102 75 111 230 209 171 155 165 181 205 201 177 158 179 137 195 163 151 155 155 171 169 192 204 177 173 187 218 243 255 235 235 222 255 180 134 156 142 130 167 152 134 127 135 141 143 141 137 136 132 131 131 129 127 127 106 125 151 145 147 140 145 142 140 134 132 191 255
131 87 82 89 92 95 96 98 97 101 102 103 98 85 71 96 114 159 208 78 73 135 118 115 205 197 168 148 157 184 224 193 179 182 183 158 148 222 152 152 179 187 149 152 204 190 164 179 174 177 195 241 206 238 213 217 153 139 156 133 146 152 129 128 135 142 146 141 132 130 133 131 132 131 129 127 127 112 115 152 146 147 139 145 142 139 138 112 214 255
135 85 82 89 92 93 96 94 95 101 102 103 99 88 74 88 117 158 216 81 69 111 183 194 196 201 202 147 162 183 190 154 197 220 182 143 172 211 150 153 171 167 140 144 187 184 168 165 151 153 177 216 208 219 196 208 153 145 150 133 151 132 126 134 145 150 147 134 125 127 129 128 133 130 129 123 128 116 114 150 143 149 141 143 142 137 143 104 203 255
141 79 84 90 91 93 95 94 102 101 102 103 99 89 81 74 117 163 219 85 72 85 196 232 209 226 214 152 171 195 168 167 225 246 172 153 212 197 149 165 175 160 133 138 149 155 161 152 159 173 174 184 204 190 199 212 144 148 141 136 151 136 145 147 152 149 141 126 123 126 121 126 129 129 129 123 124 107 105 147 141 149 143 140 144 135 143 115 169 255
136 77 86 90 91 95 99 100 102 101 102 103 97 91 87 68 107 166 220 87 71 78 163 231 180 189 163 149 182 219 186 174 217 222 170 167 218 181 150 178 209 202 157 170 178 179 191 195 210 217 217 218 229 227 255 198 129 148 139 140 153 149 155 149 152 146 132 120 121 119 118 127 125 130 124 121 115 101 101 143 139 147 145 142 144 137 140 128 136 255
133 78 88 89 93 93 96 95 95 99 102 101 96 92 92 68 93 173 228 93 69 84 130 191 150 155 152 164 190 204 189 191 206 205 202 209 222 218 223 233 242 247 245 254 255 255 255 255 255 255 255 255 255 255 255 196 122 147 138 143 143 143 144 142 151 137 123 118 123 124 126 130 127 132 120 121 117 116 121 138 132 144 146 142 143 139 137 137 118 255
131 80 89 90 95 93 95 91 94 99 104 99 98 93 92 76 75 165 225 107 65 88 102 237 239 235 242 244 246 243 246 250 250 253 255 255 254 255 255 255 254 255 255 255 255 255 255 255 255 255 255 255 255 255 255 195 114 145 125 108 115 112 119 141 146 124 118 122 130 132 129 131 128 130 119 123 119 136 126 134 126 141 149 141 143 141 134 143 109 255
127 81 88 92 94 93 94 95 99 103 102 101 99 94 92 83 62 152 226 117 59 92 81 255 255 255 255 255 255 255 255 255 255 255 255 255 255 255 255 255 255 255 255 255 255 255 253 252 248 238 228 217 208 198 204 158 116 147 132 83 99 100 117 157 130 114 121 126 135 132 132 131 130 127 124 125 136 144 114 127 119 135 150 143 142 145 132 142 110 255
121 89 91 91 94 94 97 97 100 102 100 99 99 95 95 91 59 129 222 142 56 95 69 222 255 255 255 255 255 255 255 255 255 250 242 235 234 225 219 210 200 192 186 179 168 158 153 153 148 136 134 133 130 127 125 142 128 136 121 92 113 128 158 155 114 121 130 134 141 137 138 136 134 133 134 141 149 128 115 123 109 125 152 144 140 147 132 138 119 240
120 92 93 92 95 96 97 99 101 100 100 99 99 97 95 92 68 99 211 152 58 94 78 158 239 203 198 188 181 174 171 163 161 143 166 165 183 125 129 129 127 127 134 136 131 128 128 130 131 131 133 130 130 131 128 141 136 125 108 98 130 167 162 130 119 133 140 150 146 134 143 137 141 141 143 150 137 118 123 115 107 116 151 147 138 147 134 135 131 206
118 92 93 92 95 95 95 97 101 102 102 99 98 98 94 94 77 77 195 160 60 91 87 117 151 131 130 126 128 132 133 130 133 115 170 163 185 113 134 136 136 138 142 140 139 134 131 132 140 124 128 143 148 143 146 161 151 115 111 108 124 148 123 125 132 145 148 147 135 124 138 135 142 150 151 134 121 122 125 117 106 108 140 147 138 148 136 132 140 185
118 90 92 93 96 95 97 95 99 102 100 99 98 99 97 96 88 67 170 168 66 88 91 107 149 136 124 124 125 126 128 134 135 113 174 171 177 129 138 136 139 141 135 134 143 145 150 187 207 163 180 177 190 184 179 190 199 115 107 112 124 122 106 120 146 150 133 109 126 130 142 141 151 146 129 115 123 125 123 121 109 117 123 143 142 149 141 131 141 184
120 91 94 96 97 96 96 95 99 104 100 99 98 100 97 96 94 64 150 164 68 88 94 99 144 112 146 196 164 163 171 184 187 162 184 190 178 176 173 161 167 156 144 140 167 169 155 187 204 208 245 178 183 201 193 181 226 161 103 123 138 129 109 109 136 129 107 108 129 137 150 155 145 119 116 122 131 125 117 120 128 128 135 138 141 148 144 130 139 188
120 93 93 96 96 98 97 98 101 104 100 99 97 102 99 97 97 68 127 172 70 86 94 92 148 123 200 253 211 206 186 187 212 201 193 202 163 175 182 164 180 180 174 157 186 178 150 149 150 191 231 170 173 194 205 186 191 204 176 109 134 127 115 110 116 116 110 115 145 152 145 117 114 118 126 135 133 118 118 115 148 130 143 141 139 146 147 132 136 191
120 93 93 97 96 98 97 100 100 102 102 99 99 101 98 98 97 76 110 176 72 87 91 85 167 167 182 218 196 205 168 168 215 202 197 198 155 161 177 162 179 193 183 159 193 186 169 175 166 159 164 180 181 185 215 203 161 190 229 97 110 114 113 110 108 113 112 114 131 129 112 105 125 131 134 137 123 115 118 143 125 148 141 141 138 146 150 134 135 195
140 125 126 127 130 132 129 133 136 137 134 132 132 134 133 132 132 115 133 205 107 117 119 117 217 240 194 228 238 245 234 249 255 253 255 236 216 226 232 225 220 227 225 207 248 237 239 255 254 213 214 249 238 252 255 255 248 218 182 185 152 145 146 144 154 153 149 151 149 152 143 157 180 176 176 166 155 158 168 195 180 200 181 186 185 187 199 188 185 226
