P2
# High-boost result
90 90
255
249 214 214 214 214 214 214 214 214 214 214 214 214 214 214 214 214 214 214 214 214 214 214 214 214 214 214 214 214 214 214 214 214 214 214 214 214 214 214 214 214 214 214 214 214 214 214 214 214 214 214 214 214 214 214 214 214 214 214 214 214 214 214 214 214 214 214 214 214 214 214 214 214 214 214 214 214 214 214 214 214 214 214 214 214 214 214 214 214 249
214 160 160 160 160 160 160 160 160 160 160 160 160 160 160 160 160 160 160 160 160 160 160 160 160 160 160 160 160 160 160 160 160 160 160 160 160 160 160 160 160 160 160 160 160 160 160 160 160 160 160 160 160 160 160 160 160 160 160 160 160 160 160 160 160 160 160 160 160 160 160 160 160 160 160 160 160 160 160 160 160 160 160 160 160 160 160 160 160 214
214 160 160 160 160 160 160 160 160 160 160 160 160 160 160 160 160 160 160 160 160 160 160 160 160 160 160 160 160 160 160 160 160 160 160 160 160 160 160 160 160 160 160 160 160 160 160 160 160 160 160 160 160 160 160 160 160 160 160 160 160 160 160 160 160 160 160 160 160 160 160 160 160 160 160 160 160 160 160 160 160 160 160 160 160 160 160 160 160 214
214 160 160 160 160 160 160 160 160 160 160 160 160 160 160 160 160 160 160 160 160 160 160 160 160 160 160 160 160 160 160 160 160 160 160 160 160 160 160 160 160 160 160 160 160 160 160 160 160 160 160 160 160 160 160 160 160 160 160 160 160 160 160 160 160 160 160 160 160 160 160 160 160 160 160 160 160 160 160 160 160 160 160 160 160 160 160 160 160 214
214 160 160 160 160 160 160 160 160 160 160 160 160 160 160 160 160 160 160 160 160 160 160 160 160 160 160 160 160 160 160 160 160 160 160 160 160 160 160 160 160 160 160 160 160 160 160 160 160 160 160 160 160 160 160 160 160 160 160 160 160 160 160 160 160 160 160 160 160 160 160 160 160 160 160 160 160 160 160 160 160 160 160 160 160 160 160 160 160 214
214 160 160 160 160 160 160 160 160 160 160 160 160 160 160 160 160 160 160 160 160 160 160 160 160 160 160 160 160 160 160 161 161 161 162 162 161 161 160 160 161 161 161 161 161 161 161 161 161 161 161 161 162 162 163 162 162 161 160 160 160 160 160 160 160 160 160 161 161 161 161 161 160 160 160 160 160 160 160 160 160 160 160 160 160 160 160 160 160 214
214 160 160 160 160 160 160 160 160 160 160 160 160 160 160 161 161 161 161 160 160 160 160 160 160 160 160 160 160 160 161 161 158 152 148 148 154 160 161 161 161 159 158 158 155 156 161 161 157 161 160 154 144 137 136 139 152 160 161 160 160 160 160 160 160 161 161 159 155 155 159 161 161 160 160 160 160 160 160 160 160 160 160 160 160 160 160 160 160 214
214 160 160 160 160 160 160 160 160 160 160 160 160 160 161 160 156 155 160 161 161 160 160 160 160 160 160 162 174 168 161 143 142 153 174 185 174 158 161 150 142 154 158 154 165 160 148 147 160 149 155 167 218 214 207 188 155 135 160 165 168 161 160 162 160 158 156 152 171 153 152 149 157 164 161 160 160 160 160 160 160 160 160 160 160 160 160 160 160 214
214 160 160 160 160 160 160 160 160 160 160 160 160 161 161 151 168 163 153 156 159 160 160 160 160 160 160 169 128 140 145 167 255 255 249 209 160 144 137 156 209 208 165 179 190 209 171 188 237 189 133 150 188 231 255 255 255 172 132 157 103 169 169 164 159 173 144 176 242 207 208 187 135 139 155 159 161 160 160 160 160 160 160 160 160 160 160 160 160 214
214 160 160 160 160 160 160 160 160 160 160 160 160 160 140 153 213 202 155 173 161 158 161 164 151 161 165 159 92 108 182 255 245 170 145 156 208 151 181 255 246 221 180 255 255 227 188 170 208 252 186 133 138 159 164 215 255 255 193 145 99 219 141 109 172 167 177 219 198 205 202 247 208 227 173 152 161 160 160 160 160 160 160 160 160 160 160 160 160 214
214 160 160 160 160 160 160 160 160 160 160 161 160 153 164 217 163 227 194 188 173 161 157 170 173 180 158 158 126 130 226 237 179 133 152 157 156 210 255 240 206 188 131 233 255 240 153 114 120 191 255 235 164 160 151 139 183 245 255 187 126 146 179 117 166 170 172 230 217 190 152 195 206 244 160 154 161 160 160 160 160 160 160 160 160 160 160 160 160 214
214 160 160 160 160 160 160 160 160 160 160 161 159 148 255 224 180 205 181 204 173 182 144 163 187 159 189 169 229 249 203 171 192 197 190 185 212 248 255 183 155 225 147 217 255 225 181 155 178 163 196 255 242 153 170 169 127 149 222 255 200 91 196 217 169 173 176 220 208 210 194 227 231 240 146 157 161 160 160 160 160 160 160 160 160 160 160 160 160 214
214 160 160 160 160 160 160 160 160 160 160 161 159 138 249 209 180 216 224 190 192 194 148 165 182 175 214 161 217 255 225 183 176 250 255 225 207 187 180 200 128 173 175 229 250 171 237 255 255 245 140 204 243 199 243 198 176 172 175 216 224 140 143 239 153 158 204 200 196 201 167 207 210 224 153 158 161 160 160 160 160 160 160 160 160 160 160 160 160 214
214 160 160 160 160 160 160 160 160 160 160 161 161 139 229 188 174 179 191 202 193 201 155 169 242 232 182 170 218 206 255 185 171 186 234 255 217 211 157 202 199 182 197 239 235 215 219 255 227 191 255 212 209 255 255 197 181 199 160 145 232 214 173 234 193 144 207 238 217 205 215 189 195 221 147 158 161 160 160 160 160 160 160 160 160 160 160 160 160 214
214 160 160 160 160 160 160 160 160 160 160 160 161 139 216 201 203 201 192 208 176 170 152 163 194 185 167 184 235 154 255 255 203 211 192 228 249 203 161 212 219 210 192 233 251 255 193 223 250 188 222 202 181 233 214 255 249 162 166 188 155 225 219 189 195 139 182 203 221 222 211 191 198 211 145 161 161 160 160 160 160 160 160 160 160 160 160 160 160 214
214 160 160 160 160 160 160 160 160 160 160 160 162 140 239 200 209 203 188 232 199 167 166 162 210 198 193 192 239 154 206 255 201 215 219 180 173 195 155 228 231 187 145 225 255 237 180 231 255 172 124 201 173 144 177 229 210 158 238 183 112 203 221 169 217 143 184 204 189 207 187 224 187 213 143 161 160 160 160 160 160 160 160 160 160 160 160 160 160 214
214 160 160 160 160 160 160 160 160 160 160 160 162 136 221 211 221 190 190 224 212 176 149 153 178 152 147 202 233 219 173 244 255 179 182 223 176 199 241 237 185 204 125 239 255 250 175 246 255 201 220 147 148 163 212 162 159 212 255 141 223 175 214 117 223 139 158 194 188 220 205 194 190 214 144 162 160 160 160 160 160 160 160 160 160 160 160 160 160 214
214 160 160 160 160 160 160 160 160 160 160 160 162 137 217 228 213 221 185 195 172 178 151 162 150 148 170 199 234 183 148 200 255 203 170 167 133 240 255 151 205 196 168 255 255 255 213 255 255 201 255 217 121 203 233 191 178 234 190 166 255 231 203 154 206 144 151 187 195 168 206 185 209 194 141 162 160 160 160 160 160 160 160 160 160 160 160 160 160 214
214 160 160 160 160 160 160 160 160 160 160 160 162 142 194 216 183 222 198 176 159 168 157 161 161 156 181 188 183 218 228 204 202 255 198 123 218 255 202 152 207 129 180 225 219 183 187 255 255 187 161 164 175 239 217 233 161 216 118 182 255 219 141 215 208 142 160 148 172 210 232 192 210 198 143 162 160 160 160 160 160 160 160 160 160 160 160 160 160 214
214 160 160 160 160 160 160 160 160 160 160 160 162 141 206 227 174 204 194 162 168 157 160 161 161 153 187 201 126 255 227 134 131 248 167 184 255 198 138 150 164 161 191 212 213 218 212 255 255 230 88 175 255 228 214 238 158 153 177 166 215 147 90 213 225 141 162 153 152 204 231 208 223 188 141 162 160 160 160 160 160 160 160 160 160 160 160 160 160 214
214 160 160 160 160 160 160 160 160 160 160 160 162 140 199 224 186 167 180 172 157 160 161 161 161 148 172 240 109 252 172 116 171 170 191 255 231 127 154 156 146 152 166 253 255 255 204 174 255 155 115 255 255 232 204 244 189 122 217 219 161 128 138 167 240 145 159 165 147 195 218 197 247 188 142 162 160 160 160 160 160 160 160 160 160 160 160 160 160 214
214 160 160 160 160 160 160 160 160 160 160 160 162 146 180 226 190 195 174 170 157 161 160 161 159 160 160 246 161 242 236 131 147 118 255 255 146 135 136 151 152 132 101 242 255 255 196 136 234 111 207 255 250 251 212 221 158 106 117 255 175 133 148 175 224 149 156 153 171 224 202 144 222 183 144 162 160 160 160 160 160 160 160 160 160 160 160 160 160 214
214 160 160 160 160 160 160 160 160 160 160 160 161 151 169 217 218 182 147 151 160 160 160 161 161 159 142 229 208 183 255 176 109 235 255 172 126 130 176 188 198 219 115 187 255 255 233 114 150 167 255 255 248 255 244 181 139 140 167 234 167 152 127 232 230 150 158 160 175 202 227 163 223 186 147 162 160 160 160 160 160 160 160 160 160 160 160 160 160 214
214 160 160 160 160 160 160 160 160 160 160 160 161 154 159 215 203 179 156 161 163 160 160 160 161 158 142 238 222 94 255 232 150 255 197 136 129 114 187 227 225 219 170 144 255 255 232 122 167 225 255 251 252 253 240 154 137 155 196 114 224 255 131 198 210 150 158 163 185 221 219 148 194 172 150 162 160 160 160 160 160 160 160 160 160 160 160 160 160 214
214 160 160 160 160 160 160 160 160 160 160 160 161 154 160 229 216 160 156 160 160 160 160 160 161 156 153 244 178 78 231 255 251 228 123 131 194 127 216 251 251 206 192 122 174 172 188 127 195 255 252 252 255 253 198 155 137 98 176 184 165 255 177 111 199 155 160 151 145 208 208 211 223 175 148 162 160 160 160 160 160 160 160 160 160 160 160 160 160 214
214 160 160 160 160 160 160 160 160 160 160 160 161 156 160 203 202 178 153 161 160 160 160 160 161 159 145 235 189 113 164 255 237 140 129 162 198 123 216 222 226 197 143 121 218 255 252 132 168 250 255 255 249 195 160 140 158 140 255 255 133 255 223 111 207 155 158 156 188 224 213 192 227 182 145 162 160 160 160 160 160 160 160 160 160 160 160 160 160 214
214 160 160 160 160 160 160 160 160 160 160 160 161 157 163 189 170 188 153 161 161 160 160 160 161 162 142 207 225 141 135 255 181 141 133 210 227 175 255 233 245 230 143 87 255 255 225 120 152 218 247 249 213 177 156 130 147 188 255 255 145 255 215 105 211 153 160 153 192 213 195 184 232 182 147 162 160 160 160 160 160 160 160 160 160 160 160 160 160 214
214 160 160 160 160 160 160 160 160 160 160 160 161 157 158 208 190 194 152 159 161 160 160 160 160 162 143 176 252 149 166 230 141 157 127 228 188 202 255 252 255 252 130 62 255 255 250 132 113 187 198 208 168 150 129 132 136 253 255 216 142 206 190 143 209 149 162 157 209 239 189 187 247 179 147 162 160 160 160 160 160 160 160 160 160 160 160 160 160 214
214 160 160 160 160 160 160 160 160 160 160 160 161 160 157 168 210 208 143 157 160 161 160 160 160 162 147 177 251 183 210 202 145 143 172 167 153 237 255 250 253 255 187 129 255 255 255 173 92 104 158 152 141 133 135 113 128 231 255 193 107 156 125 157 206 147 158 158 160 217 212 207 225 164 150 161 160 160 160 160 160 160 160 160 160 160 160 160 160 214
214 160 160 160 160 160 160 160 160 160 160 160 161 158 163 183 160 210 171 166 158 161 160 160 160 162 147 197 226 228 205 150 165 141 180 115 220 255 255 248 254 255 216 128 255 255 255 186 175 160 166 157 118 181 239 196 250 252 245 180 121 146 119 225 186 147 156 171 173 218 219 165 237 163 153 161 160 160 160 160 160 160 160 160 160 160 160 160 160 214
214 160 160 160 160 160 160 160 160 160 160 160 161 158 157 203 147 191 172 158 160 161 160 160 160 162 145 197 195 255 181 141 149 167 155 155 221 236 255 249 255 255 200 112 196 190 200 153 147 179 108 145 189 236 255 238 255 255 202 129 162 189 139 228 164 155 161 158 151 231 205 174 250 159 154 161 160 160 160 160 160 160 160 160 160 160 160 160 160 214
214 160 160 160 160 160 160 160 160 160 160 160 161 159 149 204 202 196 166 156 160 160 160 160 160 162 147 182 171 220 155 155 142 207 144 188 209 226 247 251 255 255 154 119 216 234 252 183 232 232 114 233 255 254 252 250 250 243 196 108 218 211 166 185 142 161 161 153 169 220 205 212 237 156 154 161 160 160 160 160 160 160 160 160 160 160 160 160 160 214
214 160 160 160 160 160 160 160 160 160 160 160 161 161 147 199 203 176 175 166 161 160 160 160 160 162 151 175 154 217 147 149 154 193 167 195 209 225 227 245 255 243 118 161 255 255 255 169 190 137 157 252 255 251 255 243 211 219 151 141 255 215 159 192 147 162 165 152 168 197 204 206 222 154 157 161 160 160 160 160 160 160 160 160 160 160 160 160 160 214
214 160 160 160 160 160 160 160 160 160 160 160 160 161 147 191 232 205 158 162 158 160 160 160 160 161 152 176 166 197 176 146 159 173 179 190 198 206 211 227 245 216 88 150 255 255 247 113 148 83 171 255 255 250 252 222 186 210 123 198 255 180 163 192 150 161 160 154 149 196 208 206 223 152 157 161 160 160 160 160 160 160 160 160 160 160 160 160 160 214
214 160 160 160 160 160 160 160 160 160 160 160 160 161 151 174 233 184 171 179 158 160 161 160 160 161 155 166 213 160 128 167 170 201 148 186 205 199 199 208 214 151 80 168 255 255 147 143 255 190 99 255 255 255 249 195 185 156 121 222 255 157 149 170 156 158 167 163 162 188 216 190 225 149 158 161 160 160 160 160 160 160 160 160 160 160 160 160 160 214
214 160 160 160 160 160 160 160 160 160 160 160 160 161 153 162 227 182 177 189 162 158 161 160 160 161 158 150 220 159 150 212 159 180 145 150 173 189 167 155 135 109 143 197 255 241 103 212 255 255 177 236 255 255 241 190 156 125 157 168 219 134 153 158 160 160 161 171 166 198 205 174 212 145 161 161 160 160 160 160 160 160 160 160 160 160 160 160 160 214
214 160 160 160 160 160 160 160 160 160 160 160 160 161 156 157 222 211 160 174 165 155 161 160 160 161 161 147 195 160 138 229 166 163 233 205 122 143 72 149 145 160 151 193 195 122 131 213 255 255 255 250 255 250 224 190 118 138 224 225 139 128 168 161 161 160 157 153 149 195 198 225 222 140 162 160 160 160 160 160 160 160 160 160 160 160 160 160 160 214
214 160 160 160 160 160 160 160 160 160 160 160 160 161 157 155 210 241 179 162 174 155 161 160 160 160 161 150 182 174 132 229 201 137 210 255 241 199 109 144 117 172 131 198 131 209 225 208 255 250 250 253 255 241 207 154 128 157 196 242 178 147 163 160 160 161 159 181 158 186 179 220 211 139 162 160 160 160 160 160 160 160 160 160 160 160 160 160 160 214
214 160 160 160 160 160 160 160 160 160 160 160 160 161 157 153 208 225 174 169 162 157 161 160 160 160 161 155 173 173 142 220 255 148 199 255 255 140 136 175 168 245 222 236 104 222 248 230 251 254 255 255 243 206 162 116 159 164 169 145 149 154 162 160 160 161 157 162 160 182 132 254 205 137 162 160 160 160 160 160 160 160 160 160 160 160 160 160 160 214
214 160 160 160 160 160 160 160 160 160 160 160 160 161 158 157 194 244 141 155 160 160 160 160 160 160 161 160 157 156 145 208 255 140 151 252 186 102 210 255 255 255 255 233 139 231 250 228 229 234 252 237 200 168 111 153 165 138 213 246 182 152 162 160 160 161 160 158 163 160 150 225 193 144 162 160 160 160 160 160 160 160 160 160 160 160 160 160 160 214
214 160 160 160 160 160 160 160 160 160 160 160 160 161 158 154 183 246 151 177 161 162 160 160 160 160 160 161 161 161 145 189 231 163 108 176 194 179 243 255 255 251 255 255 226 216 242 218 215 211 216 202 145 121 153 169 162 137 175 255 164 143 162 161 160 160 161 160 166 132 192 205 168 151 162 160 160 160 160 160 160 160 160 160 160 160 160 160 160 214
214 160 160 160 160 160 160 160 160 160 160 160 160 161 158 160 168 230 160 153 164 164 162 162 160 160 160 160 160 161 153 152 253 179 179 191 160 201 243 254 255 255 255 225 228 215 215 213 187 189 164 131 120 155 154 157 159 166 151 197 129 159 160 161 160 160 160 160 166 124 217 229 148 156 161 160 160 160 160 160 160 160 160 160 160 160 160 160 160 214
214 160 160 160 160 160 160 160 160 160 160 160 160 161 158 164 158 235 185 131 159 159 160 160 160 160 160 160 160 161 161 165 253 155 189 255 175 169 224 223 255 255 221 197 144 212 164 155 121 127 119 125 166 150 230 148 159 159 161 219 153 156 161 161 160 160 160 161 164 123 240 241 141 159 161 160 160 160 160 160 160 160 160 160 160 160 160 160 160 214
214 160 160 160 160 160 160 160 160 160 160 160 160 161 158 165 158 203 255 180 138 162 159 161 160 160 160 160 160 160 159 142 218 216 157 255 214 110 138 140 196 208 141 137 97 123 140 176 144 160 215 163 135 171 255 143 159 124 240 255 166 149 162 160 160 160 160 161 154 132 255 207 142 162 161 160 160 160 160 160 160 160 160 160 160 160 160 160 160 214
214 160 160 160 160 160 160 160 160 160 160 160 160 161 158 164 160 178 255 250 142 155 160 161 160 160 160 160 160 161 163 124 178 202 175 255 130 188 210 199 139 119 141 248 205 243 152 166 185 227 255 185 113 255 226 134 160 144 228 255 147 150 162 160 160 160 160 164 146 153 255 187 145 162 160 160 160 160 160 160 160 160 160 160 160 160 160 160 160 214
214 160 160 160 160 160 160 160 160 160 160 160 160 161 158 162 163 167 230 255 187 133 164 161 160 160 160 160 160 160 163 153 167 183 202 204 152 244 255 255 249 176 143 192 241 255 143 215 255 255 255 122 150 255 145 153 163 137 231 255 156 151 162 160 160 160 160 165 138 191 255 131 150 164 160 160 160 160 160 160 160 160 160 160 160 160 160 160 160 214
214 160 160 160 160 160 160 160 160 160 160 160 160 161 160 162 170 168 162 244 255 132 156 161 160 160 160 160 160 160 163 154 165 190 194 207 195 244 255 252 237 240 126 56 251 221 132 152 169 195 160 107 233 213 90 142 129 128 249 255 153 153 161 160 160 160 160 166 125 223 238 113 155 164 160 160 160 160 160 160 160 160 160 160 160 160 160 160 160 214
214 160 160 160 160 160 160 160 160 160 160 160 160 160 160 160 167 167 177 163 255 168 136 165 160 160 160 160 160 160 161 159 149 159 180 218 188 219 245 251 247 255 177 140 212 240 255 212 178 159 106 145 255 165 213 246 176 144 188 209 134 159 161 160 160 160 160 166 120 255 192 120 156 164 160 160 160 160 160 160 160 160 160 160 160 160 160 160 160 214
214 160 160 160 160 160 160 160 160 160 160 160 160 160 160 158 166 172 171 104 255 255 114 162 161 160 160 160 160 160 160 164 154 121 184 194 111 210 231 255 255 255 201 95 233 220 194 217 247 255 180 168 219 198 255 255 255 161 255 254 138 158 161 160 160 160 160 164 122 255 168 131 155 164 160 160 160 160 160 160 160 160 160 160 160 160 160 160 160 214
214 160 160 160 160 160 160 160 160 160 160 160 160 160 161 160 166 152 166 108 168 255 164 135 165 160 160 160 160 160 161 159 155 148 142 142 187 203 222 253 255 251 192 100 181 204 255 246 151 198 255 138 168 253 255 255 238 66 147 211 148 160 161 160 160 160 161 160 122 255 130 137 158 164 160 160 160 160 160 160 160 160 160 160 160 160 160 160 160 214
214 160 160 160 160 160 160 160 160 160 160 160 160 160 161 155 178 158 219 167 98 255 255 108 165 161 160 160 160 161 162 134 201 228 126 180 255 222 204 255 254 245 169 143 202 139 125 142 186 136 201 156 229 255 255 255 108 176 220 130 138 158 160 161 160 160 162 152 143 255 131 147 159 161 160 160 160 160 160 160 160 160 160 160 160 160 160 160 160 214
214 160 160 160 160 160 160 160 160 160 160 160 160 160 161 157 160 178 248 255 74 182 255 154 133 165 160 160 160 163 143 169 254 205 109 197 227 195 181 248 255 255 167 109 201 237 224 240 206 137 247 203 212 237 255 232 88 255 255 140 202 163 155 161 160 160 163 140 175 255 143 146 161 161 160 160 160 160 160 160 160 160 160 160 160 160 160 160 160 214
214 160 160 160 160 160 160 160 160 160 160 160 160 160 161 160 156 154 170 255 141 94 255 255 113 164 161 160 161 156 145 236 197 157 116 171 232 241 156 162 196 192 117 118 191 255 253 250 141 162 255 182 211 203 255 181 119 255 255 121 241 193 140 162 160 160 166 127 200 255 147 154 162 160 160 160 160 160 160 160 160 160 160 160 160 160 160 160 160 214
214 160 160 160 160 160 160 160 160 160 160 160 160 160 160 161 161 155 128 247 255 77 182 255 170 131 165 160 162 133 210 203 163 168 142 181 181 247 255 203 191 185 131 177 146 175 234 201 123 199 210 167 194 215 255 144 145 255 255 112 247 236 129 162 161 161 165 115 240 248 147 159 163 160 160 160 160 160 160 160 160 160 160 160 160 160 160 160 160 214
214 160 160 160 160 160 160 160 160 160 160 160 160 160 160 160 161 162 146 157 255 174 96 255 255 115 160 161 163 139 255 155 189 184 131 183 201 202 233 255 255 255 188 172 147 140 173 164 196 214 203 194 168 255 255 121 156 255 214 105 227 255 141 164 161 159 147 148 255 228 154 155 163 160 160 160 160 160 160 160 160 160 160 160 160 160 160 160 160 214
214 160 160 160 160 160 160 160 160 160 160 160 160 160 160 160 160 161 161 129 234 255 86 190 255 184 130 175 165 154 255 125 188 214 127 169 210 215 185 200 246 255 181 182 129 207 204 178 188 156 211 181 207 255 255 105 163 232 172 116 215 255 99 170 163 157 141 206 255 220 142 158 161 160 160 160 160 160 160 160 160 160 160 160 160 160 160 160 160 214
214 160 160 160 160 160 160 160 160 160 160 160 160 160 160 160 160 160 162 147 147 255 158 97 255 255 133 194 48 119 255 112 158 215 132 144 180 207 205 182 202 232 136 237 158 178 255 255 255 229 62 129 240 255 255 190 144 226 143 151 199 255 50 142 174 147 180 229 255 192 152 158 161 160 160 160 160 160 160 160 160 160 160 160 160 160 160 160 160 214
214 160 160 160 160 160 160 160 160 160 160 160 160 160 160 160 160 160 161 161 129 240 255 71 208 255 215 80 0 158 255 109 139 209 159 155 174 199 179 152 139 163 92 134 211 156 127 136 202 255 132 55 204 68 75 158 134 198 160 220 198 255 114 93 192 139 189 255 255 149 165 162 160 160 160 160 160 160 160 160 160 160 160 160 160 160 160 160 160 214
214 160 160 160 160 160 160 160 160 160 160 160 160 160 160 160 160 160 160 162 147 151 255 164 115 255 255 78 0 130 255 119 116 199 175 172 171 188 220 241 247 251 134 189 255 229 132 4 96 235 160 56 203 51 1 108 139 149 145 143 186 230 73 64 204 129 192 255 230 111 159 165 160 160 160 160 160 160 160 160 160 160 160 160 160 160 160 160 160 214
214 160 160 160 160 160 160 160 160 160 160 160 160 160 160 160 160 160 160 161 161 128 242 255 87 230 255 255 18 20 255 140 91 198 138 173 207 222 240 254 255 243 142 226 190 255 255 242 233 240 149 52 137 72 141 255 255 131 112 73 111 72 26 29 163 112 223 255 197 105 137 169 160 160 160 160 160 160 160 160 160 160 160 160 160 160 160 160 160 214
214 160 160 160 160 160 160 160 160 160 160 160 160 160 160 160 160 160 160 160 162 146 154 255 142 137 255 255 239 4 255 226 98 137 37 125 193 183 197 182 181 151 69 86 13 112 173 165 218 204 103 58 124 88 206 255 255 173 73 35 53 71 56 78 169 191 255 249 179 131 147 167 160 160 160 160 160 160 160 160 160 160 160 160 160 160 160 160 160 214
214 160 160 160 160 160 160 160 160 160 160 160 160 160 160 160 160 160 160 160 161 161 128 245 255 6 241 255 255 212 215 160 60 75 75 78 158 205 208 175 158 137 41 60 101 72 84 96 167 105 141 62 61 175 254 255 255 131 52 58 69 68 126 248 230 227 255 231 172 155 165 161 160 160 160 160 160 160 160 160 160 160 160 160 160 160 160 160 160 214
214 160 160 160 160 160 160 160 160 160 160 160 160 160 160 160 160 160 160 160 160 162 147 151 255 70 118 255 255 255 101 16 49 60 56 57 74 177 218 171 212 168 53 74 104 94 60 50 85 81 58 77 75 230 255 230 196 85 94 103 55 128 255 245 229 170 203 195 176 137 172 158 161 160 160 160 160 160 160 160 160 160 160 160 160 160 160 160 160 214
214 160 160 160 160 160 160 160 160 160 160 160 160 160 160 160 160 160 160 160 160 161 161 130 229 254 105 250 251 255 252 97 53 72 72 66 33 81 121 212 143 64 89 111 110 130 95 83 78 66 85 86 53 48 40 0 117 110 77 40 91 255 255 196 199 232 198 190 183 137 167 160 161 160 160 160 160 160 160 160 160 160 160 160 160 160 160 160 160 214
214 160 160 160 160 160 160 160 160 160 160 160 160 160 160 160 160 160 160 160 160 160 161 151 147 255 220 191 255 255 255 159 103 188 178 191 143 70 23 77 35 50 48 71 59 70 95 92 78 76 99 88 98 85 84 58 150 120 42 94 255 255 116 39 101 255 203 218 189 167 157 160 160 160 160 160 160 160 160 160 160 160 160 160 160 160 160 160 160 214
214 160 160 160 160 160 160 160 160 160 160 160 160 160 160 160 160 160 160 160 160 160 160 169 129 197 224 214 200 215 255 254 223 246 243 255 255 202 101 74 99 91 74 99 103 84 89 87 85 88 104 107 123 105 83 77 175 76 80 255 255 142 60 85 162 252 208 245 181 169 155 161 160 160 160 160 160 160 160 160 160 160 160 160 160 160 160 160 160 214
214 160 160 160 160 160 160 160 160 160 160 160 160 160 160 160 160 160 160 160 160 160 159 179 115 72 255 220 165 237 255 211 137 223 255 255 255 255 255 255 128 69 90 112 106 116 121 141 117 110 120 108 89 80 62 106 159 45 113 255 215 58 83 81 173 217 228 227 175 156 158 161 160 160 160 160 160 160 160 160 160 160 160 160 160 160 160 160 160 214
214 160 160 160 160 160 160 160 160 160 160 160 160 160 160 160 160 160 160 160 160 160 159 185 114 0 235 102 255 245 255 189 206 249 136 86 103 206 255 255 194 85 70 104 98 99 101 87 105 107 116 90 82 91 64 146 104 48 228 255 137 96 80 140 230 205 238 221 176 153 161 161 160 160 160 160 160 160 160 160 160 160 160 160 160 160 160 160 160 214
214 160 160 160 160 160 160 160 160 160 160 160 160 160 160 160 160 160 160 160 160 160 158 183 122 26 141 80 255 197 205 240 243 255 60 34 59 31 104 255 255 248 64 64 95 100 101 94 98 102 89 85 95 83 78 150 62 110 255 253 98 112 75 217 245 225 230 211 158 154 161 160 160 160 160 160 160 160 160 160 160 160 160 160 160 160 160 160 160 214
214 160 160 160 160 160 160 160 160 160 160 160 160 160 160 160 160 160 160 160 160 160 158 188 107 43 85 56 227 235 199 235 228 255 161 48 105 88 39 125 255 255 247 67 67 92 101 103 91 97 86 88 94 68 84 103 38 242 255 122 126 73 94 253 234 239 204 187 155 158 161 160 160 160 160 160 160 160 160 160 160 160 160 160 160 160 160 160 160 214
214 160 160 160 160 160 160 160 160 160 160 160 160 160 160 160 160 160 160 160 160 160 158 190 104 47 108 117 128 155 213 254 253 255 255 61 112 120 62 55 69 163 255 255 66 84 94 93 95 87 93 89 82 69 129 70 100 255 139 83 170 88 116 255 218 237 198 162 155 160 161 160 160 160 160 160 160 160 160 160 160 160 160 160 160 160 160 160 160 214
214 160 160 160 160 160 160 160 160 160 160 160 160 160 160 160 160 160 160 160 160 160 158 187 114 48 86 133 155 91 183 195 255 124 255 197 25 102 111 97 55 17 169 255 149 47 95 91 84 80 83 78 84 72 87 38 241 255 90 126 142 117 209 230 219 250 193 148 160 161 160 160 160 160 160 160 160 160 160 160 160 160 160 160 160 160 160 160 160 214
214 160 160 160 160 160 160 160 160 160 160 160 160 160 160 160 160 160 160 160 160 160 158 185 125 49 93 137 140 108 149 218 255 164 128 255 86 57 135 106 70 92 48 249 255 96 73 98 90 95 97 90 74 90 68 84 255 217 79 112 113 202 255 208 255 174 128 166 160 160 160 160 160 160 160 160 160 160 160 160 160 160 160 160 160 160 160 160 160 214
214 160 160 160 160 160 160 160 160 160 160 160 160 160 160 160 160 160 160 160 160 160 158 184 125 40 96 135 135 142 108 227 255 255 63 255 255 40 44 100 71 81 76 57 255 255 65 89 98 91 94 70 58 110 64 178 255 87 73 91 187 232 236 218 255 65 115 177 159 160 160 160 160 160 160 160 160 160 160 160 160 160 160 160 160 160 160 160 160 214
214 160 160 160 160 160 160 160 160 160 160 160 160 160 160 160 160 160 160 160 160 160 159 179 139 50 100 124 149 161 98 129 255 255 217 100 255 251 100 84 72 83 70 66 79 112 53 115 84 79 68 70 107 105 57 255 164 52 32 142 255 223 214 250 238 24 140 178 159 160 160 160 160 160 160 160 160 160 160 160 160 160 160 160 160 160 160 160 160 214
214 160 160 160 160 160 160 160 160 160 160 160 160 160 160 160 160 160 160 160 160 160 159 169 167 57 89 125 150 144 151 59 219 255 255 154 135 255 255 162 137 68 49 58 41 33 165 174 66 72 75 102 89 120 107 101 96 50 81 255 241 210 245 255 165 25 138 180 159 160 160 160 160 160 160 160 160 160 160 160 160 160 160 160 160 160 160 160 160 214
214 160 160 160 160 160 160 160 160 160 160 160 160 160 160 160 160 160 160 160 160 160 160 163 188 74 92 135 123 137 163 88 112 225 242 255 144 214 255 211 255 179 124 32 118 195 137 68 69 63 105 83 112 96 91 38 48 53 255 255 148 255 255 164 65 47 131 181 158 160 160 160 160 160 160 160 160 160 160 160 160 160 160 160 160 160 160 160 160 214
214 160 160 160 160 160 160 160 160 160 160 160 160 160 160 160 160 160 160 160 160 160 160 162 185 81 90 121 123 158 144 97 104 125 232 240 255 213 211 186 227 250 255 255 255 151 167 215 104 94 103 114 136 104 129 14 117 255 255 79 234 255 207 70 106 58 134 181 158 160 160 160 160 160 160 160 160 160 160 160 160 160 160 160 160 160 160 160 160 214
214 160 160 160 160 160 160 160 160 160 160 160 160 160 160 160 160 160 160 160 160 160 160 162 179 56 88 101 124 131 122 91 127 67 146 227 255 233 220 205 221 215 138 207 224 196 192 73 58 104 98 143 118 58 79 169 255 243 52 190 255 255 119 77 122 52 132 180 158 160 160 160 160 160 160 160 160 160 160 160 160 160 160 160 160 160 160 160 160 214
214 160 160 160 160 160 160 160 160 160 160 160 160 160 160 160 160 160 160 160 160 160 160 163 183 72 87 115 129 156 108 111 121 119 88 115 226 227 225 237 255 255 243 255 196 111 46 75 90 103 97 128 107 174 255 252 121 79 200 255 255 174 111 111 119 45 142 180 159 160 160 160 160 160 160 160 160 160 160 160 160 160 160 160 160 160 160 160 160 214
214 160 160 160 160 160 160 160 160 160 160 160 160 160 160 160 160 160 160 160 160 160 160 166 173 62 88 117 131 130 116 138 102 157 109 59 56 209 255 255 250 248 212 134 44 59 66 82 101 114 88 94 166 147 83 91 212 255 255 247 135 100 138 97 94 65 146 176 159 160 160 160 160 160 160 160 160 160 160 160 160 160 160 160 160 160 160 160 160 214
214 160 160 160 160 160 160 160 160 160 160 160 160 160 160 160 160 160 160 160 160 160 160 167 169 74 95 110 142 107 136 145 102 147 106 99 56 47 130 151 244 173 110 68 73 66 73 94 88 115 142 77 132 229 229 255 255 233 232 135 61 153 130 91 85 75 150 174 159 160 160 160 160 160 160 160 160 160 160 160 160 160 160 160 160 160 160 160 160 214
214 160 160 160 160 160 160 160 160 160 160 160 160 160 160 160 160 160 160 160 160 160 159 173 161 55 94 113 142 108 147 172 104 136 142 128 98 64 108 66 51 109 125 55 95 36 59 85 101 97 119 166 222 146 163 255 143 138 180 76 117 172 137 108 74 60 149 172 159 160 160 160 160 160 160 160 160 160 160 160 160 160 160 160 160 160 160 160 160 214
214 160 160 160 160 160 160 160 160 160 160 160 160 160 160 160 160 160 160 160 160 160 159 177 141 42 102 113 122 109 136 166 118 125 159 123 92 93 98 110 101 178 101 37 146 86 78 114 103 77 101 122 34 45 221 70 37 126 139 82 139 147 148 131 76 80 168 166 160 160 160 160 160 160 160 160 160 160 160 160 160 160 160 160 160 160 160 160 160 214
214 160 160 160 160 160 160 160 160 160 160 160 160 160 160 160 160 160 160 160 160 160 159 172 157 42 92 120 116 102 145 177 135 96 157 105 100 61 71 113 113 130 65 34 185 73 81 122 67 71 76 106 72 131 136 40 96 154 149 103 149 127 137 112 83 171 174 160 160 160 160 160 160 160 160 160 160 160 160 160 160 160 160 160 160 160 160 160 160 214
214 160 160 160 160 160 160 160 160 160 160 160 160 160 160 160 160 160 160 160 160 160 160 161 189 90 77 126 96 123 157 167 130 82 136 106 91 59 77 120 137 109 43 128 213 72 72 153 80 66 168 154 130 177 152 34 93 132 125 108 140 145 124 71 108 179 160 160 160 160 160 160 160 160 160 160 160 160 160 160 160 160 160 160 160 160 160 160 160 214
214 160 160 160 160 160 160 160 160 160 160 160 160 160 160 160 160 160 160 160 160 160 160 159 187 120 75 121 78 146 157 164 137 89 152 144 108 74 85 144 98 86 137 192 196 119 96 153 104 53 173 182 171 172 155 121 92 100 109 136 136 156 141 135 177 166 160 160 160 160 160 160 160 160 160 160 160 160 160 160 160 160 160 160 160 160 160 160 160 214
214 160 160 160 160 160 160 160 160 160 160 160 160 160 160 160 160 160 160 160 160 160 160 159 179 127 61 112 86 150 160 146 148 107 99 132 98 78 117 147 49 174 180 176 100 60 139 172 85 52 159 177 158 159 168 182 177 153 156 172 164 162 166 170 164 160 160 160 160 160 160 160 160 160 160 160 160 160 160 160 160 160 160 160 160 160 160 160 160 214
214 160 160 160 160 160 160 160 160 160 160 160 160 160 160 160 160 160 160 160 160 160 160 160 165 173 85 86 76 139 168 149 148 103 82 121 90 61 145 174 144 175 159 174 107 40 113 172 101 40 97 186 159 160 160 159 163 166 166 163 161 161 160 160 160 160 160 160 160 160 160 160 160 160 160 160 160 160 160 160 160 160 160 160 160 160 160 160 160 214
249 214 214 214 214 214 214 214 214 214 214 214 214 214 214 214 214 214 214 214 214 214 214 214 214 223 236 205 116 167 203 178 191 155 122 146 126 161 231 223 221 215 213 217 242 210 109 213 196 112 132 236 212 214 214 214 213 213 211 214 214 214 214 214 214 214 214 214 214 214 214 214 214 214 214 214 214 214 214 214 214 214 214 214 214 214 214 214 214 249
