P2
# High-boost result
90 90
255
11 9 12 10 10 10 10 8 9 10 10 10 10 8 6 7 7 9 11 9 7 7 7 7 8 10 6 6 10 10 10 10 10 10 10 10 10 11 12 12 12 8 10 12 12 12 12 10 9 11 11 9 10 10 7 7 7 9 10 8 7 7 7 7 7 7 7 7 7 7 7 7 7 7 7 7 11 8 8 10 10 10 3 64 114 39 0 137 147 74
0 0 0 7 8 7 8 4 4 6 6 4 4 8 8 7 5 5 5 4 6 7 5 6 6 6 6 8 8 8 8 7 10 10 10 8 4 0 0 0 0 0 0 0 0 0 0 0 0 0 0 0 0 0 6 11 8 6 7 8 7 5 7 5 5 5 5 5 5 7 5 5 5 5 7 5 5 5 8 6 6 8 5 0 0 0 0 0 0 0
255 252 0 0 8 7 8 6 8 8 6 6 7 7 7 7 7 5 7 8 8 8 8 8 8 8 8 8 9 10 6 0 0 0 0 0 0 0 0 0 27 48 61 71 91 132 199 177 139 118 70 86 14 0 0 0 0 0 7 10 10 5 5 7 5 7 5 7 5 7 5 5 5 5 9 7 5 5 9 7 5 6 9 9 10 9 9 9 10 11
255 255 0 0 8 8 8 8 8 8 8 8 7 5 5 5 5 7 6 6 8 6 6 8 8 9 10 4 0 0 0 0 47 109 180 212 255 255 255 255 255 255 255 255 255 242 169 218 221 229 247 249 255 255 185 99 17 0 0 0 0 7 11 6 5 5 7 7 5 5 5 5 7 5 9 7 5 5 7 5 5 5 6 6 6 6 6 8 8 10
27 15 0 5 8 8 6 8 6 6 6 5 7 7 5 5 7 7 6 6 6 6 8 9 9 0 0 0 24 153 226 243 208 160 88 2 0 0 0 0 0 0 0 0 0 0 0 0 0 0 0 0 77 222 255 255 255 255 207 66 0 0 0 0 9 8 7 5 5 5 5 5 5 5 5 7 5 7 7 7 7 7 7 5 7 5 7 7 5 9
0 0 5 8 8 6 8 6 4 9 7 5 5 7 7 7 7 5 6 8 8 7 9 0 0 0 84 228 250 141 0 0 0 0 0 13 57 78 88 84 104 88 80 63 11 0 0 5 1 3 1 0 0 0 0 0 0 146 254 255 255 231 87 0 0 0 3 8 6 5 7 5 5 5 5 5 5 5 5 7 7 7 5 5 7 7 5 5 5 7
11 9 9 8 8 6 7 7 7 7 5 5 5 5 7 6 6 7 6 7 9 3 0 0 126 255 238 25 0 0 84 210 255 255 255 255 255 255 255 231 180 191 192 178 166 146 50 13 0 1 0 0 2 24 54 28 0 0 0 0 21 166 255 255 199 28 0 0 0 10 9 7 7 5 7 7 7 7 5 5 5 5 7 7 5 5 5 5 7 7
10 6 8 4 5 5 5 5 7 5 5 5 5 7 7 6 8 6 5 9 0 0 23 255 255 37 0 25 216 149 255 164 138 218 255 255 187 99 124 119 117 160 143 113 126 136 188 142 18 0 0 34 188 255 255 255 255 248 6 0 0 0 0 21 209 255 232 49 0 0 3 9 5 9 5 9 5 7 7 7 7 5 5 5 5 5 5 5 5 7
8 8 6 5 5 5 5 5 7 7 7 5 5 7 7 6 6 7 9 0 0 166 255 148 0 0 164 203 191 145 128 121 86 104 148 137 134 96 124 137 152 201 148 123 144 175 142 60 255 98 206 211 117 81 83 103 178 242 203 252 255 183 38 0 0 0 124 255 232 27 0 0 7 7 5 5 5 9 7 5 7 7 7 5 5 5 5 5 5 7
7 7 7 7 5 5 5 5 7 7 5 5 7 5 5 5 9 10 0 0 230 255 8 0 74 245 227 81 121 168 185 157 113 149 160 98 111 121 142 126 163 196 119 124 134 154 208 116 149 205 204 67 120 121 84 105 114 157 161 89 95 227 255 255 230 63 0 0 127 255 175 0 0 3 6 5 7 5 5 5 5 5 5 7 7 5 5 5 5 7
7 5 7 5 5 5 5 5 5 5 7 9 7 5 5 7 9 0 0 255 255 0 0 148 255 179 110 116 99 137 157 133 106 130 130 131 114 99 132 131 171 131 81 94 144 162 121 99 184 136 49 89 186 170 180 125 108 126 107 113 114 145 140 172 255 255 255 120 0 0 219 255 44 0 0 6 5 7 7 5 7 7 7 7 5 5 5 5 5 7
7 5 5 5 5 7 5 5 5 5 5 5 7 7 7 8 0 0 255 255 0 0 160 104 88 102 143 132 104 122 155 140 94 103 115 133 159 170 136 139 135 113 82 135 178 187 125 86 255 242 195 116 131 122 119 117 127 111 77 120 133 126 127 91 165 224 207 255 234 0 0 104 255 109 0 0 8 7 7 7 5 5 7 7 5 5 5 5 5 7
7 5 5 5 5 5 5 7 7 5 5 5 5 5 6 0 0 183 255 0 0 182 133 154 148 148 129 129 129 128 138 135 125 115 137 140 135 196 133 98 85 72 115 150 142 146 117 174 229 198 120 118 141 150 127 94 114 118 116 120 105 103 132 126 173 204 119 100 167 255 99 0 13 255 165 0 0 8 5 5 5 5 5 5 5 5 5 5 5 7
7 5 5 5 5 5 5 5 5 5 5 7 7 6 5 0 90 255 0 0 96 136 140 187 137 112 114 116 121 129 117 136 128 97 101 126 118 158 143 84 70 64 142 148 151 160 60 160 232 26 47 130 120 107 126 73 80 115 98 104 121 82 122 97 149 157 100 82 46 159 255 159 0 0 255 176 0 0 8 5 5 5 5 5 5 5 5 5 5 7
7 5 5 5 5 5 5 5 5 5 7 9 7 8 0 7 255 28 0 70 231 86 135 148 87 110 118 115 125 116 124 106 97 111 100 137 127 133 106 51 69 104 144 119 126 146 71 148 249 117 94 155 133 147 143 76 90 93 80 120 115 94 97 74 121 140 115 97 154 167 122 141 59 0 0 255 118 0 4 8 5 5 5 5 5 5 5 5 5 7
7 5 5 5 5 5 5 5 5 5 7 6 5 0 0 255 93 0 19 255 220 76 121 117 111 115 90 104 100 108 103 89 102 107 108 122 94 105 60 61 114 141 160 153 150 112 71 191 255 122 61 122 94 119 117 69 71 70 92 94 84 82 117 92 110 112 107 132 160 105 88 113 137 0 0 91 255 13 0 8 5 5 5 5 5 5 5 5 5 7
7 5 5 5 5 5 5 5 5 5 7 7 1 0 177 193 0 62 255 255 166 102 128 115 122 110 106 117 105 119 117 102 119 96 102 85 96 114 79 113 124 112 118 131 128 101 118 248 249 186 72 119 130 135 124 82 70 58 84 114 113 121 139 113 94 93 115 106 96 94 134 84 133 158 0 0 212 245 0 0 6 5 5 5 5 5 5 5 5 7
7 5 5 5 5 5 5 5 5 5 5 5 0 73 255 0 106 255 161 65 117 162 136 142 145 128 119 113 111 127 100 94 102 104 116 133 148 134 126 130 128 161 153 137 156 191 255 255 188 194 133 147 142 152 142 101 81 67 103 108 91 94 102 106 105 80 88 74 90 96 88 87 182 255 110 0 0 255 66 0 6 6 5 5 5 5 5 5 5 7
7 5 5 5 5 5 5 5 5 5 8 0 0 255 0 59 255 189 107 138 155 107 145 148 143 145 104 101 123 107 97 99 111 113 131 136 100 112 153 158 126 133 121 125 147 149 255 255 219 185 81 117 125 119 124 104 103 86 79 81 77 100 97 78 67 50 80 89 114 84 99 132 108 125 214 0 0 151 255 0 0 6 5 5 5 5 5 5 5 7
7 5 5 5 5 5 5 5 5 6 4 0 181 178 0 255 141 150 139 129 134 140 136 132 120 111 115 133 96 75 105 105 126 110 86 64 52 103 184 206 175 131 149 147 99 144 255 207 51 78 120 162 99 113 137 134 94 82 91 142 97 107 104 55 68 74 90 120 108 78 70 90 121 87 138 45 0 0 255 84 0 8 5 5 5 5 5 5 5 7
7 5 5 5 5 5 5 5 6 7 0 0 255 0 114 186 87 124 143 156 120 118 128 133 116 120 126 91 75 82 96 91 82 70 101 98 45 79 157 149 142 134 141 123 113 195 207 28 107 133 117 172 166 129 130 140 98 60 75 123 126 126 127 86 86 108 149 177 156 150 104 93 101 75 204 229 0 0 121 255 0 0 6 5 5 5 5 5 5 7
7 5 5 5 5 5 5 5 6 2 0 191 203 0 161 110 104 116 125 109 112 140 108 113 115 101 83 67 81 71 86 100 87 87 144 128 50 71 166 114 135 144 98 131 149 101 39 109 171 149 126 112 125 133 125 125 59 37 43 49 76 102 99 95 84 94 131 133 150 132 115 110 118 57 181 255 147 0 0 255 83 0 9 5 5 5 5 5 5 7
7 5 5 5 5 5 5 5 7 0 0 255 0 0 72 110 170 135 125 86 78 98 108 102 101 99 86 78 73 60 69 89 80 146 174 106 82 41 137 181 134 136 175 222 176 136 196 154 143 179 168 166 153 137 160 133 53 47 91 77 30 76 107 85 85 80 59 87 109 104 129 120 89 75 85 146 113 98 0 116 208 0 4 6 5 5 5 5 5 7
7 5 5 5 5 5 5 6 7 0 159 175 0 0 65 130 208 156 72 89 109 95 77 42 58 55 56 88 89 104 129 128 110 171 139 3 24 26 31 170 246 231 173 98 111 100 69 8 141 136 134 111 180 205 152 84 31 67 145 142 65 87 110 90 76 72 83 85 94 112 118 125 120 132 113 102 72 97 62 0 255 0 0 8 5 5 5 5 5 7
7 5 5 5 5 5 5 6 0 0 218 17 0 0 30 124 144 128 93 123 130 139 128 77 74 70 56 96 103 114 148 147 104 153 208 133 45 0 0 14 142 207 233 155 144 156 88 56 143 160 151 124 176 131 26 23 33 37 95 138 84 95 110 83 97 96 97 131 159 169 125 133 171 131 51 102 163 77 117 0 185 136 0 6 7 7 5 5 5 7
7 5 5 5 5 5 5 7 0 39 169 0 15 0 0 71 101 132 139 116 76 82 123 113 114 112 88 78 80 100 139 119 85 174 237 255 255 29 0 0 0 23 163 182 145 93 164 189 233 205 154 120 51 0 0 0 5 64 163 136 75 81 125 83 98 74 55 82 76 76 100 93 86 74 80 78 127 79 97 3 23 244 0 0 7 7 5 5 5 7
7 5 5 5 5 5 6 6 0 122 83 0 3 0 13 135 90 138 179 202 170 180 162 204 146 115 123 139 132 143 159 142 103 157 243 255 255 255 85 0 8 0 0 4 123 56 0 117 93 49 0 0 0 0 0 32 216 230 228 117 92 121 97 55 80 50 13 25 36 21 44 40 55 50 87 80 62 68 154 62 0 255 63 0 10 5 7 7 5 7
7 5 5 5 5 5 6 0 0 201 0 46 23 0 44 255 248 197 148 137 135 161 99 120 188 128 150 163 174 157 138 139 67 99 192 179 194 255 255 123 0 17 25 17 0 0 0 0 0 5 7 7 0 0 158 255 255 225 177 131 161 124 86 111 129 107 74 54 65 61 71 62 50 62 109 123 92 97 176 32 0 145 192 0 8 7 5 5 5 9
7 5 5 5 5 5 6 0 104 134 0 208 0 0 214 255 81 55 108 130 174 177 116 95 171 108 117 118 160 158 146 144 51 74 92 64 69 105 245 255 129 0 0 31 23 27 19 18 25 12 0 0 103 255 255 255 255 194 102 107 143 121 119 137 114 113 133 116 109 118 164 120 99 126 111 96 102 88 167 6 0 0 221 3 0 8 5 5 5 7
7 5 5 5 5 8 4 0 154 0 93 13 0 255 255 174 71 119 109 68 106 68 9 159 207 217 220 109 124 184 148 116 59 49 94 111 102 95 98 203 255 210 0 0 0 0 0 0 0 0 66 245 255 255 255 255 221 162 76 79 125 126 111 126 132 92 109 119 134 115 134 150 138 157 114 120 109 74 192 2 7 0 112 100 0 6 5 5 5 7
7 5 5 5 5 7 0 51 74 0 0 0 255 251 160 85 106 164 116 134 134 61 71 229 211 191 167 140 142 144 120 115 80 31 63 127 113 91 100 57 188 255 255 117 51 32 27 39 64 210 255 255 255 210 114 51 74 93 61 102 133 146 128 86 137 221 118 103 107 82 68 109 100 92 88 92 93 78 154 0 9 0 36 81 0 0 6 5 5 7
7 5 5 5 6 7 0 48 2 0 0 227 250 89 86 107 175 193 168 127 116 129 136 129 127 134 131 170 149 115 80 94 77 45 55 64 86 71 87 77 88 255 255 255 255 255 255 255 255 255 255 247 140 57 63 63 78 58 62 105 112 130 135 132 105 100 121 124 124 129 134 140 123 107 97 94 97 62 69 0 1 5 0 82 53 0 6 5 5 7
7 5 5 6 6 0 41 28 0 0 233 255 118 58 111 164 203 164 132 103 102 125 150 154 137 134 162 145 143 121 83 87 63 69 43 38 78 103 95 97 67 236 255 255 255 250 238 255 255 255 245 69 56 91 82 78 60 52 70 105 120 110 143 159 121 112 130 141 125 122 124 108 108 160 153 96 77 82 68 0 0 8 0 48 138 0 7 7 5 7
7 9 5 6 0 9 106 0 0 112 255 244 215 165 86 69 87 130 144 165 170 165 129 131 170 140 135 115 127 107 66 88 91 61 63 66 60 64 105 85 70 255 255 254 255 238 242 255 255 255 138 28 84 94 93 85 64 52 56 86 100 120 132 138 120 134 111 90 123 168 182 243 154 110 122 103 114 174 255 0 0 20 0 38 162 0 9 5 5 7
7 9 5 8 0 135 70 0 16 236 235 186 170 241 255 244 149 150 133 134 143 123 132 113 152 194 166 144 95 68 89 111 96 70 45 66 77 73 102 60 123 255 255 254 255 233 246 255 255 255 91 53 86 76 91 60 36 60 56 88 74 129 153 127 119 128 109 151 143 151 76 103 153 180 141 83 72 132 238 65 0 22 0 52 83 0 7 7 7 7
7 7 6 0 7 122 0 0 196 234 202 104 120 84 107 124 135 194 250 176 136 143 153 138 142 188 165 101 69 67 112 119 89 64 24 31 31 48 87 36 207 255 255 255 255 205 247 255 255 255 62 81 113 81 67 45 38 70 60 80 69 91 161 183 152 97 178 44 31 108 145 108 90 93 111 121 129 95 115 255 0 0 6 20 40 0 6 5 5 7
7 5 6 0 102 66 0 132 255 246 255 230 208 131 93 95 69 38 119 200 124 120 148 143 149 198 174 111 51 79 98 94 87 97 77 51 16 28 44 137 255 255 252 255 250 179 241 255 255 255 122 72 80 39 36 31 45 73 86 96 81 76 137 126 140 171 239 42 61 169 151 146 115 94 102 99 88 97 122 255 255 0 0 2 43 0 3 6 5 9
7 6 6 0 111 0 29 242 179 154 238 255 255 185 110 161 144 166 140 76 0 214 226 157 101 136 157 88 46 97 115 61 46 61 40 53 30 23 69 245 255 255 243 255 170 126 229 255 255 255 235 77 36 9 31 43 61 83 93 100 75 89 110 110 156 188 134 135 132 161 129 154 103 120 138 94 94 91 63 93 149 193 0 4 64 48 0 6 5 7
7 8 0 26 65 0 109 222 140 133 218 255 255 199 149 203 118 138 189 176 171 208 198 185 155 141 157 88 38 81 87 62 54 41 43 56 13 0 47 179 245 255 255 255 133 26 159 255 255 255 255 127 42 34 41 30 54 87 100 74 77 121 115 135 131 151 138 168 121 109 101 116 126 163 141 101 105 77 50 42 59 210 34 0 20 84 0 7 5 7
7 10 0 68 62 0 195 45 47 96 96 70 35 18 131 163 159 139 87 93 167 119 107 133 169 187 144 52 46 77 40 46 47 22 54 33 47 77 40 64 91 162 207 255 255 149 183 255 255 255 251 162 16 24 37 71 78 81 99 61 56 71 59 129 164 150 124 104 102 152 144 106 110 139 114 83 95 93 64 54 56 35 52 0 0 73 4 4 5 7
7 9 0 88 0 58 255 82 86 118 81 101 135 143 118 97 95 140 123 100 184 215 104 132 161 177 123 81 60 68 64 70 34 24 43 33 62 82 48 38 48 58 42 97 238 250 255 255 255 215 146 127 40 7 43 87 77 85 73 48 58 63 60 99 129 114 131 123 142 149 117 107 128 118 84 75 104 68 84 122 60 64 0 0 0 24 15 1 6 7
9 0 0 132 0 151 255 101 77 119 123 105 130 126 136 117 96 88 142 143 0 165 200 129 93 113 106 82 73 70 73 84 40 49 46 55 62 61 60 50 56 49 71 27 124 255 194 112 123 96 51 59 77 32 28 44 45 73 84 69 66 61 50 71 105 122 155 98 94 128 138 72 56 86 80 51 86 75 112 77 13 139 43 52 0 16 22 0 6 7
10 0 58 130 0 208 255 176 121 136 169 160 132 136 149 134 210 17 78 154 3 153 183 130 126 118 98 68 51 43 55 34 14 2 59 60 55 71 72 64 57 44 77 56 135 208 0 9 44 40 46 52 56 56 21 44 69 69 71 66 59 41 66 91 121 112 128 114 107 105 143 231 175 110 96 88 84 115 122 86 232 255 255 255 0 0 46 0 6 7
10 0 107 65 0 255 255 255 255 255 255 205 145 176 207 130 229 8 113 240 180 120 141 146 128 143 131 86 55 66 59 17 12 36 54 54 67 70 55 83 49 51 74 88 129 55 68 56 60 63 75 88 50 55 32 7 33 31 59 53 61 53 52 72 106 160 174 157 153 113 129 126 77 124 135 100 124 122 95 194 255 176 216 255 50 0 31 0 5 7
9 0 169 0 0 255 217 143 117 129 192 255 252 138 52 142 150 42 156 200 222 63 176 142 195 164 89 61 49 60 47 2 12 56 49 39 47 70 49 62 43 56 52 68 104 67 79 69 78 87 86 60 60 48 67 34 32 17 58 70 66 44 51 77 100 85 115 136 105 106 97 88 113 122 104 99 86 98 77 97 74 36 68 165 105 0 13 13 1 8
6 0 225 0 95 162 36 67 93 76 41 116 211 255 212 116 36 126 118 98 178 63 115 95 144 172 117 83 68 57 26 2 28 49 47 29 41 48 60 57 55 80 89 99 155 89 71 65 63 71 73 71 68 47 59 72 16 35 48 53 59 38 59 104 118 136 111 105 165 143 103 115 112 78 70 96 74 87 88 70 55 38 31 58 127 0 19 43 0 8
0 0 169 0 69 98 111 121 142 148 105 106 76 109 165 146 225 146 97 110 133 94 74 191 80 102 136 90 55 40 12 13 37 41 27 31 60 41 49 59 83 37 30 104 231 113 55 60 73 64 66 105 80 81 45 52 11 2 6 26 37 71 81 105 121 137 108 135 107 97 149 92 113 93 103 141 116 102 75 58 70 63 83 77 152 3 0 54 0 10
0 28 121 0 38 161 152 95 148 162 124 135 108 93 151 233 255 125 87 91 133 89 46 158 219 169 117 91 71 66 19 12 39 43 44 62 75 41 70 98 89 51 67 210 255 193 79 45 73 61 62 62 54 56 47 60 47 2 17 19 42 75 77 106 147 151 153 158 98 154 183 1 61 112 100 93 66 75 77 57 112 158 184 182 255 71 0 49 0 7
0 69 140 0 123 173 133 104 120 120 106 113 105 112 97 61 149 168 109 90 69 73 114 102 126 212 146 112 97 55 20 48 47 39 72 85 96 73 74 83 55 95 211 255 237 254 133 60 79 83 86 64 47 45 73 57 41 11 16 43 69 46 61 111 152 171 134 98 95 109 134 49 71 135 83 159 199 166 202 249 255 255 202 170 249 65 0 85 0 5
0 92 120 0 222 243 164 138 148 102 107 110 103 137 133 135 100 130 187 142 117 52 76 139 87 91 101 81 80 66 68 113 64 43 80 80 56 49 64 52 99 246 255 255 112 255 255 120 51 69 67 52 70 66 54 31 38 32 19 38 67 52 92 124 108 82 0 117 180 126 147 130 36 128 120 125 80 93 155 126 93 65 52 76 107 21 0 60 1 4
0 98 91 0 51 142 106 140 141 137 121 93 82 135 172 134 129 102 131 237 245 56 56 71 96 100 71 102 74 74 77 79 45 30 31 29 39 72 129 196 255 255 69 199 134 255 255 255 80 27 60 71 72 80 46 41 49 38 33 28 60 73 129 110 88 43 41 255 177 116 122 164 84 56 106 59 74 109 125 67 42 40 75 91 83 58 0 48 4 4
0 143 107 0 52 113 137 180 140 94 85 119 102 104 137 134 137 122 125 146 116 184 235 146 92 99 66 70 53 25 44 47 43 71 84 137 160 183 199 254 255 249 0 248 241 255 255 255 223 139 70 23 59 66 34 54 54 48 17 44 86 110 116 66 138 53 118 150 87 134 124 86 106 35 3 141 255 224 75 48 102 96 86 75 81 149 0 38 0 4
0 114 124 0 101 125 159 143 154 151 124 129 156 142 116 111 113 98 58 54 97 178 185 195 106 102 100 52 32 30 171 235 255 255 248 231 237 242 255 255 255 255 255 255 255 255 255 255 255 255 226 141 99 44 39 51 48 82 66 72 70 70 120 135 200 46 70 92 111 180 149 102 93 138 100 75 187 186 96 99 113 75 85 83 51 84 0 82 3 4
0 143 155 0 86 78 147 120 141 164 170 165 132 104 85 83 93 80 79 101 135 97 49 81 61 46 39 93 135 229 255 255 255 255 243 240 254 255 255 223 255 255 255 255 255 255 255 255 255 249 240 239 234 214 190 135 36 11 37 59 59 87 107 110 121 111 0 43 185 253 250 178 130 200 239 174 0 36 146 118 106 67 119 93 71 85 0 64 0 4
0 112 169 0 140 105 151 115 134 157 125 126 127 138 113 66 84 95 97 108 105 94 95 91 67 72 115 255 255 255 255 254 254 255 255 255 255 239 62 14 21 0 0 0 0 2 88 191 209 236 255 222 243 255 255 255 215 45 0 59 109 110 83 55 36 90 145 125 113 58 32 37 46 72 54 44 81 132 16 0 62 83 137 72 90 127 0 82 0 4
0 48 180 0 134 106 167 83 96 162 130 121 101 99 117 96 99 100 97 99 79 54 82 83 93 103 225 255 255 254 254 254 255 255 255 255 178 0 0 0 0 0 0 0 0 0 0 0 0 27 215 255 251 242 252 255 255 255 107 0 57 69 62 82 103 163 149 91 93 98 106 142 141 137 123 144 87 149 255 220 77 0 68 48 83 121 0 128 0 5
0 59 255 0 112 112 210 154 126 147 143 158 89 85 152 120 124 82 107 91 75 67 108 92 75 125 255 255 254 255 255 255 255 255 139 0 0 0 9 13 5 6 5 8 18 11 16 10 0 0 0 194 255 255 255 254 255 255 255 201 55 85 54 78 119 141 98 99 110 98 96 88 94 110 103 162 210 78 46 120 111 44 105 64 91 139 0 119 0 8
0 38 255 0 64 79 226 218 143 117 100 131 72 105 156 123 119 118 102 121 91 95 119 83 85 163 255 255 255 255 255 153 12 0 0 0 22 28 23 7 18 10 12 0 0 0 0 0 4 6 0 0 95 255 255 255 252 254 255 255 179 95 86 39 54 91 138 130 105 112 125 140 139 115 92 121 77 47 63 36 49 73 165 107 51 59 3 120 0 9
0 0 255 0 34 84 173 139 68 93 105 121 95 126 131 120 131 174 156 120 89 53 100 98 89 166 255 255 251 78 0 0 0 84 94 75 86 41 53 75 118 84 90 100 92 57 53 37 16 0 0 0 0 0 205 255 255 255 255 255 255 104 80 60 40 54 90 93 98 121 146 110 101 76 55 70 55 59 70 92 119 37 66 73 37 0 41 102 0 9
6 0 247 27 0 119 125 109 98 138 136 168 148 115 146 166 164 180 152 104 107 105 119 132 158 121 164 45 0 0 56 118 121 130 149 136 129 107 94 114 132 119 98 92 73 90 136 135 101 72 33 0 0 0 0 12 200 255 255 255 223 88 126 137 103 51 24 17 51 48 26 29 69 61 69 77 69 95 79 83 167 184 98 53 106 0 103 99 0 9
9 0 205 115 0 139 124 109 128 173 160 161 148 128 121 109 97 97 96 142 146 143 146 121 175 85 0 0 84 149 136 148 208 131 120 158 117 128 137 135 100 127 101 0 0 32 137 142 84 98 92 92 53 27 0 0 0 37 162 196 116 93 147 148 190 143 52 40 35 54 72 78 86 108 124 63 61 80 66 76 100 107 197 255 235 0 138 42 0 8
9 0 100 213 0 72 200 138 91 119 123 106 130 143 128 134 148 151 137 116 143 116 110 133 150 47 66 128 132 115 163 175 129 94 137 151 126 160 150 129 110 81 144 34 0 84 163 173 117 116 97 101 101 97 121 58 0 0 0 18 84 113 163 163 158 115 63 132 124 127 117 103 125 119 121 91 75 78 68 91 115 78 92 248 20 0 101 0 1 8
8 0 3 255 0 0 244 170 84 131 155 135 142 130 163 220 165 138 142 161 128 55 103 127 109 80 143 182 205 209 210 144 141 173 121 133 122 126 123 115 145 97 170 42 0 98 94 126 79 113 134 117 109 113 156 184 153 77 3 5 72 146 168 122 134 87 88 118 92 119 120 89 89 96 111 87 96 89 76 80 94 97 103 166 0 22 112 0 7 7
8 0 0 255 80 0 19 119 166 145 142 119 150 171 129 152 132 159 166 128 84 55 120 119 78 81 142 193 105 56 101 95 77 122 106 94 124 97 96 109 171 133 122 0 46 155 100 131 84 73 90 104 147 120 85 65 78 67 91 67 33 158 155 125 119 59 72 86 94 120 146 118 54 85 79 77 95 86 90 93 101 87 57 51 0 99 58 0 7 7
7 10 0 177 219 0 5 172 139 101 107 107 137 119 99 139 152 141 116 69 56 60 76 97 62 61 69 167 113 69 128 130 137 129 125 110 115 155 92 131 133 137 137 0 65 125 134 143 103 102 67 73 94 128 193 162 198 213 176 98 58 97 112 136 74 92 95 72 66 111 113 117 72 89 125 120 106 80 103 73 81 53 110 0 0 205 0 0 6 7
10 10 0 51 255 0 0 178 133 156 142 127 140 131 137 117 105 122 89 68 78 74 93 115 72 49 66 157 241 104 110 162 122 96 84 88 126 117 111 173 117 100 196 0 95 112 139 122 91 115 82 124 117 113 147 172 217 238 255 187 82 60 82 53 54 88 111 107 110 94 39 51 101 116 89 77 72 51 71 88 171 255 214 0 15 95 0 5 6 7
8 7 0 0 255 167 0 17 94 135 114 113 126 128 125 105 132 137 106 87 94 105 112 143 70 41 57 65 239 190 68 94 98 84 84 83 84 40 115 136 116 69 255 34 70 123 165 108 106 116 143 201 135 105 138 73 170 123 139 143 82 81 65 36 92 113 104 89 140 124 76 62 77 92 131 153 133 123 75 70 68 190 100 0 104 24 0 7 6 8
8 8 9 0 103 255 0 0 233 145 110 130 142 124 155 136 114 79 54 71 70 102 156 159 103 43 47 35 154 155 113 93 81 82 77 78 69 10 67 54 88 39 98 89 127 131 133 103 110 128 101 93 51 35 127 125 118 71 91 117 90 92 38 43 113 189 234 199 44 46 103 125 80 48 91 99 90 94 112 164 99 27 0 5 165 0 4 6 0 0
11 8 9 0 0 255 140 0 61 172 146 142 124 104 145 126 85 78 113 112 93 98 114 135 151 63 52 66 117 116 113 122 69 73 90 87 36 64 78 100 96 48 39 81 190 84 109 170 191 160 75 65 51 135 187 119 127 100 95 130 111 93 30 42 107 65 167 156 157 166 75 57 72 89 118 86 121 192 198 124 54 24 0 169 77 0 6 0 0 138
0 0 9 8 0 96 255 0 0 98 175 118 163 161 128 90 88 103 152 139 84 106 113 154 182 59 41 88 82 132 133 131 88 56 71 85 50 90 95 97 47 42 58 112 147 59 132 119 116 106 77 62 65 163 109 72 124 127 109 43 21 71 27 40 103 70 143 89 64 102 139 187 123 108 92 82 125 197 158 66 187 0 8 169 0 0 8 0 48 255
229 0 7 7 0 0 255 249 0 0 140 128 178 220 128 116 116 137 134 112 100 114 98 153 137 94 64 68 47 82 140 139 68 63 50 52 55 101 96 56 30 35 94 90 80 79 145 117 96 63 60 79 107 108 80 172 169 103 89 19 39 81 73 41 44 56 104 164 83 31 59 147 179 121 61 70 54 109 72 69 45 0 173 29 0 8 8 0 0 182
255 0 7 8 8 0 57 255 139 0 0 140 151 174 152 127 129 208 146 102 157 129 135 221 163 90 101 74 21 42 122 132 67 87 117 88 84 86 107 62 44 144 145 26 54 60 105 101 56 46 74 95 81 71 86 137 76 77 47 31 83 125 106 53 10 76 56 152 187 77 67 73 86 97 105 86 64 89 88 30 0 105 137 0 3 6 8 0 43 255
44 0 9 8 8 0 0 166 255 47 0 1 136 161 170 161 99 124 156 99 151 122 158 190 106 121 181 137 37 2 36 60 101 94 65 82 101 72 74 61 66 127 140 84 63 98 45 35 79 93 108 76 87 117 88 84 89 46 36 69 125 135 78 62 14 50 91 43 97 174 79 89 76 101 132 120 113 79 41 0 47 175 0 0 6 5 8 0 28 255
0 5 6 8 8 9 0 0 255 255 32 0 0 101 137 124 120 128 121 102 129 123 83 96 99 139 162 112 72 35 19 35 48 84 90 71 53 54 50 83 57 176 191 117 77 81 96 154 105 120 161 203 140 83 63 58 67 66 57 25 31 113 60 104 85 63 132 114 64 92 126 91 83 109 121 93 68 29 0 27 199 0 0 6 6 5 8 0 0 149
11 8 8 8 7 8 7 0 11 255 255 11 0 0 72 152 168 171 125 105 104 117 110 105 109 76 76 125 107 111 85 57 41 55 98 45 55 157 135 94 48 224 118 42 97 97 252 201 55 58 41 54 77 31 0 28 37 71 86 35 167 238 75 87 91 94 114 94 79 85 86 69 94 83 60 32 1 0 22 202 9 0 5 6 5 7 10 0 59 255
10 8 7 8 8 8 8 4 0 42 255 255 0 0 0 19 118 178 167 128 121 106 92 92 110 72 43 103 118 122 80 95 86 66 49 58 51 77 64 89 43 98 102 119 63 82 49 16 73 89 79 67 43 12 53 132 139 84 49 42 231 148 54 58 58 45 75 75 77 99 112 82 155 255 84 0 0 37 186 24 0 4 6 5 5 5 8 0 31 162
3 7 8 8 6 8 7 8 0 0 63 255 255 0 0 0 0 65 168 178 114 165 134 110 193 91 29 66 86 90 105 155 154 104 45 42 45 49 65 110 60 142 13 142 158 164 158 128 91 45 12 22 75 112 114 195 146 86 116 103 105 52 56 80 95 81 106 109 108 105 117 42 19 49 0 0 76 231 18 0 5 6 5 5 5 5 5 6 0 0
11 0 8 8 8 8 7 8 9 0 0 97 255 255 0 0 0 0 35 242 187 122 89 129 187 55 54 89 60 171 178 90 53 29 26 37 56 70 91 77 110 152 65 155 126 117 125 162 81 6 40 111 167 128 41 57 49 61 139 88 68 107 89 103 114 86 74 81 94 92 34 0 0 0 0 170 215 0 0 5 6 5 5 5 5 5 5 5 0 0
255 0 9 7 7 8 8 8 8 9 0 0 69 255 255 26 0 0 0 0 59 61 235 180 97 125 115 92 138 152 71 65 38 37 81 160 168 119 101 98 174 69 187 202 46 92 21 20 29 54 120 132 64 42 56 65 67 52 100 73 79 77 90 73 102 170 197 127 68 12 0 0 0 0 215 182 0 0 5 6 5 5 5 5 5 5 6 0 17 104
175 0 11 7 7 8 6 8 8 8 10 0 0 0 228 255 142 0 0 0 0 0 113 135 91 108 135 149 81 54 91 90 72 81 135 137 113 52 64 112 95 0 79 174 36 107 130 82 42 43 53 8 48 95 96 121 112 73 133 105 28 65 113 148 126 144 172 41 0 0 0 0 105 255 107 0 0 8 6 5 5 5 5 5 5 5 6 0 40 255
98 0 9 7 7 8 6 6 8 7 7 8 6 0 0 79 255 255 0 0 4 0 0 0 0 10 170 209 138 86 96 114 75 225 163 58 105 75 59 22 0 0 0 219 84 85 110 39 34 55 67 83 114 131 90 73 61 54 80 204 199 204 234 173 21 0 0 0 0 0 30 222 235 34 0 0 6 6 5 5 5 5 5 5 5 5 6 0 0 210
207 0 11 7 7 8 8 8 8 7 7 7 8 11 0 0 0 182 255 74 0 0 1 9 6 0 0 15 177 233 134 117 164 132 64 64 75 59 44 0 0 7 0 86 91 76 74 91 92 108 122 90 84 75 42 1 14 73 81 223 255 255 105 0 0 2 0 0 0 103 245 123 0 0 2 6 6 5 5 5 5 5 5 5 5 5 6 6 0 0
77 0 9 7 7 7 7 7 7 7 7 7 7 6 8 7 0 0 26 231 201 68 0 0 0 11 5 0 0 34 116 72 88 68 58 74 102 75 0 1 9 7 0 0 41 126 130 99 52 74 213 178 70 96 89 99 77 93 32 42 8 0 0 0 0 0 0 85 233 171 0 0 0 6 6 5 5 5 5 5 5 5 5 5 5 5 5 5 6 8
177 0 9 8 7 7 7 7 7 7 7 7 8 8 8 8 9 5 0 0 56 220 236 105 1 0 0 0 6 0 0 0 0 0 0 0 5 0 0 8 8 6 9 0 0 33 48 87 188 224 158 75 0 28 32 29 25 0 0 0 0 0 0 0 0 93 240 248 67 0 0 5 6 6 5 5 5 5 5 5 5 5 5 5 5 5 5 5 5 7
185 0 7 8 7 7 7 7 7 7 7 7 7 7 7 7 7 8 9 2 0 0 19 139 209 192 83 0 0 0 0 0 8 8 8 5 3 7 8 12 7 6 6 5 1 0 0 11 55 25 0 0 0 0 0 0 0 3 7 0 0 0 0 132 230 207 57 0 0 0 7 6 5 5 5 5 5 5 5 5 5 5 5 5 5 5 5 5 5 7
3 0 8 8 7 7 7 8 8 8 7 7 7 7 7 7 7 7 8 8 9 6 0 0 0 61 177 211 169 104 31 0 0 0 0 0 0 0 0 8 7 16 20 17 10 11 7 0 0 0 4 12 8 1 0 0 0 0 0 0 76 177 246 175 38 0 0 0 6 6 6 5 5 5 5 5 5 5 5 5 5 5 5 5 5 5 5 5 5 7
15 8 7 7 7 7 7 8 6 8 7 7 7 7 7 7 7 7 7 7 7 8 9 9 0 0 0 0 48 134 197 220 189 161 138 94 46 8 0 0 0 0 0 0 0 0 0 0 0 0 0 0 0 0 17 62 100 142 178 152 160 62 0 0 0 0 7 6 6 5 5 5 5 5 5 5 5 5 5 5 5 5 5 5 5 5 5 5 5 7
15 7 7 8 8 8 7 8 8 8 8 7 7 7 7 7 7 7 7 7 7 7 7 8 8 9 9 0 0 0 0 0 25 81 124 162 197 220 234 226 191 188 181 168 171 154 137 121 130 143 161 161 195 177 162 156 114 60 16 0 0 0 0 8 7 6 6 5 5 5 7 5 5 5 5 5 5 5 5 5 5 5 5 5 5 5 5 5 5 7
11 7 7 7 5 7 7 7 7 5 7 7 7 7 7 7 7 7 7 7 7 7 7 7 7 7 7 8 9 10 6 0 0 0 0 0 0 0 0 0 16 22 45 64 85 72 91 63 50 43 41 25 7 0 0 0 0 0 0 3 6 6 7 5 5 5 5 5 5 5 7 5 5 5 5 5 5 5 5 5 7 7 5 5 5 5 5 5 5 7
13 11 12 10 12 12 10 12 12 10 12 11 12 10 10 12 12 10 10 10 10 12 11 12 10 12 12 10 12 12 10 11 11 14 14 14 11 7 1 0 0 0 0 0 0 0 0 0 0 0 0 0 0 4 11 12 12 12 11 11 10 10 10 10 10 11 7 7 7 11 7 7 11 7 7 9 9 7 11 9 7 7 7 7 7 7 7 7 7 8
