P2
# High-boost result
90 90
255
85 95 87 83 85 82 85 82 75 80 76 68 71 55 83 241 254 65 0 0 134 173 215 222 220 220 217 218 219 220 224 211 164 180 255 232 173 170 187 199 206 198 182 146 87 122 204 211 218 222 220 220 219 221 231 255 65 115 243 244 188 22 35 42 47 114 111 55 64 109 170 207 214 218 218 219 224 222 93 62 96 90 172 188 181 188 210 219 215 250
94 110 98 86 77 71 79 95 102 102 98 96 95 79 53 111 255 255 191 108 182 169 248 255 255 255 255 255 255 255 228 181 238 255 188 18 12 27 27 29 43 48 53 60 126 255 255 255 255 255 255 255 255 255 255 255 15 144 255 244 209 216 212 161 50 25 55 70 153 203 238 250 255 255 255 255 255 255 252 109 83 130 196 199 200 219 240 254 251 255
62 69 63 71 91 104 84 43 62 92 92 89 92 94 90 50 61 204 255 255 211 137 219 253 255 255 255 255 255 252 193 253 255 151 10 20 51 52 54 56 50 46 49 42 31 97 234 255 249 234 237 242 236 236 255 157 85 229 255 246 239 213 234 237 247 105 0 94 207 208 213 216 219 221 221 227 230 234 255 202 32 89 153 155 189 213 224 225 216 255
157 202 187 199 232 248 244 160 34 56 64 44 61 71 70 76 56 21 86 161 130 140 255 255 119 37 12 4 36 96 225 210 23 0 40 48 55 52 53 54 59 57 62 60 53 14 11 158 255 255 236 237 236 242 174 85 154 227 255 253 181 205 230 212 245 255 131 150 204 205 218 228 230 227 225 228 234 231 255 238 1 76 191 184 212 222 222 216 218 255
203 247 216 215 212 210 223 255 137 0 22 76 51 0 15 0 2 21 7 11 32 117 240 33 0 0 20 28 8 0 9 0 16 49 49 50 53 54 55 55 58 58 57 64 64 68 48 3 74 252 255 246 236 200 119 13 108 203 189 214 192 243 212 212 233 240 255 184 166 213 215 213 215 221 226 229 231 232 255 189 0 134 225 172 193 205 193 185 182 255
194 244 217 222 222 226 225 255 234 0 0 207 196 155 192 152 49 0 8 79 79 133 82 0 37 48 45 47 52 44 39 48 50 51 54 55 52 55 55 58 59 58 53 58 57 61 64 59 21 12 189 255 157 93 160 78 145 231 184 217 255 241 233 192 239 245 240 230 170 189 197 202 210 218 222 226 229 227 253 116 0 219 225 172 169 184 178 181 186 255
204 252 224 231 236 241 228 246 176 0 72 195 191 218 229 245 255 152 0 0 70 153 0 29 36 38 42 42 40 40 40 44 35 43 48 48 48 49 51 52 54 55 59 59 58 56 56 59 66 40 35 90 0 166 223 118 143 217 204 190 199 251 228 218 242 251 238 239 197 173 203 214 224 228 226 227 230 231 246 42 1 245 208 194 165 173 183 196 214 255
210 252 218 215 216 230 244 255 35 0 200 195 196 207 207 203 226 255 74 0 141 115 6 38 33 41 39 37 39 41 40 18 22 11 34 49 49 50 53 45 44 48 58 61 58 60 56 57 62 67 58 44 52 229 156 85 79 139 191 213 202 226 229 246 245 236 233 238 223 195 214 222 228 229 228 228 225 238 210 0 81 245 196 203 196 181 183 194 207 255
211 252 217 215 229 251 255 210 0 123 217 197 209 207 197 212 216 255 46 0 228 57 15 35 35 40 40 44 41 39 14 48 190 124 27 48 52 51 51 59 52 41 44 54 53 59 56 56 57 55 56 58 61 74 75 100 118 160 225 224 233 227 244 255 244 229 230 235 230 207 209 220 229 230 231 227 222 236 90 0 140 233 191 201 202 183 170 194 210 255
214 255 222 216 214 237 225 17 33 201 188 209 209 185 222 255 255 119 0 165 215 23 25 37 32 34 41 36 38 34 10 165 255 220 15 46 43 54 65 64 57 46 44 54 53 52 56 57 57 52 50 53 53 39 47 112 128 174 216 211 225 231 234 236 231 226 229 237 234 214 215 218 224 227 236 231 227 130 0 0 182 228 186 191 204 186 167 199 213 255
136 153 161 195 220 214 53 0 150 195 199 210 189 204 255 255 140 0 46 255 129 21 29 37 32 37 41 33 36 16 77 252 255 58 8 47 40 46 59 54 48 47 48 52 56 54 54 63 60 60 57 55 56 54 52 38 45 96 216 236 224 229 225 224 231 236 233 238 238 217 219 226 226 232 251 198 85 0 0 0 181 226 189 190 206 207 183 196 206 255
145 196 172 174 212 120 0 59 208 190 212 192 218 255 255 92 0 0 141 36 15 37 32 36 32 36 34 29 32 66 190 255 177 0 38 52 47 44 43 49 45 45 46 48 54 60 61 60 58 64 70 61 60 55 58 56 45 13 51 224 247 223 222 223 224 232 231 232 237 222 220 229 227 237 255 42 0 0 0 0 148 235 194 182 187 207 194 197 216 255
171 227 203 205 223 233 20 140 201 200 183 191 229 221 51 0 0 85 15 10 63 36 36 36 36 35 34 20 30 122 226 255 50 11 51 51 46 51 51 44 45 47 50 46 51 52 57 62 60 63 64 65 61 57 59 58 56 53 12 49 239 239 222 226 225 233 229 231 233 230 220 226 230 255 217 0 0 0 0 0 90 240 199 188 169 205 199 195 218 255
184 227 201 207 214 247 186 147 185 175 221 255 206 23 0 0 63 45 8 91 75 34 34 33 34 32 31 0 76 179 255 174 0 38 49 49 48 78 64 45 48 51 54 49 50 54 54 62 62 61 60 61 57 60 57 59 59 59 62 8 88 255 236 223 224 234 231 231 234 234 233 255 255 255 126 0 0 0 0 0 31 201 188 189 164 174 204 197 220 255
169 216 201 203 216 228 195 128 185 255 255 168 9 0 0 51 116 22 45 82 47 34 38 35 35 35 12 33 141 209 255 27 12 42 42 46 49 51 51 52 48 51 55 53 58 55 56 56 60 67 60 63 60 59 56 60 60 56 61 48 13 178 255 229 220 228 231 238 255 255 255 169 161 203 145 39 0 0 73 167 199 197 190 193 166 139 193 195 221 255
157 211 200 200 212 220 211 177 255 255 132 0 0 0 0 117 96 28 36 35 34 36 35 39 35 33 0 114 206 255 155 0 43 42 42 46 51 55 56 50 43 51 52 56 59 58 57 58 61 61 66 66 63 58 62 59 58 57 63 75 40 41 153 254 222 226 255 255 240 187 147 47 85 147 203 255 225 142 165 218 221 206 210 215 213 183 178 192 219 255
172 208 195 204 215 233 154 102 239 123 0 0 0 0 97 105 60 26 29 26 24 35 36 38 37 13 13 171 224 255 83 19 47 45 44 50 47 49 48 48 35 43 53 58 57 56 61 60 56 59 65 60 64 65 63 63 58 55 53 68 59 56 11 147 255 255 255 172 120 119 132 146 166 198 204 207 233 247 202 188 204 205 211 215 217 215 196 181 201 255
176 207 195 203 213 249 34 0 9 0 0 0 0 126 230 23 38 28 31 34 29 32 35 34 37 0 86 204 233 255 37 42 46 42 43 45 51 47 70 131 99 25 51 56 58 55 58 61 57 58 60 59 65 67 59 61 58 57 58 56 61 75 40 16 199 200 75 20 60 166 155 142 190 208 210 209 214 219 221 201 196 213 222 224 215 211 215 205 185 255
163 212 190 206 214 167 0 0 0 0 0 0 31 255 158 0 32 33 32 33 35 31 31 35 15 2 153 198 255 223 15 59 45 42 48 46 55 50 69 106 185 50 34 51 54 54 55 58 54 52 69 60 53 51 61 57 46 49 55 44 60 63 46 31 49 0 0 37 90 95 105 169 193 203 207 214 219 222 223 217 213 225 241 247 236 213 208 211 208 255
138 184 220 218 106 0 0 0 0 0 0 0 211 255 120 0 31 38 34 31 29 34 32 24 0 91 200 207 255 231 22 62 53 43 53 51 53 58 52 29 109 116 21 48 51 53 55 60 58 53 68 57 49 81 51 13 57 85 101 118 44 55 73 41 56 32 0 37 109 77 114 172 194 201 207 213 216 219 225 227 216 226 225 230 243 229 236 227 209 255
188 222 229 218 191 177 167 111 0 0 0 99 255 214 160 0 34 32 33 31 29 34 26 0 97 200 184 210 246 255 82 23 51 48 49 45 55 54 61 50 22 123 79 31 52 57 60 59 58 58 52 53 36 200 254 100 79 177 217 185 33 64 179 39 43 85 0 0 37 64 128 166 188 198 206 214 215 223 225 223 213 234 221 203 197 221 255 255 224 255
227 255 220 227 241 253 255 255 164 0 0 224 236 192 211 10 19 36 32 24 10 1 28 15 171 183 221 217 242 255 143 0 30 44 47 46 52 51 61 56 31 61 125 27 54 53 58 60 63 64 60 61 20 198 255 248 188 255 255 204 15 83 234 108 46 77 43 0 0 44 153 173 188 197 207 210 213 235 234 219 205 239 238 190 181 218 255 255 243 255
215 255 223 223 223 227 225 198 144 15 48 255 200 180 222 86 0 42 23 0 58 74 118 95 148 101 170 192 233 217 239 167 0 14 50 49 45 50 49 88 100 27 118 53 41 53 55 60 63 59 57 62 27 174 255 252 223 242 255 229 25 121 170 100 55 64 75 0 0 37 131 188 188 197 205 207 221 242 244 220 209 208 224 200 178 241 255 166 120 219
217 255 224 226 224 224 218 176 85 0 118 255 187 169 191 218 0 20 0 113 228 160 196 212 186 210 148 175 224 181 220 247 147 3 25 53 49 51 46 75 143 50 58 65 37 52 54 61 61 57 59 54 61 178 253 255 177 205 255 150 45 69 40 67 57 55 84 0 0 41 94 186 192 196 205 206 222 244 246 222 205 219 210 235 255 191 65 76 177 255
220 255 227 225 226 231 215 121 18 0 151 250 188 146 155 255 79 0 62 255 209 140 160 197 139 180 169 188 228 230 231 213 255 166 0 43 52 52 43 76 156 70 29 66 41 50 54 60 60 59 63 50 86 185 255 254 111 220 236 75 68 58 42 55 48 49 105 22 0 38 93 188 192 201 209 201 230 251 250 221 201 219 211 177 189 82 114 209 212 255
219 255 221 226 238 253 158 19 0 0 195 241 185 154 182 243 202 0 199 230 146 159 184 203 199 185 177 191 227 218 222 225 217 255 49 18 57 55 30 142 255 136 22 57 46 51 54 59 57 60 63 51 94 167 210 131 61 126 91 53 94 56 37 48 35 31 120 26 0 36 98 168 186 197 201 205 239 252 252 224 205 226 192 104 54 77 161 199 203 255
238 255 243 249 241 150 0 0 0 0 232 224 180 186 198 196 244 113 201 173 162 173 190 196 200 214 230 222 207 205 199 212 217 255 134 0 55 53 28 160 255 243 34 40 47 49 49 54 60 59 52 51 75 103 73 73 78 59 55 68 81 40 17 186 223 13 133 21 0 60 96 161 191 200 199 212 246 249 248 217 202 236 170 33 92 247 255 167 200 255
185 220 206 213 185 53 0 0 0 6 255 193 161 198 193 191 235 202 178 182 177 188 190 199 208 206 222 219 209 224 243 232 219 255 156 0 64 51 37 154 255 255 83 28 48 44 52 55 57 60 61 58 54 70 65 87 78 64 52 65 54 39 15 248 255 70 163 30 0 54 103 170 196 198 202 213 237 254 250 212 200 237 97 108 255 255 206 162 202 255
120 143 129 139 168 215 217 129 0 34 255 188 161 191 185 199 231 164 156 195 179 187 204 213 206 211 224 214 203 232 255 237 220 255 119 4 69 49 47 149 255 255 143 22 45 44 56 55 56 54 59 59 60 64 68 64 58 56 60 60 53 25 52 255 255 93 130 20 0 35 88 160 187 190 207 211 207 243 255 226 218 166 121 255 255 137 110 188 207 255
173 198 148 159 186 205 240 232 0 33 245 180 161 169 173 196 226 147 146 215 185 186 201 212 206 225 230 216 210 228 236 221 217 255 93 6 63 52 37 129 249 255 209 27 41 46 55 52 55 56 58 57 66 67 70 59 61 70 62 51 54 2 122 255 252 52 77 1 0 35 64 149 170 171 191 204 199 237 252 252 203 131 255 255 129 101 186 197 204 255
143 244 203 135 165 198 234 122 0 17 245 172 181 180 180 182 196 160 136 204 201 189 202 209 216 231 227 214 207 220 218 223 219 255 146 0 59 54 40 98 228 255 241 51 44 41 48 61 58 55 58 59 67 65 73 72 66 59 55 58 34 20 222 255 133 30 59 0 0 45 54 123 160 166 181 209 205 252 255 255 143 198 255 143 18 158 187 190 207 255
110 149 255 214 159 208 180 4 0 0 177 181 178 175 171 173 178 171 150 188 203 186 196 204 212 217 221 215 207 215 223 225 220 255 202 2 53 56 45 76 111 124 140 65 57 43 20 17 7 4 19 49 68 62 66 62 59 53 57 45 38 180 255 126 30 53 46 0 0 39 57 87 118 168 181 187 184 232 213 129 160 255 255 105 77 85 123 187 201 255
91 120 144 154 112 120 10 0 0 7 218 205 183 184 174 173 112 147 183 169 186 182 191 205 211 206 217 220 213 217 226 227 222 252 215 0 54 57 52 63 76 75 97 84 58 44 44 75 118 181 113 13 51 60 58 58 63 66 59 32 114 255 242 69 38 59 0 0 0 19 47 45 48 48 0 84 125 0 56 162 214 255 252 255 255 227 144 141 188 255
28 74 14 0 0 0 0 0 0 45 191 114 142 158 52 0 0 113 214 172 186 183 186 204 210 209 216 222 225 228 223 225 222 255 202 0 54 55 52 50 58 65 79 85 55 102 209 216 251 255 255 92 1 61 59 60 58 60 46 59 214 242 118 42 52 30 40 52 0 0 8 24 15 0 60 255 228 138 217 255 243 249 244 244 235 255 255 174 147 255
0 0 0 0 0 0 0 86 107 34 0 0 78 62 0 0 0 168 211 176 192 186 189 199 198 205 213 224 233 228 222 224 222 255 180 0 47 53 55 52 53 52 64 70 64 61 90 89 135 245 255 192 0 61 67 63 62 60 60 98 197 189 68 43 39 39 255 86 0 0 0 0 0 0 255 255 217 242 210 191 232 242 236 225 232 246 255 250 127 255
91 53 0 0 0 33 170 117 7 0 0 70 89 20 5 4 0 204 209 171 186 182 192 200 202 204 215 220 226 224 223 229 223 255 153 0 51 49 46 54 60 53 68 83 69 63 48 40 117 215 255 255 20 35 64 60 59 65 79 121 115 102 66 48 40 62 255 29 0 0 2 0 0 104 255 210 226 239 239 218 232 238 240 236 239 243 246 255 127 239
199 233 183 82 43 206 102 0 0 0 41 112 42 2 9 0 0 219 208 174 182 182 191 202 197 200 219 224 225 226 225 230 230 255 122 0 47 45 50 57 55 48 55 66 70 73 66 30 157 188 252 255 113 0 57 57 57 61 60 68 60 46 51 79 62 0 233 109 0 0 0 0 0 146 242 206 225 238 240 237 237 242 244 247 244 243 250 255 106 221
174 210 182 108 158 82 12 7 14 7 59 50 3 1 17 0 6 235 206 193 173 181 183 196 199 204 222 223 228 226 225 230 232 255 96 0 46 45 48 51 53 54 65 69 78 64 40 0 131 165 236 255 216 0 48 56 48 43 32 17 16 39 67 96 17 0 0 119 4 0 0 0 0 154 228 202 223 233 231 231 236 242 245 245 247 243 255 255 65 203
179 232 121 105 113 24 15 9 8 29 49 11 13 17 16 0 54 249 199 205 181 171 170 184 192 207 219 227 228 226 221 226 229 255 85 0 41 40 48 58 58 58 66 70 43 40 83 106 162 158 207 245 255 14 11 38 57 97 101 86 100 53 3 0 0 84 212 223 188 110 24 0 0 144 222 192 216 229 223 227 233 240 244 245 244 242 255 255 29 211
202 159 73 135 67 24 18 15 17 28 21 10 16 16 16 0 82 255 206 198 197 192 181 184 190 207 217 225 226 220 227 224 228 255 71 0 39 42 42 66 61 53 56 14 18 133 195 240 207 169 198 244 255 130 0 58 144 170 115 182 241 235 177 0 0 230 239 223 242 246 217 53 0 114 223 186 200 220 224 224 227 234 240 248 244 243 255 217 0 142
161 79 125 87 10 0 13 18 12 19 17 15 11 11 10 0 119 242 205 195 195 196 189 187 196 207 218 225 226 228 227 225 232 255 40 0 37 30 23 11 0 3 0 0 143 183 192 225 209 151 171 241 248 245 38 102 171 87 78 183 194 203 255 248 118 158 208 212 209 209 224 190 0 66 222 176 192 206 214 218 223 226 233 245 248 247 255 87 0 84
78 120 95 25 0 7 11 10 12 17 19 13 14 14 6 0 180 233 202 191 195 190 188 194 206 211 222 226 224 223 224 230 239 255 0 0 0 0 0 2 26 36 37 157 209 230 201 208 209 168 155 225 235 255 60 75 122 70 131 170 192 202 204 232 248 176 185 218 215 210 215 232 57 0 206 201 190 195 202 212 218 222 230 244 247 249 249 72 223 185
101 141 50 11 11 9 7 10 15 20 15 10 15 12 0 0 223 229 203 192 195 189 192 201 210 214 224 226 228 221 227 230 250 239 0 0 0 41 129 167 175 141 69 164 225 169 187 251 235 167 160 196 232 255 142 66 146 41 147 170 177 203 222 244 247 237 210 211 220 236 236 229 151 0 95 169 178 179 185 193 203 212 229 244 229 205 230 251 135 13
117 105 25 20 14 12 10 15 14 12 13 5 8 12 0 25 246 214 197 192 196 194 193 202 209 220 226 227 229 224 232 233 255 195 0 0 128 215 219 208 211 213 146 61 133 0 120 246 220 161 172 178 236 250 222 178 215 94 116 170 193 240 248 214 190 191 192 201 232 255 255 247 219 0 3 127 165 171 172 181 164 155 163 125 134 213 199 28 0 49
87 69 28 19 13 16 16 16 19 17 15 20 19 21 0 49 244 213 200 198 195 196 200 208 211 225 223 229 228 223 231 236 255 105 0 127 233 203 214 200 203 202 218 187 20 0 69 1 116 198 195 176 228 241 255 218 40 212 151 145 222 187 84 34 66 162 177 173 181 227 255 255 252 40 0 97 144 138 126 127 98 91 57 30 105 98 40 10 39 60
52 34 19 21 19 14 16 17 16 18 17 20 17 19 0 56 239 211 198 197 196 198 204 207 209 222 221 227 228 223 230 252 255 0 0 221 200 197 211 209 212 207 231 255 65 42 0 0 199 201 190 193 223 245 250 248 122 200 155 124 229 32 0 43 125 182 203 208 199 176 225 255 255 96 0 40 100 84 82 67 49 45 38 62 40 0 24 44 42 60
32 35 26 27 27 14 12 12 16 20 20 14 12 13 0 64 236 206 197 196 194 200 208 207 215 224 223 227 226 225 227 255 179 0 142 214 193 206 208 211 218 224 229 193 244 230 0 49 238 204 203 193 220 244 238 255 232 123 192 189 105 0 62 113 179 195 210 219 219 209 190 228 255 127 0 8 61 58 57 35 12 18 43 33 25 40 47 47 48 60
31 45 39 28 27 22 10 7 13 24 23 12 13 19 0 75 238 202 200 194 193 199 212 212 219 227 226 227 226 224 234 255 39 0 214 205 197 186 169 173 189 206 193 0 108 255 225 40 151 231 204 202 211 241 238 240 233 163 229 253 137 56 145 154 164 180 200 207 212 222 209 200 245 102 0 1 37 46 43 18 11 33 34 31 42 45 45 43 50 66
28 32 30 35 27 26 24 14 19 35 24 10 16 23 0 87 240 206 198 196 197 204 210 214 221 228 226 227 226 224 250 255 0 7 236 202 197 190 180 184 198 210 255 255 2 0 187 202 208 203 153 234 236 230 255 171 123 229 255 135 0 155 159 127 162 197 213 212 215 217 220 217 242 43 0 0 15 32 19 0 25 30 35 46 42 40 38 39 41 63
26 33 20 34 30 33 32 18 18 35 18 18 19 12 0 115 234 207 192 196 196 198 209 219 222 224 222 229 228 227 255 203 0 132 235 206 207 202 201 199 186 165 156 183 198 115 146 149 112 210 218 202 206 236 255 165 205 195 106 80 0 99 114 117 174 197 208 216 223 228 221 225 247 0 0 0 0 0 0 32 40 31 35 44 43 39 40 40 33 84
26 33 29 27 30 31 32 18 13 23 20 15 14 2 0 147 230 207 194 198 196 201 212 221 223 222 224 227 227 229 255 87 0 215 225 201 193 185 192 197 183 159 148 148 192 227 221 197 192 195 200 200 73 0 74 135 147 163 197 230 233 217 218 215 206 203 201 216 223 239 230 218 255 17 0 2 0 0 25 55 35 36 38 45 43 44 44 33 11 142
31 22 18 18 21 28 25 16 16 19 22 15 8 0 0 166 229 205 196 197 197 207 214 222 225 221 229 226 226 234 226 0 0 226 229 187 169 179 191 192 190 190 193 199 191 197 197 195 205 205 198 223 255 86 48 150 150 188 213 217 210 213 209 210 205 199 196 208 222 234 233 215 255 57 0 0 0 5 63 34 36 41 40 42 55 52 44 13 65 255
32 19 18 19 19 27 23 21 17 16 20 13 8 0 0 178 226 202 193 195 200 206 213 222 225 220 226 226 228 230 165 0 63 226 211 170 171 182 187 178 164 167 176 178 182 194 196 211 208 200 205 210 227 218 104 160 170 183 195 208 212 213 211 204 216 220 216 202 217 235 230 222 255 84 0 0 0 40 34 27 37 39 41 41 48 56 35 29 204 255
31 24 23 18 10 19 26 19 18 15 17 11 7 0 8 202 216 199 193 193 201 209 215 222 222 218 226 226 221 214 100 0 111 206 174 162 175 175 172 170 166 176 184 184 198 190 190 206 198 192 211 252 246 235 110 127 173 186 187 206 212 206 235 255 253 255 254 216 210 230 225 220 255 94 0 0 26 41 23 29 36 44 44 40 45 44 31 95 251 255
30 27 23 22 11 0 23 27 20 0 0 0 0 0 41 215 212 202 195 196 202 208 217 225 221 218 221 223 212 185 37 0 132 178 154 169 178 169 173 166 172 179 176 184 199 194 199 194 195 197 220 255 255 255 137 130 175 165 176 198 209 204 222 255 255 252 242 208 205 225 217 211 255 97 0 4 40 27 24 28 35 50 47 43 49 33 53 202 255 255
34 28 24 32 26 0 0 1 0 0 43 77 138 6 63 208 205 198 197 201 205 206 215 220 219 220 216 211 196 159 12 0 141 166 160 173 169 178 172 167 173 166 174 183 194 189 195 191 192 221 234 248 249 255 153 110 159 155 172 185 200 208 220 236 241 228 206 200 203 215 219 210 255 88 0 18 30 27 37 37 35 49 54 47 49 31 54 231 255 243
34 25 18 30 32 0 0 20 99 68 11 95 43 0 115 206 203 197 195 200 206 207 216 216 213 214 215 201 187 143 0 0 136 164 175 180 176 177 167 164 167 166 180 187 187 177 185 202 210 225 223 214 226 255 200 105 142 145 154 175 192 185 193 200 211 209 201 206 203 207 212 206 255 63 0 19 15 22 36 45 39 45 51 45 51 32 115 247 239 71
27 30 21 23 9 0 103 54 17 120 51 119 26 0 156 202 202 199 194 198 207 209 216 214 206 210 211 191 180 138 0 0 125 157 165 184 181 180 176 168 166 163 177 182 176 164 191 198 199 198 200 197 207 224 202 113 126 142 152 171 185 188 182 184 196 207 203 203 201 206 204 204 255 32 0 12 14 25 34 38 39 52 50 49 46 52 182 251 132 21
21 31 27 24 0 64 102 0 137 119 28 111 11 0 186 203 204 199 196 203 208 212 213 214 207 210 204 183 182 137 0 0 120 156 148 154 158 177 179 173 168 163 167 173 164 155 189 191 194 196 196 199 202 204 182 126 128 157 161 166 180 180 182 191 200 202 199 201 193 198 200 210 255 7 0 16 19 31 34 37 47 56 48 47 38 83 197 173 45 42
13 17 9 0 42 113 0 76 70 132 80 28 0 2 187 206 207 196 191 206 209 210 216 212 197 208 196 173 172 129 0 0 98 146 139 127 113 143 159 159 159 158 161 164 157 154 173 186 187 190 184 180 185 188 162 132 124 150 148 151 171 169 175 182 193 195 196 198 186 195 202 218 236 0 0 15 20 28 30 38 47 46 48 51 37 97 194 154 45 47
32 31 11 3 79 33 0 180 52 138 199 101 0 1 200 199 208 197 195 207 209 210 215 209 198 206 192 169 175 130 0 0 65 142 140 115 93 100 133 137 127 138 146 140 149 157 160 176 184 194 183 180 186 181 164 145 136 160 150 158 167 167 173 181 188 182 192 197 182 194 198 223 195 0 0 12 23 29 34 39 46 48 45 53 44 77 179 122 30 51
32 34 23 18 12 13 0 124 47 78 155 150 42 5 214 199 202 189 195 209 208 212 216 201 204 211 191 174 188 136 0 0 33 138 153 123 91 76 112 113 108 113 128 135 140 150 155 170 188 185 173 175 187 172 157 151 152 164 148 156 163 164 173 173 184 182 189 195 187 196 196 235 162 0 0 21 30 27 33 36 43 43 43 50 48 76 124 45 25 53
10 21 22 19 3 38 16 26 45 130 173 186 77 77 198 196 206 190 196 210 209 212 213 197 197 202 192 173 194 126 0 0 7 106 151 139 116 83 121 119 98 98 125 136 128 139 150 162 179 187 180 180 177 158 134 141 155 164 156 164 158 154 175 175 182 181 186 193 189 191 190 237 138 0 0 12 30 34 38 42 41 38 41 50 50 55 64 47 33 37
1 12 14 13 0 5 14 5 41 79 101 65 0 131 197 193 206 197 201 209 210 218 212 193 195 200 192 176 199 102 0 0 0 65 120 149 138 106 129 140 92 94 136 158 133 127 138 155 175 182 184 186 179 149 117 128 150 165 158 165 162 157 171 180 179 173 175 190 182 187 188 254 109 0 0 7 35 37 31 44 47 45 36 42 49 48 53 59 44 33
4 5 0 0 0 7 16 21 20 38 62 18 0 101 215 193 205 196 200 208 212 217 212 194 194 196 189 182 207 74 0 0 0 29 75 119 156 131 119 138 91 90 144 162 140 119 122 135 170 175 176 180 180 145 99 121 135 161 163 166 164 161 171 165 168 179 173 182 187 194 197 255 76 0 0 5 37 36 32 36 43 45 42 45 49 40 46 53 36 32
0 0 0 0 4 17 23 9 65 89 0 2 0 152 209 190 207 195 201 209 210 214 216 194 195 203 191 187 213 42 0 0 0 1 70 72 129 161 124 144 126 92 138 156 147 121 109 132 162 180 177 180 173 131 87 115 121 133 145 153 154 156 167 162 172 178 176 184 187 197 205 255 66 0 0 0 23 35 35 32 34 38 43 44 47 43 46 41 34 30
24 22 2 0 0 0 3 0 64 43 38 111 0 186 194 190 209 199 207 211 212 214 211 191 197 207 195 192 206 15 0 0 0 0 53 69 84 150 117 115 145 92 112 161 155 149 122 114 135 161 171 170 162 104 74 105 104 128 124 118 146 156 163 174 178 181 178 192 193 196 202 255 73 0 6 5 0 37 44 37 38 39 41 42 44 44 45 41 30 24
39 71 68 30 0 0 0 1 0 0 20 48 0 210 187 190 204 197 206 210 213 213 203 195 205 212 199 206 194 0 0 0 0 0 21 68 77 121 118 91 129 118 84 138 156 158 136 107 124 147 157 171 182 124 86 103 118 150 147 123 134 140 154 160 177 187 181 194 194 196 197 255 91 0 0 11 0 2 42 55 48 39 38 37 42 38 31 24 21 25
37 73 123 105 52 24 0 0 1 0 0 0 3 240 178 189 194 200 209 211 213 215 204 200 216 209 199 220 166 0 0 2 2 0 1 58 89 126 141 90 119 140 88 97 145 160 145 124 108 146 160 175 187 151 111 95 116 158 154 158 159 142 145 158 167 173 183 194 191 196 196 254 82 0 6 48 8 0 0 27 55 54 48 37 31 23 17 24 30 29
38 43 78 93 59 63 43 0 0 0 4 0 40 255 174 192 192 198 209 211 213 224 216 211 218 211 197 235 118 0 0 0 2 0 0 35 76 114 123 114 121 143 94 66 120 152 142 120 104 129 160 177 186 152 101 113 115 145 148 169 174 169 165 169 173 176 185 186 198 197 197 255 67 0 12 97 69 0 0 0 0 0 11 14 25 20 19 25 28 32
127 116 69 55 40 12 18 0 0 0 0 0 85 250 171 192 199 200 207 211 213 210 194 200 215 213 209 245 48 0 0 0 2 1 0 36 67 117 125 107 119 147 98 68 111 142 148 131 102 103 144 168 164 118 75 118 124 133 139 159 164 168 172 172 182 183 183 189 209 197 202 255 38 0 0 58 142 110 0 0 0 0 24 23 29 27 26 19 20 42
97 89 75 75 75 61 53 56 56 53 57 0 149 237 167 193 197 204 204 208 214 214 202 205 216 211 226 218 0 0 2 2 3 1 0 42 66 97 122 100 131 133 81 68 90 130 152 136 111 104 143 162 152 107 68 100 128 139 152 164 164 175 181 181 188 189 184 194 206 195 206 245 0 0 0 0 47 189 1 0 4 16 26 30 29 29 25 25 21 33
163 187 148 121 97 88 80 84 83 71 61 13 198 214 159 192 195 196 207 211 214 211 202 212 216 209 244 142 0 0 0 0 1 4 0 22 60 81 89 80 117 130 71 98 98 139 152 125 103 116 137 156 159 96 69 86 117 137 152 161 169 174 175 173 182 188 185 194 202 192 213 218 0 0 0 0 0 5 0 0 13 23 30 40 37 31 29 19 20 33
201 235 196 178 161 131 101 80 68 70 55 40 221 190 163 193 196 203 211 214 213 210 205 215 217 217 255 63 0 0 0 0 2 9 2 6 47 76 90 88 112 146 95 102 124 150 155 126 113 121 142 161 145 93 91 99 108 122 139 153 162 166 175 176 181 181 172 189 197 188 238 151 0 0 0 0 0 0 0 0 22 25 47 41 31 29 29 18 19 40
210 245 209 198 189 170 150 129 83 66 26 74 221 161 176 190 189 206 214 213 213 211 213 221 218 231 243 0 0 0 0 1 3 7 4 5 33 78 108 82 105 139 97 90 127 142 163 134 125 138 158 162 124 74 82 98 84 99 112 115 137 159 174 175 177 176 173 198 196 194 227 50 0 0 0 0 0 0 0 0 20 32 47 41 38 28 21 16 26 45
210 244 212 206 191 182 172 159 102 63 7 117 212 154 181 181 188 206 215 214 214 209 217 223 216 247 196 0 0 0 1 2 6 5 8 10 19 52 90 87 102 140 102 85 131 147 161 146 129 129 149 161 140 79 53 79 61 61 78 77 115 151 164 167 178 175 184 204 192 223 151 0 0 2 0 0 0 0 0 0 15 28 33 32 30 26 25 25 32 47
211 243 208 212 203 190 178 161 128 82 21 162 191 156 195 183 188 205 216 219 211 211 219 222 218 255 108 0 0 3 1 4 6 8 9 7 10 39 68 66 94 140 120 74 117 144 171 162 134 127 145 150 149 94 41 56 58 65 82 94 111 136 150 160 172 175 184 193 221 207 6 18 73 61 62 39 22 0 0 0 0 22 34 25 28 31 32 33 34 53
210 245 212 215 217 199 187 176 141 63 33 190 167 161 195 181 188 204 214 218 212 210 216 218 229 255 8 0 0 3 4 2 4 9 5 8 6 27 58 58 90 118 119 74 93 130 177 172 140 138 154 146 140 80 47 57 59 63 96 108 109 148 170 173 177 177 186 216 232 22 0 54 82 101 106 95 67 51 33 5 0 0 12 32 31 33 31 38 38 51
231 255 246 246 226 201 191 165 114 37 53 197 155 170 183 179 190 208 215 218 217 212 218 223 255 210 0 0 0 1 3 2 5 6 8 9 3 14 50 55 81 112 118 77 72 107 154 170 149 136 136 148 114 58 29 32 47 55 67 84 114 166 171 190 183 182 219 255 71 0 13 42 82 157 200 180 112 63 60 70 51 14 0 0 18 36 37 40 41 53
235 255 250 255 228 204 194 135 72 0 40 167 140 178 176 177 189 214 217 217 218 218 224 227 255 83 0 0 2 0 3 4 5 3 4 7 5 0 24 56 66 117 139 75 58 85 116 124 104 123 127 127 91 57 27 25 31 36 47 59 66 118 168 214 202 185 179 26 0 84 92 1 106 207 214 238 237 160 89 68 60 68 43 0 0 15 35 41 41 52
219 255 226 228 220 197 127 22 0 0 0 48 29 83 107 123 159 198 213 214 213 221 224 255 245 0 0 0 0 0 2 1 3 4 4 5 6 1 3 35 58 114 140 83 58 66 81 80 77 102 110 117 88 40 14 20 32 33 30 47 44 62 104 117 100 137 135 52 168 178 93 21 116 162 184 243 255 255 251 211 202 207 204 160 89 6 3 19 33 49
216 254 216 209 192 160 135 144 171 189 194 216 205 197 193 176 170 182 189 178 187 208 219 243 28 0 0 0 0 0 0 0 0 1 1 0 3 5 0 10 29 78 136 101 55 59 63 69 73 76 96 101 51 0 0 11 21 28 26 20 7 2 0 0 136 255 255 255 255 150 98 50 69 115 188 239 255 255 255 255 255 255 255 255 194 146 74 17 12 30
217 255 210 202 204 218 245 255 255 255 249 241 245 245 242 243 237 232 228 214 206 204 212 180 20 47 51 31 3 0 0 0 0 0 0 0 3 5 15 3 2 30 86 71 29 49 54 61 67 82 78 32 0 0 0 6 14 14 16 16 5 0 0 0 131 255 250 241 104 119 117 60 73 104 145 207 242 241 244 241 238 252 253 255 132 95 138 81 45 27
212 240 198 220 228 229 222 221 221 220 219 219 217 219 217 219 222 222 224 224 229 225 227 238 255 255 255 255 255 254 207 142 50 0 0 0 0 0 1 5 0 0 14 17 1 22 41 63 73 72 42 0 0 1 1 0 2 6 8 5 1 3 0 0 0 0 0 0 0 0 9 19 80 104 101 117 182 209 230 244 227 255 255 255 255 81 44 55 69 79
213 205 214 229 225 228 228 228 226 223 220 221 223 222 224 223 225 223 222 220 220 221 223 220 221 221 221 222 229 237 255 255 255 247 186 124 32 0 0 0 0 0 0 4 0 0 16 53 65 33 0 0 1 0 0 0 1 0 0 0 0 0 0 0 0 0 0 0 36 49 52 55 54 40 44 24 17 21 31 43 50 70 102 124 137 99 33 6 14 56
119 85 240 230 230 229 231 229 227 225 222 223 223 224 226 228 226 224 227 225 224 224 223 223 224 224 222 220 220 221 218 216 220 235 255 255 255 228 106 0 0 0 0 0 0 0 9 24 14 0 2 3 3 0 0 0 0 0 0 0 0 0 0 0 0 9 40 81 76 59 54 48 47 47 55 55 56 45 37 24 23 15 7 0 10 26 44 119 82 46
0 77 255 238 235 234 236 236 233 229 229 226 228 227 225 229 227 225 226 226 225 222 227 226 221 214 217 227 239 239 236 236 233 230 225 220 225 255 255 255 180 0 0 33 37 44 36 42 52 52 58 73 76 71 64 57 43 32 25 11 5 4 0 8 18 8 26 50 47 40 42 38 36 44 23 16 38 39 47 47 59 55 49 55 56 36 110 255 228 217
0 216 206 235 230 231 232 233 232 229 227 226 228 226 227 225 228 229 222 222 223 223 232 231 240 253 255 255 245 236 232 241 243 239 243 247 243 234 241 255 255 50 0 0 0 31 42 54 53 52 50 53 61 64 69 68 72 76 70 65 58 52 72 134 182 164 40 22 63 54 49 44 40 43 33 67 14 37 41 43 51 46 44 49 55 94 197 190 196 255
158 208 154 236 228 227 228 227 223 225 222 221 223 222 222 225 228 231 221 222 232 245 231 244 240 224 204 189 186 191 199 207 211 210 213 217 217 212 211 206 215 194 188 160 67 0 0 0 52 72 66 50 51 62 59 53 52 44 40 38 41 46 70 135 176 255 206 30 17 45 50 49 51 40 69 240 59 42 56 61 64 60 58 56 65 148 235 206 197 255
145 223 255 255 255 255 255 255 255 255 255 255 255 255 255 255 255 255 255 255 255 255 255 255 244 249 255 255 255 255 255 255 255 255 255 255 255 255 255 255 255 255 255 255 255 255 255 153 43 65 88 99 98 90 89 83 78 68 73 80 115 132 189 255 246 237 255 188 23 50 57 56 60 41 228 196 39 63 56 58 68 77 76 98 121 220 255 255 255 255
