P2
# Imagem Processada com High Boost Filter - 90x90
90 90
255
165 130 130 114 123 137 130 127 117 114 122 114 115 109 106 110 117 113 113 116 107 109 121 121 110 117 117 117 131 123 133 127 120 125 113 119 117 128 122 128 140 130 107 111 107 110 114 115 122 106 105 107 110 112 111 107 106 106 106 111 116 120 117 103 104 102 96 95 96 100 103 109 97 105 108 100 97 106 113 116 106 101 93 91 93 92 100 102 90 109
154 108 95 91 97 99 109 101 97 106 91 83 88 88 96 99 97 78 90 98 92 85 94 112 110 103 100 100 104 99 85 95 114 108 91 97 97 104 100 117 117 101 104 111 115 137 149 141 113 116 131 114 97 92 85 73 76 77 81 96 81 88 95 78 79 93 85 84 85 91 106 97 86 101 86 83 85 85 85 76 74 74 63 70 74 68 70 73 73 92
142 104 93 98 80 80 96 98 93 97 87 75 77 83 94 92 97 92 115 122 112 87 88 94 91 102 108 105 112 116 121 118 107 97 99 118 115 119 136 124 110 92 116 134 129 158 131 122 125 127 134 123 112 113 97 94 98 99 100 108 76 78 93 82 91 96 91 93 89 88 88 85 99 111 97 91 78 79 78 82 75 78 72 75 74 71 69 75 83 96
143 109 98 94 81 92 99 96 89 85 78 75 78 82 95 96 101 102 113 118 115 89 91 100 91 96 103 110 109 126 122 123 119 119 110 129 129 129 144 166 171 151 167 165 159 163 164 156 155 157 153 160 142 132 117 111 113 121 88 86 78 95 87 71 79 71 82 81 75 81 77 73 78 84 95 94 82 83 79 75 75 78 80 82 74 71 71 80 82 95
161 116 113 114 92 106 101 83 89 98 99 87 92 83 84 84 86 105 100 96 97 99 108 110 106 91 99 107 106 121 111 111 115 119 112 105 144 186 180 144 94 52 33 13 8 0 9 9 14 29 51 90 127 167 166 123 108 100 103 100 96 110 91 71 76 72 82 87 84 77 77 86 87 81 86 82 83 74 80 75 77 89 95 87 81 79 74 76 76 100
135 99 110 111 122 128 102 92 89 109 105 103 92 81 84 81 90 96 97 96 112 98 101 95 103 113 102 105 115 117 110 123 119 105 114 139 151 88 17 0 0 0 1 9 11 10 7 4 5 2 0 0 0 27 82 145 180 133 92 84 101 103 84 77 83 86 92 91 100 86 83 80 82 95 106 88 91 95 81 80 85 100 108 99 86 91 78 71 84 112
162 98 98 112 118 110 101 95 80 97 105 118 103 93 91 103 117 89 89 100 122 106 99 96 100 102 89 117 132 126 121 123 135 149 161 93 14 0 2 17 39 34 22 21 20 18 19 14 20 22 21 19 10 0 0 2 98 176 145 128 116 103 100 93 106 93 99 101 116 119 114 96 112 138 131 104 84 104 102 104 91 98 97 90 83 92 92 91 91 105
156 115 100 90 106 107 116 110 97 115 121 118 92 92 114 125 124 115 124 115 119 93 103 94 92 91 110 122 115 110 119 122 157 156 44 0 2 7 0 0 18 0 0 4 7 7 15 14 17 19 17 15 18 19 16 3 0 41 172 182 153 137 118 111 109 103 102 101 96 85 92 112 134 133 132 99 85 106 116 103 100 89 80 102 100 99 105 110 94 100
166 148 147 138 141 135 129 132 119 122 116 93 77 94 123 123 118 122 135 130 135 121 126 115 101 107 128 125 124 137 146 165 177 47 0 0 3 9 27 54 71 52 30 28 25 19 15 12 10 12 12 18 20 16 14 17 15 0 5 161 186 143 117 112 111 103 122 121 111 98 108 114 127 118 108 87 107 122 99 100 123 103 89 100 106 104 115 113 108 112
155 132 161 165 147 119 113 134 143 134 116 106 112 115 126 122 127 127 134 135 134 130 115 125 119 112 134 146 142 151 156 179 64 0 13 34 101 168 181 205 208 194 149 103 79 74 48 33 28 24 20 17 20 21 19 15 18 18 0 12 169 159 140 123 125 111 140 139 141 147 141 134 128 124 120 103 110 115 98 89 108 112 107 100 113 97 121 133 136 128
186 137 129 125 131 113 105 111 120 149 157 140 141 133 136 143 147 134 147 131 135 125 113 129 138 136 147 153 151 159 177 89 0 11 78 177 255 255 255 255 255 255 255 234 206 181 120 74 50 32 27 26 23 19 20 11 17 21 18 0 37 179 161 124 116 115 120 107 112 140 131 143 140 127 129 110 113 121 121 105 87 99 106 93 107 99 106 125 126 133
208 138 152 143 126 125 146 136 133 161 147 138 155 141 138 137 139 124 140 150 151 139 144 158 134 121 117 120 160 175 112 0 0 54 143 251 255 248 255 255 255 255 255 251 244 207 147 83 53 41 37 31 28 21 15 13 17 20 19 13 0 107 196 158 109 83 95 122 140 141 133 144 147 141 119 113 122 125 139 129 110 121 119 118 124 128 129 128 112 140
206 153 202 182 133 172 160 205 222 201 164 168 184 155 156 154 168 137 146 163 157 150 144 160 146 131 131 134 152 116 8 0 18 79 133 193 228 223 223 227 229 230 229 221 187 128 89 64 57 54 39 25 27 29 19 14 18 20 18 19 0 20 177 107 80 84 104 144 95 128 138 160 123 155 124 117 114 115 124 123 130 149 148 138 144 141 134 137 126 142
190 159 190 170 146 160 138 201 171 179 181 195 219 191 193 219 201 168 191 165 158 169 152 135 124 133 153 220 143 14 10 9 25 84 136 173 199 195 188 179 182 209 218 200 146 96 91 81 70 64 60 53 36 25 23 20 18 20 20 14 11 0 60 52 71 91 77 84 49 70 136 108 100 147 105 133 121 126 133 119 129 147 146 142 146 136 145 142 131 136
155 102 113 112 104 93 86 166 170 160 231 218 161 126 114 207 239 241 226 152 157 198 165 142 175 195 215 234 43 1 15 7 56 113 157 201 224 219 206 193 193 234 255 255 241 196 176 164 144 117 87 75 45 24 24 17 17 18 17 16 15 4 33 63 51 70 58 51 53 70 101 65 98 90 70 178 149 149 158 151 148 143 134 128 150 156 160 144 117 122
161 71 44 64 105 96 84 78 133 142 161 143 110 100 86 92 201 165 203 243 240 219 224 219 240 246 255 172 0 13 17 5 50 128 181 194 184 203 228 228 251 238 179 129 128 152 153 155 139 112 81 67 46 31 29 17 18 18 18 15 16 14 25 55 28 51 67 72 68 63 46 65 97 72 64 129 150 145 149 144 142 143 140 131 148 130 129 91 85 101
100 70 64 61 71 91 94 69 81 103 78 81 98 74 66 72 42 20 54 117 215 197 196 210 203 212 229 81 0 22 20 8 48 116 95 47 24 58 184 215 186 59 0 0 2 43 44 37 35 30 21 27 35 31 31 16 16 18 18 20 18 15 21 41 29 41 48 55 66 59 57 61 83 54 67 43 114 161 145 139 139 148 149 159 152 115 103 74 88 83
84 74 66 67 106 91 68 80 95 83 62 64 55 45 47 47 47 71 62 0 79 191 209 197 143 147 149 62 2 25 22 9 10 0 16 36 12 0 57 186 91 0 0 32 70 36 16 3 0 0 3 33 35 30 30 21 14 17 18 20 20 16 12 38 36 34 34 28 50 51 52 71 40 21 61 57 92 176 147 120 130 131 136 120 107 106 90 100 97 80
88 75 76 76 89 76 85 92 73 70 62 69 74 48 50 56 48 69 78 52 175 202 170 79 94 122 166 111 6 19 21 2 55 42 60 78 3 10 45 188 83 0 26 96 132 25 0 0 27 97 132 89 49 31 27 17 18 19 14 18 20 16 12 38 39 35 37 34 31 33 28 49 43 32 39 41 73 167 151 121 114 117 117 95 80 97 93 88 70 85
103 80 80 91 89 77 87 95 75 74 78 78 79 30 53 58 43 62 56 59 114 116 52 37 39 43 142 64 7 21 17 0 119 212 151 101 67 120 136 201 69 11 66 128 109 119 118 140 164 172 158 86 40 22 22 17 17 20 17 15 17 21 10 28 27 25 31 36 39 50 46 39 36 40 46 48 58 126 170 118 111 99 98 98 90 93 89 80 68 92
108 46 69 82 76 76 79 71 64 59 70 53 42 44 53 55 31 34 43 33 34 43 47 70 57 36 60 13 25 19 17 0 96 205 239 243 250 237 218 217 57 37 123 240 255 255 255 255 194 115 72 59 34 24 24 17 19 20 17 12 15 21 8 28 57 38 29 28 35 37 29 30 29 13 11 14 23 58 126 119 99 85 86 100 118 104 86 85 87 100
83 25 70 80 72 74 79 75 49 42 65 60 48 51 61 48 40 39 44 45 42 20 31 64 48 48 33 16 24 21 23 2 35 155 212 221 226 167 202 228 70 48 97 184 193 210 219 191 137 75 56 52 34 28 26 19 19 20 19 15 17 19 9 40 100 83 81 112 108 113 90 92 100 97 95 90 91 78 69 95 105 94 99 94 94 103 96 91 103 111
48 19 46 82 66 52 50 68 49 51 73 73 66 50 53 40 39 46 45 46 43 42 40 48 42 38 14 17 19 20 21 8 17 121 185 212 158 62 232 255 90 63 58 190 172 171 174 141 98 57 48 36 27 30 26 18 15 18 17 19 19 19 13 12 25 22 28 46 58 61 47 47 52 63 75 86 97 102 120 141 135 108 83 61 56 46 58 112 134 88
49 32 32 72 78 62 53 58 51 53 58 61 62 58 66 57 48 59 55 46 43 44 44 52 46 42 22 20 18 20 20 8 7 58 119 145 149 75 101 104 23 17 0 177 220 154 136 82 57 47 36 31 31 34 32 20 16 15 17 13 18 20 15 13 28 27 31 29 25 20 23 28 26 19 22 22 30 52 57 52 47 50 46 51 44 39 31 36 33 49
43 34 25 33 82 70 62 57 63 60 53 51 50 56 70 60 47 53 51 47 58 49 48 55 47 43 23 20 20 18 19 15 9 49 71 76 188 255 182 0 0 29 47 107 109 71 68 60 55 49 38 33 33 34 28 21 16 15 15 17 21 20 17 10 28 41 41 44 42 40 34 34 31 32 42 42 46 47 32 30 37 47 53 59 47 62 77 61 57 71
45 36 31 29 76 71 63 60 56 50 51 53 53 52 61 57 51 51 53 58 65 48 46 54 43 45 29 16 20 21 26 19 7 33 88 79 26 56 140 92 56 56 55 23 29 70 88 85 64 56 48 38 33 30 24 18 18 20 16 17 15 15 19 16 24 41 36 47 33 38 39 46 31 31 32 28 39 59 58 58 59 66 74 74 65 57 60 41 34 49
51 33 30 50 79 70 61 60 55 56 63 61 60 57 47 42 47 51 53 47 44 49 47 40 37 47 35 17 19 23 24 15 13 6 61 129 137 175 113 72 60 43 41 66 98 106 99 79 60 50 47 37 29 25 21 14 17 21 19 19 15 15 19 17 15 39 41 44 40 47 47 43 45 47 54 55 55 72 82 80 79 71 57 50 40 26 30 44 41 50
47 27 41 52 60 68 64 61 55 56 57 51 57 47 42 47 47 40 41 37 32 37 41 45 44 54 33 19 21 19 18 19 18 9 3 36 109 191 141 51 30 35 60 83 86 86 75 53 45 38 45 32 29 27 22 18 19 22 21 18 15 17 16 20 12 42 51 35 46 59 54 54 44 45 47 50 41 43 42 29 30 26 17 18 27 30 57 69 47 55
46 33 34 32 27 50 63 63 57 52 53 48 52 45 49 44 47 50 61 64 60 59 65 61 60 74 44 14 26 19 18 20 19 18 6 0 10 85 244 255 255 169 110 94 83 72 49 31 37 38 36 31 26 22 23 18 21 23 17 16 18 20 16 17 11 35 64 53 50 59 64 60 49 45 45 43 50 54 50 41 46 46 49 56 59 56 66 77 66 61
41 35 23 23 26 18 38 70 56 49 49 48 55 45 42 50 47 47 54 48 54 50 56 61 55 62 59 14 20 21 22 20 22 17 19 14 0 0 64 151 159 106 78 64 50 42 39 38 35 32 29 24 25 29 24 17 17 17 20 16 17 21 19 16 10 35 62 65 59 60 70 61 61 54 61 59 51 61 56 63 72 62 60 60 49 38 64 63 50 48
40 30 32 34 33 20 22 56 64 56 60 53 50 39 36 45 40 40 50 49 50 48 55 66 74 77 88 21 11 22 20 16 22 22 18 17 17 6 0 0 5 14 28 28 26 31 34 35 29 23 23 30 37 32 26 17 17 18 20 18 21 22 23 18 11 30 44 40 32 29 35 38 38 36 45 44 32 45 31 49 50 44 33 31 45 47 68 80 64 57
35 23 33 33 27 32 25 31 59 64 62 61 57 53 53 56 59 60 68 65 67 72 74 73 76 77 93 46 3 19 19 18 20 19 21 18 16 17 11 6 19 26 19 17 23 23 25 26 31 25 23 32 37 37 33 20 17 18 18 15 21 22 19 16 13 23 37 39 39 36 40 37 38 35 32 30 24 30 30 24 18 22 17 18 28 41 37 32 41 78
29 23 20 20 20 25 21 10 37 62 55 55 57 61 61 64 60 64 67 75 79 81 83 86 77 72 80 84 27 10 21 22 18 17 19 17 16 15 13 12 32 77 46 28 33 29 31 33 36 36 35 39 41 32 26 16 19 19 17 18 19 21 17 18 14 28 37 41 34 33 40 36 31 31 28 28 32 39 38 26 22 27 28 28 28 36 40 40 41 82
61 57 55 49 31 26 36 50 60 53 59 71 81 75 72 77 81 83 83 79 72 74 83 87 74 75 76 88 60 8 20 22 20 22 19 14 15 16 16 12 9 73 84 59 53 46 34 33 33 39 51 56 56 40 19 15 20 22 20 17 15 15 17 20 15 22 45 61 65 78 97 96 79 78 75 69 87 97 70 60 61 71 79 94 94 76 54 49 60 96
85 68 68 69 69 67 72 68 65 73 75 53 47 61 74 61 40 50 80 97 81 79 79 92 85 93 69 62 61 11 21 21 21 20 21 18 20 20 16 12 0 41 86 74 71 65 49 40 45 52 65 71 70 59 37 17 19 24 20 20 20 22 24 17 16 13 20 27 20 17 20 25 28 54 83 87 74 77 72 86 79 71 63 65 48 32 49 50 35 49
83 68 67 69 73 75 73 73 85 87 59 47 42 35 30 31 31 26 26 49 38 57 41 44 57 35 35 37 31 17 22 20 21 18 19 19 15 14 11 17 25 28 53 76 76 75 65 61 62 67 70 73 77 68 51 23 14 21 21 21 22 22 25 17 18 16 13 20 16 13 16 16 10 20 27 12 0 0 16 60 91 62 64 58 34 37 57 46 36 47
89 76 70 72 73 67 75 76 54 52 59 59 51 34 36 34 52 59 30 25 25 35 38 27 36 25 25 41 31 21 26 22 21 18 15 12 12 30 38 56 104 92 69 94 78 68 78 70 81 94 98 100 109 107 85 34 18 19 19 22 27 21 23 16 18 19 13 19 25 32 27 23 27 29 17 14 15 21 32 66 106 87 47 28 39 43 69 62 39 41
55 58 74 80 61 51 51 36 43 63 54 46 38 29 47 45 43 44 39 36 44 35 33 40 48 38 30 28 20 19 24 24 23 15 10 31 59 67 79 100 133 151 127 136 117 96 106 127 141 139 132 126 130 126 85 34 20 20 16 23 30 25 23 16 20 16 16 15 20 41 45 56 61 96 117 136 128 120 93 78 81 40 32 48 37 45 42 32 37 48
63 42 49 50 41 43 45 37 51 44 47 46 51 46 61 60 60 41 35 34 55 42 30 35 47 35 29 24 19 22 24 20 16 9 39 88 114 132 156 158 159 163 165 155 138 141 147 157 171 166 151 133 110 89 70 28 20 23 18 29 31 22 20 17 23 20 17 20 17 10 16 22 13 13 96 184 108 78 31 21 29 28 38 44 41 37 38 39 56 63
69 52 46 43 33 40 58 58 41 42 51 35 61 55 66 51 50 43 35 36 52 46 32 36 44 40 32 25 21 24 20 19 23 12 80 158 151 148 165 172 174 176 181 179 163 151 156 166 175 170 161 148 119 90 87 51 25 29 17 24 20 16 17 19 21 18 12 16 18 12 15 25 30 17 33 90 89 116 108 97 85 85 77 70 62 75 86 78 63 62
66 58 52 55 59 38 45 64 46 58 50 36 66 54 53 45 45 45 35 35 43 44 35 47 49 39 24 24 21 21 22 22 25 41 121 173 165 170 181 180 178 173 173 179 168 157 160 171 176 163 156 149 131 92 67 37 16 26 17 23 20 16 18 18 15 15 17 19 19 20 16 20 28 33 40 28 47 36 67 39 80 51 5 42 49 42 45 46 21 46
65 55 47 53 57 44 35 65 95 87 90 67 64 51 54 55 37 46 44 42 48 52 50 56 34 19 21 23 20 20 32 27 12 53 152 173 177 185 186 182 179 171 171 176 171 160 167 171 160 148 140 130 122 92 63 19 24 29 20 22 20 12 13 17 16 20 22 24 17 17 19 10 8 11 18 23 54 64 104 110 140 139 116 134 120 123 119 115 119 99
60 41 41 50 43 36 34 36 42 44 92 104 102 72 66 65 47 43 35 41 53 53 35 24 18 21 25 20 13 19 37 35 31 130 181 166 173 181 182 179 176 167 169 176 174 169 169 167 160 155 143 132 124 93 66 22 28 23 19 15 15 26 27 26 21 27 27 35 31 23 22 17 13 13 11 10 5 10 11 21 36 87 102 90 68 125 118 137 129 79
68 46 42 48 36 40 44 35 34 22 22 31 71 86 82 73 63 46 40 53 53 29 17 24 25 24 25 18 17 41 92 90 129 182 174 175 174 178 182 180 170 170 179 181 174 167 165 161 165 164 153 139 119 94 50 21 20 19 15 17 27 34 44 59 75 61 54 53 39 29 26 18 14 16 17 17 12 11 16 12 9 4 7 23 15 20 16 30 21 37
59 42 38 48 48 47 45 39 29 35 35 21 17 53 47 45 62 82 82 59 24 13 18 18 23 20 16 20 21 64 158 168 178 188 181 179 169 168 163 151 153 174 180 183 182 177 172 170 173 172 164 136 98 69 44 26 26 23 23 38 55 63 68 55 39 21 14 13 8 9 11 10 11 12 17 19 16 12 13 19 28 27 17 19 14 24 63 117 112 121
55 35 38 38 34 34 37 32 28 33 20 19 22 12 10 15 31 89 83 21 8 20 22 22 23 13 14 27 14 16 116 207 209 196 192 174 156 125 124 138 166 188 185 187 188 186 181 181 178 171 159 167 135 77 44 26 25 33 44 45 32 19 3 0 1 9 11 12 13 12 10 12 12 11 15 14 13 13 13 8 17 21 15 20 23 17 10 15 61 134
55 42 39 34 36 39 38 44 52 57 48 56 59 65 82 85 73 48 19 6 15 19 20 23 18 13 24 30 25 9 6 51 112 177 206 207 127 89 161 194 187 185 187 187 188 184 185 173 167 183 199 143 57 27 24 20 23 19 11 2 4 9 12 13 13 12 11 12 12 12 12 14 12 10 12 10 10 12 14 8 20 22 22 20 17 17 20 18 7 19
54 42 39 39 37 39 48 48 40 36 44 39 41 40 37 34 12 5 9 18 17 18 22 18 12 15 24 29 45 35 21 6 0 6 33 52 26 77 165 222 228 224 222 227 227 223 218 193 197 177 97 10 0 15 17 12 13 12 14 14 13 11 5 7 10 13 13 12 10 14 12 12 12 10 12 12 11 8 14 10 16 18 28 30 29 30 24 26 27 31
54 34 25 39 34 56 51 24 14 17 31 14 15 13 18 17 9 15 17 23 15 17 15 13 16 23 36 40 42 41 40 38 42 24 4 0 3 2 4 18 41 52 71 103 126 143 148 124 79 14 0 9 17 21 19 12 15 15 12 10 9 10 8 12 15 14 14 15 11 14 12 12 12 10 12 12 13 11 12 13 16 18 21 31 26 30 26 26 28 38
35 39 37 38 39 40 49 48 38 43 54 62 58 54 43 8 14 18 19 19 18 16 12 16 21 36 42 35 33 37 29 43 49 36 27 39 33 28 23 13 8 0 0 0 0 0 0 0 0 6 17 18 22 22 14 8 8 10 10 8 12 12 21 19 12 14 17 16 10 11 10 10 10 12 14 11 11 10 10 11 17 19 13 15 14 16 18 19 29 43
31 26 38 37 37 42 46 50 48 53 57 61 64 78 45 11 16 18 16 12 14 12 14 19 26 37 31 27 42 32 25 35 30 31 36 40 45 46 38 37 42 34 32 37 33 22 19 17 21 24 19 16 17 10 6 11 12 12 12 13 14 16 23 16 10 13 16 13 13 13 14 10 13 11 10 14 20 13 11 12 16 21 17 21 26 19 17 17 18 28
38 23 22 29 26 25 26 30 23 23 20 19 18 23 15 11 14 12 13 15 19 14 17 19 21 28 28 31 33 25 29 25 20 23 32 31 37 35 31 30 40 29 31 29 17 18 19 23 23 20 16 10 11 10 9 12 13 13 12 16 15 22 19 16 12 11 21 26 25 24 19 18 17 15 17 21 18 14 11 6 9 13 12 14 35 33 26 28 28 24
39 22 23 24 19 22 22 23 21 23 23 21 26 31 20 13 18 17 15 13 16 17 17 17 23 27 25 26 24 23 28 23 21 17 31 30 37 37 28 25 28 25 21 17 18 19 19 18 17 15 13 10 15 13 11 14 15 15 16 16 15 15 14 17 18 21 25 22 21 20 18 19 18 17 19 15 8 9 12 4 6 9 10 8 25 40 39 48 25 18
37 19 25 36 28 27 27 22 24 26 28 27 24 14 20 19 16 16 16 12 14 19 16 20 22 19 20 27 23 21 22 18 11 14 24 18 20 22 20 23 22 18 13 20 17 17 18 18 13 11 12 10 11 7 7 11 10 13 15 11 13 10 13 21 21 21 22 20 19 20 23 23 24 22 15 5 7 5 13 12 12 10 9 11 12 21 18 28 21 26
30 20 55 60 56 51 45 40 45 52 53 47 28 12 16 12 14 22 19 20 17 19 17 17 18 17 22 21 18 23 20 17 18 19 21 18 19 19 18 20 17 13 15 16 21 22 17 15 12 9 10 10 13 9 12 9 11 16 12 7 9 11 19 16 19 21 23 23 23 18 20 19 14 11 11 5 9 9 4 14 13 9 10 13 8 19 27 32 25 21
30 55 69 63 62 60 60 61 53 63 63 55 28 10 13 13 14 17 15 20 16 17 17 15 13 16 21 22 18 22 21 18 22 21 19 16 15 15 18 16 16 17 17 22 18 17 16 15 14 13 14 14 12 12 11 9 11 13 11 7 11 12 16 18 19 22 20 21 21 12 6 4 2 6 13 8 2 7 2 9 13 11 8 10 8 16 34 34 40 35
63 67 67 66 61 64 58 62 68 69 60 53 16 11 13 14 19 19 12 13 12 15 19 19 13 13 20 21 19 22 16 12 20 19 18 17 11 17 17 17 21 19 19 15 15 20 15 14 14 13 15 11 14 16 13 13 11 9 10 9 13 17 16 19 21 22 21 18 12 9 5 7 7 8 10 8 10 11 5 4 16 12 9 7 10 10 31 46 48 55
58 36 35 35 34 35 33 37 37 32 26 13 12 18 14 18 25 21 12 11 14 17 21 20 19 17 15 15 19 15 11 17 21 18 17 20 20 19 17 16 20 17 15 13 18 17 12 11 13 15 13 12 13 7 11 13 11 8 10 8 12 23 19 13 14 13 13 10 10 9 11 6 4 6 10 4 9 11 10 3 14 11 6 8 7 7 15 26 23 30
31 17 22 22 22 22 22 20 14 15 10 14 15 17 18 11 15 17 16 20 20 16 15 19 18 17 18 14 16 18 18 18 18 16 16 17 13 12 12 10 15 16 18 20 16 14 11 11 13 13 12 9 8 10 12 14 12 8 10 12 18 15 13 11 9 8 2 9 10 5 8 5 4 3 4 1 3 4 5 0 9 6 3 7 5 11 10 15 15 24
38 30 28 28 26 27 30 30 20 13 11 21 18 17 15 17 21 17 14 16 16 14 14 15 19 17 16 16 16 20 16 14 15 12 14 13 11 11 11 11 12 15 13 17 18 11 12 14 13 12 11 9 8 11 7 9 8 7 10 11 20 15 8 7 2 4 1 9 9 4 2 2 3 0 4 0 3 6 5 1 8 11 6 8 10 13 18 23 20 25
34 24 22 28 28 25 21 17 16 19 17 17 21 21 18 20 20 16 14 12 13 16 20 19 19 17 14 12 14 14 16 13 12 11 11 12 12 11 13 16 13 16 16 11 12 8 10 12 13 12 11 13 12 9 6 5 7 4 6 14 17 12 1 2 2 7 7 7 5 4 8 11 11 9 7 1 11 12 7 1 5 10 2 2 6 9 12 19 24 32
40 28 34 38 27 15 9 13 17 20 21 13 14 15 19 21 20 21 19 18 14 15 17 17 19 17 16 18 20 14 16 18 19 12 11 11 11 13 16 19 18 14 11 8 11 12 12 14 14 13 12 10 10 13 8 5 7 4 10 15 12 6 3 1 1 3 11 12 7 5 3 9 16 14 12 1 3 5 5 4 3 7 1 5 9 11 8 12 21 28
39 27 33 23 11 12 12 16 19 20 19 13 18 14 12 14 15 19 15 18 18 19 19 15 15 16 18 19 19 15 16 16 17 16 12 14 16 16 14 14 12 11 12 10 12 12 12 12 12 11 6 4 10 12 6 7 7 7 16 12 6 6 6 1 0 2 9 12 7 3 1 3 0 4 9 3 6 2 3 3 6 8 2 3 3 7 11 11 20 30
40 32 24 13 12 17 20 17 17 18 17 15 21 17 13 15 13 15 13 14 18 15 17 19 17 12 16 17 19 18 19 13 15 18 11 17 21 14 9 11 13 13 13 13 15 13 10 12 13 8 8 12 14 13 7 6 7 12 13 2 4 6 3 1 1 2 6 7 7 7 5 6 2 0 2 2 6 3 0 0 2 1 2 4 8 10 12 12 20 34
46 33 18 14 15 14 19 17 12 20 15 13 16 18 17 21 21 22 16 16 15 14 18 21 20 16 15 14 16 12 10 11 11 11 17 16 15 12 9 11 15 13 13 17 19 14 11 11 11 11 11 12 10 9 6 11 14 14 6 2 4 10 6 2 2 4 3 5 5 5 4 5 4 1 3 3 3 5 4 0 0 0 5 14 14 13 15 12 17 33
45 26 23 14 14 16 19 18 17 22 22 27 27 26 26 22 21 19 21 24 18 12 14 17 14 12 15 14 16 19 19 17 14 14 18 18 15 14 15 13 14 10 10 11 13 10 9 9 13 14 12 7 5 6 4 7 12 11 7 4 6 7 7 12 13 11 9 11 11 10 11 8 4 5 3 2 2 5 3 2 0 4 9 9 12 10 6 10 18 28
38 19 22 16 16 18 15 19 19 25 27 27 35 19 10 17 19 21 24 25 21 15 12 15 18 17 16 15 14 18 26 27 24 20 14 16 17 18 17 11 12 9 11 11 10 10 9 11 10 12 14 13 10 6 6 8 10 8 9 5 5 9 6 11 12 13 15 13 10 9 7 8 6 8 13 4 3 2 3 1 2 7 10 13 9 5 5 7 14 23
28 18 19 16 15 16 14 21 22 31 23 22 18 20 44 35 20 28 28 23 20 26 28 18 7 0 0 5 2 0 3 5 7 11 14 17 18 12 10 6 7 8 11 10 12 14 14 14 14 14 12 14 13 12 9 7 5 5 6 6 8 11 7 9 10 9 12 13 8 7 11 11 9 11 13 10 6 5 3 2 3 7 6 9 9 9 13 11 9 24
20 17 19 18 17 15 16 23 24 25 32 35 42 64 36 8 24 35 39 35 38 41 19 9 23 63 91 102 98 74 49 28 9 2 0 0 0 0 4 9 9 10 11 12 16 15 13 13 15 12 12 10 11 11 13 14 10 10 13 9 10 12 10 8 8 11 12 12 9 10 12 10 9 5 11 9 4 9 10 4 9 10 8 7 11 10 9 11 11 21
19 22 24 20 17 18 19 22 16 22 34 36 28 15 11 47 37 22 34 24 34 15 23 46 104 116 109 110 107 102 87 79 68 60 38 27 14 6 0 2 11 12 14 13 12 12 10 10 14 12 11 11 11 9 11 13 11 13 11 9 11 13 12 15 11 10 13 17 13 12 10 13 8 5 9 9 8 10 10 6 8 7 11 10 8 8 13 15 10 20
21 17 16 17 13 14 13 15 14 23 31 30 16 22 33 33 13 30 24 19 14 21 27 74 93 85 95 97 95 99 94 79 85 81 68 74 81 81 59 22 5 0 3 7 13 12 8 9 13 13 11 9 11 10 8 9 10 12 12 9 11 14 13 14 11 15 14 18 16 15 13 12 11 12 12 10 9 5 9 9 15 10 8 10 13 13 9 9 10 18
18 16 19 15 15 18 18 14 11 17 23 15 20 30 21 14 18 20 20 18 18 21 25 77 70 67 77 77 72 79 92 90 87 80 70 67 64 69 66 48 26 4 5 2 0 3 7 10 12 11 10 10 12 12 10 11 12 14 16 12 10 12 12 14 14 14 13 13 12 16 17 12 11 13 13 13 12 8 11 7 12 11 9 12 15 13 10 10 9 20
16 16 17 17 21 19 15 17 17 15 14 15 23 22 16 21 20 24 25 17 21 17 23 58 63 59 58 60 60 61 72 75 73 76 78 69 67 64 63 65 71 75 62 43 33 13 5 5 9 8 9 8 9 9 9 9 12 13 8 7 8 8 7 10 8 7 9 11 13 13 14 11 4 8 13 13 11 12 11 4 2 3 12 9 9 9 9 10 7 17
16 19 18 15 17 19 19 21 17 20 19 17 16 14 14 22 19 13 16 18 18 19 13 24 35 26 24 30 42 48 61 61 65 65 69 69 73 71 73 73 77 85 89 93 79 43 15 16 11 2 2 4 6 6 9 8 5 9 20 26 31 29 21 23 17 16 12 13 12 12 11 10 8 9 12 11 7 12 13 6 2 0 3 6 6 4 7 12 8 15
17 15 18 14 12 16 19 16 11 17 18 20 15 17 17 14 16 16 16 19 13 20 12 14 19 13 7 18 36 44 53 54 58 61 66 64 57 60 65 65 40 26 52 95 112 104 56 14 16 23 28 24 47 49 39 38 35 27 23 26 31 33 22 18 24 27 24 25 15 8 4 7 13 15 16 10 9 8 10 12 9 9 8 9 9 9 9 13 10 12
16 11 13 17 15 16 16 13 11 11 12 16 13 19 18 18 20 22 20 15 11 14 6 5 7 13 24 28 31 44 50 50 57 59 61 59 50 53 66 68 48 15 0 8 49 78 87 67 33 25 33 26 31 44 38 28 27 36 29 18 20 29 32 27 17 17 16 18 21 16 9 5 3 9 14 13 14 11 10 5 9 11 14 13 13 12 8 8 6 14
22 17 15 13 13 14 18 17 13 17 18 17 17 21 20 20 18 18 18 15 7 18 40 56 55 61 80 60 24 26 39 38 39 45 41 42 52 36 20 43 80 93 57 5 0 7 31 45 44 34 29 27 19 12 19 27 20 20 27 18 19 21 25 39 32 20 17 20 15 16 14 11 4 9 13 12 13 12 13 10 8 6 11 14 15 11 8 12 10 16
22 15 15 15 11 16 21 16 12 18 18 20 18 17 13 17 16 17 18 15 46 68 62 36 27 76 83 66 44 19 18 29 34 33 36 50 68 67 35 0 19 61 90 84 43 3 3 14 26 38 46 31 27 24 17 18 31 28 25 31 22 17 19 14 24 32 21 11 15 19 19 15 9 10 17 16 14 12 13 14 11 11 11 11 9 7 11 13 9 11
20 15 13 15 18 21 18 16 14 17 20 20 19 14 16 17 17 19 13 25 45 21 11 34 69 70 63 84 78 52 23 13 23 35 35 32 40 62 87 80 25 0 32 67 79 51 20 8 14 20 28 36 28 25 17 14 22 23 24 31 33 26 23 26 17 18 21 15 19 19 16 14 12 11 16 17 14 19 13 12 13 12 10 11 11 11 12 12 11 15
22 14 14 17 20 21 19 18 14 19 20 18 18 13 15 19 18 17 12 28 27 18 55 81 47 28 71 79 63 62 48 32 19 23 31 21 14 11 32 74 97 53 7 11 23 47 61 31 12 9 13 17 18 17 16 17 23 20 20 22 29 31 22 24 29 22 18 17 15 17 16 12 11 13 14 17 16 21 17 14 17 15 13 12 14 13 13 13 14 16
20 13 12 13 12 15 15 14 10 15 18 17 20 20 19 17 19 19 16 29 26 46 58 29 11 48 62 68 76 56 39 37 28 19 19 27 30 25 14 19 51 68 40 14 12 21 34 44 45 19 15 15 11 17 20 18 20 12 11 12 15 17 23 19 17 20 15 14 18 16 18 18 13 15 16 15 13 13 14 10 11 15 13 13 13 13 15 14 15 15
24 15 14 16 15 18 15 14 14 19 20 20 20 18 18 18 14 16 17 22 30 34 22 14 32 40 50 74 50 35 27 26 25 24 19 16 22 30 28 16 13 18 25 26 22 14 11 22 40 35 19 17 17 19 17 16 18 17 16 14 14 11 13 14 11 13 15 13 19 16 12 16 10 12 15 15 12 13 13 13 13 14 12 12 15 12 14 14 13 17
20 13 15 15 15 16 21 21 17 19 18 18 18 13 15 20 18 18 18 16 22 22 26 31 39 58 61 36 18 19 16 16 15 14 17 14 15 19 17 18 14 14 15 15 21 20 14 17 15 18 18 16 20 18 13 19 21 19 19 17 19 19 14 14 15 19 21 18 19 16 17 14 13 14 21 19 14 13 13 12 12 13 11 10 13 14 14 12 13 15
19 14 14 15 15 12 16 17 15 18 16 18 21 15 15 20 18 16 18 20 14 16 27 31 47 51 23 18 15 13 14 17 16 12 14 17 17 15 13 17 16 14 16 17 18 17 13 18 17 12 11 12 13 17 17 15 16 16 16 18 19 19 19 21 20 18 18 20 18 13 12 13 12 12 16 15 16 15 13 12 11 9 7 11 15 14 16 16 15 16
19 14 15 13 18 13 15 16 17 21 18 20 19 14 15 21 18 17 17 18 12 13 18 20 33 22 16 15 16 19 17 21 15 14 14 19 19 17 17 17 16 16 18 15 18 19 14 16 17 14 11 13 12 12 12 12 12 14 12 13 18 15 17 19 16 18 18 20 19 18 18 18 15 11 11 13 13 12 14 11 13 9 9 11 12 13 15 17 13 16
17 16 18 13 13 12 16 17 15 17 14 18 17 14 15 21 15 16 14 15 13 14 18 19 27 22 15 17 21 16 19 17 19 19 17 17 19 17 17 17 17 17 15 17 20 19 14 14 17 13 14 14 14 15 15 15 13 13 11 12 15 15 15 16 15 17 18 18 13 12 19 22 15 13 12 12 13 9 8 10 11 13 13 12 10 11 10 12 12 14
19 12 11 14 16 15 23 21 15 18 15 21 18 15 17 20 20 17 13 16 16 16 19 19 21 18 15 18 17 19 17 15 17 21 19 15 17 19 17 19 21 18 18 18 19 20 17 15 19 17 18 16 13 13 15 13 13 15 13 13 16 14 12 13 18 19 18 21 15 16 14 16 15 12 11 10 9 10 9 7 10 11 9 9 6 8 9 12 9 15
20 13 16 19 23 19 18 16 13 21 19 15 18 13 13 15 14 15 13 13 15 12 18 22 16 11 15 17 13 14 15 21 16 18 16 17 15 17 15 17 18 14 14 14 14 14 14 14 14 14 12 11 13 12 12 13 13 12 12 13 13 13 15 13 12 17 20 18 17 20 15 14 14 16 17 14 10 10 11 3 11 15 11 11 4 5 8 11 10 15
23 20 20 18 17 13 14 15 9 12 12 9 9 8 8 11 10 8 10 10 9 11 13 15 12 11 13 14 12 11 10 15 14 14 14 13 11 12 11 9 7 7 13 13 13 11 9 10 14 13 14 12 13 13 11 13 12 10 11 11 15 14 14 14 10 10 11 14 15 19 16 13 12 16 17 12 8 6 5 2 1 5 8 6 1 0 1 2 1 8
25 19 14 14 13 13 16 14 11 13 8 5 4 0 2 4 5 7 8 12 10 9 11 13 9 4 8 11 9 11 11 10 16 15 16 14 12 13 6 8 10 8 12 9 9 11 12 9 14 16 16 14 13 9 11 13 13 17 15 7 13 11 9 13 11 13 14 14 15 19 15 12 11 11 7 3 6 5 2 2 0 0 0 0 0 0 1 1 0 10
