P2
# Filtro High-Boost
90 90
255
230 168 177 176 176 175 174 174 173 171 171 169 165 165 161 158 155 155 157 156 154 154 155 154 152 153 153 153 153 152 153 154 161 150 126 133 134 133 139 149 149 146 146 147 145 138 136 140 144 144 144 145 137 183 221 206 207 207 207 207 207 207 207 207 207 207 207 207 207 207 207 207 207 207 207 207 207 207 207 207 207 207 207 207 207 207 207 207 207 255
173 96 108 107 105 105 105 105 106 107 109 110 105 101 98 96 93 93 92 92 93 92 93 92 91 92 91 90 90 90 90 92 102 74 58 70 76 77 87 90 90 88 88 89 86 82 81 85 87 88 81 86 73 104 142 123 124 124 124 124 124 124 124 124 124 124 124 124 124 124 124 124 124 124 124 124 124 124 124 124 124 124 124 124 124 124 124 124 124 207
168 98 109 107 107 106 106 111 118 119 116 114 114 114 110 100 95 93 91 94 93 91 91 92 90 90 90 90 91 92 92 93 97 76 84 90 71 69 79 80 82 82 90 88 83 82 81 85 87 87 84 89 74 96 141 123 124 124 124 124 124 124 124 124 124 124 124 124 124 124 124 124 124 124 124 124 124 124 124 124 124 124 124 124 124 124 124 124 124 207
166 102 111 108 105 107 116 117 89 75 62 56 56 77 102 114 108 98 94 92 93 92 90 90 90 91 91 92 92 88 85 84 78 82 109 121 112 92 77 75 80 83 88 84 87 83 81 84 90 85 87 92 74 98 140 123 124 124 124 124 124 124 124 124 124 124 124 124 124 124 124 124 124 124 124 124 124 124 124 124 124 124 124 124 124 124 124 124 124 207
164 103 109 104 104 116 108 78 58 57 60 58 56 51 48 66 89 101 100 96 91 91 89 91 91 91 92 91 85 84 84 79 83 90 89 86 90 104 100 83 79 81 84 83 88 83 80 84 87 87 88 92 74 116 136 124 124 124 124 124 124 124 124 124 124 124 124 124 124 124 124 124 124 124 124 124 124 124 124 124 124 124 124 124 124 124 124 124 124 207
165 99 103 103 111 100 69 59 59 62 59 63 65 63 67 53 51 66 95 97 92 92 90 91 89 90 89 85 83 82 86 92 91 84 81 81 78 79 93 96 84 78 82 81 83 83 83 84 87 88 93 89 78 138 130 124 124 124 124 124 124 124 124 124 124 124 124 124 124 124 124 124 124 124 124 124 124 124 124 124 124 124 124 124 124 124 124 124 124 207
163 99 100 111 103 65 62 67 58 63 57 59 60 59 71 75 61 48 55 93 96 90 89 90 91 90 85 79 83 92 96 91 84 81 77 74 76 74 78 89 94 82 78 82 85 82 83 86 88 88 95 82 89 141 126 124 124 124 124 124 124 124 124 124 124 124 124 124 124 124 124 124 124 124 124 124 124 124 124 124 124 124 124 124 124 124 124 124 124 207
162 98 103 114 75 62 64 64 58 56 53 56 66 58 66 70 71 70 63 94 97 90 89 88 93 85 76 92 103 97 91 88 83 78 70 67 73 75 75 76 88 94 82 81 83 81 80 85 90 87 95 76 109 142 124 124 124 124 124 124 124 124 124 125 125 125 125 125 125 125 125 124 124 124 124 124 124 124 124 124 124 124 124 124 124 124 124 124 124 207
161 97 110 97 52 62 62 60 62 59 59 58 65 62 59 67 71 75 81 93 98 92 88 88 89 75 79 115 103 90 90 86 83 81 73 68 71 74 73 71 73 88 95 77 82 82 80 86 90 89 94 78 94 134 125 124 124 124 124 124 124 124 125 125 124 125 125 125 124 124 125 125 125 125 125 125 124 124 124 124 124 124 124 124 124 124 124 124 124 207
160 97 113 85 46 59 59 60 64 63 59 59 60 66 62 67 74 75 68 73 92 97 88 87 78 75 74 88 100 88 88 87 83 82 79 76 74 74 74 73 72 72 98 84 84 85 80 86 88 91 93 86 97 138 124 124 124 124 124 124 124 124 125 124 122 122 125 125 124 124 126 125 126 124 125 125 125 124 124 124 124 124 124 124 124 124 124 124 124 207
158 98 114 76 48 56 53 55 64 64 60 56 59 63 60 66 75 75 74 65 77 96 91 89 77 82 77 80 98 90 89 84 84 82 81 79 76 76 74 74 74 66 87 93 77 82 79 85 89 89 93 85 117 137 124 124 124 124 124 124 124 124 125 125 113 112 109 110 120 127 134 134 135 119 122 125 125 125 124 124 124 124 124 124 124 124 124 124 124 207
156 97 113 62 43 57 58 57 60 63 55 53 57 58 63 81 82 75 75 71 66 86 98 82 79 79 76 80 100 92 90 86 84 85 82 81 77 75 76 74 73 72 71 103 80 78 80 84 85 90 93 90 135 128 124 125 125 125 124 124 125 125 126 126 115 110 115 91 54 79 113 128 111 124 122 123 125 125 125 124 124 124 124 124 124 124 124 124 124 207
154 98 106 64 51 60 57 57 56 54 60 56 58 58 65 81 83 77 75 75 64 76 97 78 81 77 75 80 97 90 87 87 84 87 85 82 77 73 76 74 73 74 64 101 96 77 83 81 80 87 87 109 140 125 126 125 124 125 125 125 125 124 127 133 122 112 122 102 46 66 75 59 40 93 126 119 129 125 125 125 125 124 124 124 124 124 124 124 124 207
155 97 105 61 53 60 50 59 57 53 61 61 55 60 64 74 81 79 77 75 66 74 90 79 79 76 75 83 98 92 92 93 87 87 87 85 84 77 73 74 72 73 68 86 106 73 83 80 76 84 92 134 134 128 127 126 127 127 125 125 126 126 130 120 79 68 74 92 65 94 74 64 90 66 118 105 127 131 125 125 126 125 125 125 125 124 124 124 124 207
156 93 107 62 54 56 54 58 58 60 60 60 58 64 61 70 77 78 77 76 71 74 83 81 78 77 74 88 98 89 88 89 86 86 92 80 77 78 76 74 72 72 70 73 119 75 81 78 79 98 108 112 101 101 99 92 109 128 129 127 126 120 122 85 66 49 53 67 74 87 80 68 92 65 118 87 104 135 127 125 126 125 125 124 125 125 125 124 124 207
162 87 106 60 56 59 60 53 62 63 64 57 59 65 64 71 83 79 77 82 78 72 85 82 76 77 73 95 87 77 77 78 74 83 93 92 77 77 74 75 74 72 71 68 120 74 78 73 85 115 101 91 90 88 89 84 93 116 118 113 112 107 104 77 92 56 56 50 68 73 76 70 83 72 81 76 68 84 120 118 117 123 125 125 126 124 125 125 125 207
175 88 102 58 51 55 58 61 61 55 54 53 45 53 53 61 72 70 73 83 63 48 77 84 75 76 74 83 80 78 79 79 78 80 78 89 84 78 72 75 77 74 79 67 111 77 71 72 101 113 92 88 93 99 103 97 93 93 92 90 94 102 83 69 72 50 76 60 62 57 54 64 69 63 57 69 59 54 80 124 106 108 113 119 123 126 126 125 123 207
179 94 101 65 42 52 56 61 59 52 103 77 64 73 61 71 77 73 74 67 65 66 69 79 76 76 77 79 78 76 79 78 79 78 78 77 82 77 72 69 73 75 84 67 124 78 68 106 132 117 118 120 124 122 110 93 90 96 96 96 95 104 89 70 46 49 87 71 56 52 54 74 67 63 58 66 62 93 62 112 112 103 105 107 110 116 119 123 125 208
175 105 102 74 42 52 48 54 57 75 97 63 75 76 80 83 83 82 80 73 71 73 94 77 75 75 76 76 78 77 77 77 79 78 74 73 82 83 74 70 71 83 84 67 101 71 92 111 95 89 96 95 108 117 123 121 105 92 96 99 98 101 88 93 89 55 59 67 56 48 55 64 67 64 57 60 62 62 47 99 129 106 106 106 106 104 104 115 126 208
171 112 116 80 44 58 60 53 56 79 89 66 77 77 71 79 80 78 71 59 53 59 81 74 75 75 75 75 77 77 76 76 79 77 75 76 83 82 74 70 70 95 93 70 87 91 95 86 87 90 89 87 91 94 94 103 120 121 99 95 100 104 89 96 113 81 52 58 62 52 58 70 71 61 55 59 62 60 51 75 125 121 108 107 107 107 101 113 128 208
153 92 112 111 46 48 57 56 65 76 86 60 68 87 70 76 80 78 80 75 68 61 79 76 75 77 75 76 76 77 75 77 77 77 75 75 77 75 72 70 69 92 84 68 89 94 91 93 94 95 96 98 102 101 97 94 92 107 122 102 95 99 97 98 118 110 57 48 64 63 55 68 69 57 54 61 64 63 64 51 53 113 117 107 108 110 102 114 128 208
135 79 102 129 59 36 51 51 72 81 75 74 71 86 76 75 78 79 82 83 71 62 81 75 71 74 74 75 74 74 77 75 75 76 73 74 74 73 72 69 69 94 83 66 89 93 93 94 96 98 102 101 98 99 98 99 96 93 97 120 103 95 95 103 115 103 67 54 64 60 64 59 58 54 57 57 69 62 61 74 54 70 122 107 107 108 102 114 129 208
157 83 109 132 72 37 49 47 75 77 66 92 83 76 79 75 78 78 79 84 78 72 82 83 76 76 73 72 73 73 75 74 74 74 72 75 75 73 70 71 71 93 91 68 92 94 94 99 101 101 101 98 98 96 97 97 98 98 91 96 121 96 91 106 102 98 80 56 62 68 72 69 56 53 58 58 67 65 59 78 76 59 115 111 107 107 100 113 129 208
186 79 104 130 88 36 54 50 74 82 65 64 76 77 78 77 79 76 76 78 82 73 66 76 81 77 77 71 71 71 75 74 74 74 73 76 76 72 72 72 71 94 87 72 94 93 94 104 101 100 98 98 99 98 97 97 97 98 97 88 103 119 94 110 99 99 90 48 56 66 58 66 58 56 57 63 66 63 60 68 71 73 115 113 107 108 103 114 129 208
187 88 94 122 100 42 52 55 74 79 76 68 68 74 74 75 78 81 72 67 76 63 75 74 76 76 77 73 70 71 71 72 72 74 73 76 74 72 71 71 72 96 73 81 94 90 94 100 101 99 99 98 98 99 98 99 98 96 96 94 84 121 109 108 110 98 96 76 62 51 57 68 56 56 55 70 70 65 59 61 54 83 121 110 107 108 100 114 128 208
187 110 98 106 109 61 42 55 80 77 74 75 79 76 72 73 74 77 73 67 73 68 128 90 71 77 74 75 73 69 70 71 71 73 73 73 73 71 71 70 75 86 69 89 92 92 94 95 101 101 99 100 99 98 99 98 99 97 97 98 89 100 83 49 82 98 89 76 64 57 72 66 55 53 62 69 68 64 61 63 70 83 110 109 108 108 102 114 129 208
180 112 92 84 121 82 55 73 82 76 75 75 74 75 72 72 71 76 75 71 64 56 112 97 68 76 75 75 74 69 68 70 70 72 71 71 72 70 71 69 72 73 76 93 92 91 96 96 100 101 101 100 99 99 98 99 99 98 98 98 93 90 90 71 92 85 91 72 59 52 53 59 58 58 65 63 64 61 59 58 76 72 85 107 111 110 102 113 129 208
173 108 90 84 124 77 64 80 80 77 74 73 73 71 70 72 73 75 75 74 54 76 119 106 72 74 75 74 74 73 69 69 68 71 70 70 71 69 69 69 68 71 86 93 95 92 96 97 100 101 102 102 100 99 100 98 98 97 97 97 93 100 100 67 96 82 82 80 66 60 62 69 59 58 65 56 61 53 55 62 80 66 77 103 105 110 102 113 129 208
176 117 103 102 114 65 69 78 79 77 74 72 71 68 67 69 69 72 74 75 64 77 107 106 89 70 75 74 74 73 73 72 69 70 69 70 70 68 70 67 68 78 93 92 97 93 95 97 100 100 102 102 102 98 100 100 99 99 97 94 101 107 93 56 55 79 84 86 77 69 62 60 50 77 67 60 56 56 59 70 82 85 100 107 108 110 105 113 129 208
173 120 107 111 147 65 58 81 77 75 75 73 70 67 66 67 65 67 73 70 61 77 100 91 100 76 74 74 73 72 72 69 67 68 68 69 67 67 66 63 74 92 94 92 95 92 94 97 102 102 102 103 102 101 100 99 100 98 96 106 106 83 105 97 87 89 83 82 73 60 59 61 58 70 65 63 53 61 61 65 70 78 86 106 106 111 106 111 129 208
171 108 113 66 144 142 63 66 76 74 73 75 72 68 65 66 65 66 72 71 56 104 104 92 94 88 73 74 73 72 70 67 66 67 67 68 66 66 62 68 91 98 96 99 100 98 95 100 105 103 102 103 102 100 99 99 100 99 99 93 98 80 114 123 105 94 80 82 63 54 61 55 55 57 65 61 58 68 60 63 67 73 90 105 102 115 111 110 129 208
171 108 115 47 66 167 133 68 62 73 74 73 73 69 65 67 67 67 69 68 60 107 105 95 93 92 79 70 72 73 71 69 64 66 67 64 62 65 66 71 70 66 65 72 83 95 100 99 98 98 99 105 104 98 99 98 100 100 100 94 65 61 105 109 88 83 70 79 67 64 57 54 62 59 59 56 57 62 63 67 72 86 104 105 115 113 112 110 126 208
177 129 102 50 27 118 151 128 67 60 75 70 71 67 64 65 68 67 68 70 54 81 110 96 95 96 89 81 73 72 74 71 67 67 62 60 70 74 74 73 73 71 67 74 65 72 94 98 101 98 99 103 103 99 100 100 99 100 101 111 98 77 99 96 84 80 64 75 67 47 61 67 66 65 60 56 55 57 65 66 65 59 91 86 108 115 113 115 126 208
183 141 74 58 46 51 144 133 128 66 54 69 71 65 63 63 67 66 63 55 42 83 108 96 96 96 94 85 86 82 70 68 63 60 63 75 76 72 73 74 73 72 80 93 86 86 93 90 98 102 98 99 99 99 98 98 99 100 103 96 59 89 100 86 80 76 66 73 70 62 79 65 66 65 59 56 55 57 67 68 70 61 88 84 89 111 108 114 126 208
139 62 60 64 60 26 108 138 126 127 60 57 71 66 61 48 41 39 44 60 87 111 100 97 97 96 95 89 77 93 87 73 73 65 72 75 75 73 73 76 77 82 84 80 80 78 78 85 85 100 103 100 100 98 98 98 100 99 99 109 104 69 78 84 82 79 72 77 64 70 70 58 60 59 56 57 55 62 65 67 75 63 89 94 98 115 105 112 127 208
118 47 57 64 63 40 47 144 117 125 121 54 59 70 49 73 105 107 114 119 114 102 98 97 96 98 95 94 78 77 107 89 85 79 75 74 73 75 82 85 85 81 74 71 72 72 73 77 78 85 105 100 98 101 98 98 100 100 99 110 127 92 77 86 87 84 70 73 62 60 65 59 58 55 57 57 56 65 61 78 70 54 85 107 112 118 104 113 127 208
114 59 61 57 58 56 24 105 133 109 128 108 46 50 60 133 122 115 110 101 98 99 99 99 98 97 94 95 88 88 94 82 61 70 73 75 78 91 89 83 80 77 76 72 72 72 70 73 75 76 90 105 99 99 98 99 98 98 104 76 71 83 104 87 90 82 66 68 59 64 71 62 56 56 56 54 62 64 65 86 60 62 82 86 108 117 101 111 128 207
112 58 62 56 57 59 40 51 139 112 110 132 89 32 110 117 99 103 104 103 100 99 98 99 97 97 95 94 99 87 87 102 81 78 82 82 79 88 83 83 81 79 78 75 75 74 72 72 70 71 78 102 101 97 99 99 99 99 106 85 76 93 94 83 87 78 68 68 62 70 75 60 60 64 59 54 70 69 72 67 47 64 97 102 110 113 109 109 124 208
110 57 57 57 56 58 55 25 117 127 106 113 118 62 120 105 103 104 104 105 100 100 98 98 98 98 97 96 103 88 77 95 77 83 84 75 85 89 80 82 79 78 78 75 72 72 71 68 71 72 66 92 105 96 97 99 97 97 99 104 97 90 87 85 83 75 69 69 61 60 63 52 61 55 57 63 73 65 61 57 49 72 95 100 101 112 117 107 119 203
107 59 58 59 51 58 59 27 79 138 101 106 114 106 111 103 101 105 105 101 99 99 100 99 97 97 97 94 100 93 72 82 79 78 76 81 95 85 82 81 79 78 78 75 73 72 71 69 69 71 63 82 106 97 98 98 97 98 98 99 100 94 86 87 79 76 68 72 71 57 57 54 64 54 55 62 65 55 60 58 48 91 105 100 103 110 117 105 114 197
102 57 57 60 53 53 57 44 39 138 115 109 119 99 99 109 102 106 108 105 102 99 99 98 99 98 99 94 94 101 85 82 83 73 76 101 92 71 75 80 78 79 78 75 75 72 69 70 69 70 65 69 110 98 98 97 96 97 99 80 78 84 87 87 79 71 63 67 73 66 55 66 63 48 56 60 60 61 71 60 49 94 117 116 113 114 114 108 119 196
98 57 56 58 56 52 55 55 21 108 134 112 130 82 82 116 102 105 106 104 101 100 99 100 98 97 98 96 93 95 84 86 82 76 74 96 81 67 72 81 78 78 78 75 75 74 71 72 72 70 68 60 105 100 94 95 95 95 97 95 65 50 59 60 54 56 63 66 69 65 50 64 53 55 62 64 62 62 71 57 50 78 100 108 115 123 118 113 111 190
95 56 55 55 56 52 53 58 30 66 130 115 131 66 75 119 103 102 102 105 103 102 99 100 98 99 98 95 95 90 90 86 78 76 75 98 77 69 75 84 80 79 79 75 73 73 72 73 72 70 66 60 110 103 91 95 95 94 92 98 121 108 74 61 64 58 49 63 72 70 57 56 51 59 58 66 63 62 73 52 48 56 99 103 99 111 118 107 102 183
89 55 56 55 57 50 53 55 43 38 121 111 125 56 46 107 109 100 100 103 103 105 101 98 98 99 99 97 95 89 92 81 80 73 85 99 75 73 81 83 80 80 81 80 73 74 73 73 73 70 69 57 110 113 84 94 94 93 88 91 119 118 107 110 115 127 69 57 71 71 62 53 56 55 55 73 63 71 68 51 52 58 109 107 104 117 123 101 105 172
92 54 54 56 57 50 54 53 53 24 107 122 112 76 33 85 117 99 100 103 102 103 101 98 98 99 100 98 96 88 91 79 77 71 77 76 75 76 76 76 73 73 80 85 82 78 73 71 64 68 67 63 103 124 80 94 92 90 85 112 115 97 97 94 95 117 113 59 76 74 50 50 66 61 64 71 63 64 57 60 60 74 94 103 114 118 121 98 104 173
96 54 55 54 57 50 55 57 55 29 68 139 108 91 29 69 117 100 100 100 100 98 100 100 98 99 99 98 98 89 85 77 73 67 67 68 75 77 75 78 75 73 76 79 85 78 74 72 72 68 66 72 108 131 76 93 87 83 104 125 70 87 100 94 98 108 128 80 72 66 52 63 69 64 55 53 56 52 62 71 72 87 107 113 108 120 112 97 106 176
93 52 53 54 57 54 41 56 56 45 38 137 112 96 34 63 115 99 99 99 99 100 99 98 98 98 99 98 99 88 79 76 74 69 71 70 72 73 75 77 77 75 76 75 77 79 76 71 74 68 67 67 120 136 72 87 84 105 122 92 71 92 106 105 107 104 115 85 64 56 63 64 64 63 49 44 51 55 67 68 74 91 107 123 114 130 109 106 110 177
95 58 54 55 54 59 47 40 59 53 23 117 123 91 48 74 113 101 99 100 100 99 98 99 99 99 100 99 99 89 78 77 70 63 68 69 70 71 77 80 77 74 78 74 76 78 81 73 71 68 63 54 131 132 66 91 112 120 92 77 101 114 104 78 72 79 59 47 71 62 66 61 57 51 57 59 62 63 63 62 79 90 99 111 103 118 110 109 107 177
93 57 54 55 54 56 61 42 49 56 25 88 138 93 56 67 106 103 99 100 100 98 98 99 98 98 99 96 98 89 77 76 67 60 67 68 69 69 76 80 76 76 77 73 79 81 80 73 71 70 66 59 121 117 92 114 98 79 90 81 111 111 56 58 78 90 43 46 72 66 59 60 57 51 72 67 67 67 53 68 84 68 72 120 113 113 120 106 105 177
93 53 52 53 53 54 57 52 50 57 34 55 141 96 65 62 100 105 98 98 98 99 99 99 99 99 97 91 95 98 75 76 68 63 68 68 69 68 70 78 78 77 76 76 77 76 73 71 71 71 68 61 99 114 100 105 96 93 102 105 118 65 51 79 94 73 36 56 75 66 53 56 50 51 54 58 68 53 43 54 75 67 53 108 123 111 126 107 103 177
90 53 55 52 53 55 56 49 53 56 46 31 131 111 61 59 91 108 97 99 98 98 99 99 98 96 96 105 113 102 78 76 67 65 65 69 69 70 69 74 79 78 76 77 76 77 79 73 72 70 63 62 105 113 96 109 103 106 103 111 85 56 59 84 86 51 34 61 90 55 48 45 45 53 46 52 52 42 59 65 64 86 69 74 105 108 127 108 97 171
89 59 58 53 56 55 57 46 53 53 53 23 105 129 63 68 76 113 98 98 98 98 99 98 99 95 103 118 111 86 86 75 64 65 67 68 66 71 69 68 74 77 75 77 75 76 77 74 71 71 61 69 111 120 76 77 82 87 94 80 65 64 59 93 68 42 36 86 88 52 52 54 54 59 57 55 45 64 79 78 73 65 92 105 111 100 128 102 82 152
93 59 54 51 53 53 56 45 55 53 54 28 71 147 69 68 61 109 101 96 96 99 99 99 99 97 102 111 98 52 88 79 65 67 70 67 67 67 67 68 69 74 76 76 76 73 71 70 72 71 58 75 123 113 69 74 79 84 89 64 74 60 76 90 52 40 47 111 75 60 59 66 58 38 32 45 70 83 80 79 78 71 60 119 142 104 131 113 77 141
87 55 54 51 52 54 58 43 50 55 54 40 40 154 70 69 56 99 108 98 99 98 98 98 99 102 101 99 59 49 88 91 68 66 67 68 65 68 69 68 68 71 77 76 73 72 73 72 71 70 53 83 127 92 81 92 92 101 87 63 74 63 77 77 55 28 64 105 73 76 68 78 69 59 58 74 84 80 82 79 74 74 57 68 141 112 129 107 87 147
90 55 53 51 52 53 57 49 44 56 55 49 22 141 84 44 55 81 115 96 99 99 101 102 101 94 88 109 47 65 64 60 60 65 68 72 64 67 69 67 68 67 73 75 72 71 71 70 69 67 50 103 116 91 88 91 96 105 66 70 69 69 69 62 41 25 71 93 77 73 78 82 67 75 80 80 79 82 78 71 70 72 71 46 127 129 121 84 84 147
97 54 50 47 52 55 56 54 42 57 54 54 19 112 107 27 42 59 117 98 98 100 101 100 90 80 114 129 49 71 63 65 55 62 68 75 69 66 66 66 68 68 71 75 72 70 69 72 70 57 58 116 111 110 88 88 100 86 55 72 58 68 70 61 32 57 96 51 83 78 91 68 66 79 78 80 84 79 70 71 73 70 73 53 98 122 86 84 91 153
90 55 52 44 50 55 54 59 45 52 56 54 28 76 131 34 68 53 109 102 97 95 92 85 86 102 147 119 43 77 69 91 51 61 69 78 72 69 66 69 69 68 67 67 70 70 71 73 67 43 99 129 105 89 78 88 104 71 55 61 51 70 70 55 37 73 95 53 75 92 86 46 80 82 80 82 86 63 66 73 75 70 73 65 75 112 89 96 94 163
79 53 53 46 48 54 53 56 48 46 57 53 39 46 141 65 76 43 88 99 88 88 87 95 109 135 123 31 22 66 80 71 25 48 60 78 75 71 69 69 69 68 67 65 69 73 74 68 47 65 139 132 102 78 94 100 75 59 57 62 53 80 76 47 46 75 68 84 70 82 59 49 87 81 79 86 73 56 72 73 75 70 71 70 67 93 109 103 101 173
89 55 54 44 49 54 54 55 55 41 55 53 49 28 130 85 73 40 81 127 101 101 104 111 135 110 25 27 38 36 83 83 59 88 41 63 70 74 73 69 68 66 66 66 70 73 75 52 53 110 116 117 119 116 96 60 51 62 60 61 62 82 81 49 56 92 90 76 68 69 50 66 89 78 81 85 64 57 72 75 75 70 71 72 64 80 111 104 101 175
100 50 50 42 45 53 56 54 57 42 50 55 54 24 110 80 83 44 52 132 99 99 107 134 94 23 31 48 47 28 64 82 84 130 110 74 57 58 66 64 64 61 66 64 72 82 63 63 123 122 106 121 123 83 46 49 63 61 61 57 70 78 84 61 49 74 69 60 70 79 74 82 81 76 82 78 60 58 74 76 76 70 70 75 62 76 104 104 97 173
98 49 49 41 44 51 53 53 57 47 45 58 53 27 91 80 80 61 25 126 99 106 129 79 19 40 49 48 48 35 44 81 75 93 118 116 99 68 54 57 46 50 73 86 87 69 58 56 43 46 148 93 32 45 54 62 62 59 62 55 74 75 84 76 42 45 65 71 75 75 82 81 75 79 82 69 63 58 76 78 77 70 70 76 65 72 96 106 97 172
93 50 46 41 48 52 54 54 55 53 40 57 55 32 75 89 64 95 28 110 109 125 76 27 44 51 48 46 46 43 26 65 96 98 103 109 116 112 115 105 104 112 105 77 55 49 52 45 40 63 123 55 44 56 60 62 64 57 58 58 76 76 80 78 46 49 76 77 77 84 83 70 76 81 75 64 67 55 78 79 76 66 64 73 68 67 95 102 97 166
87 51 44 40 44 50 54 52 52 56 39 52 55 40 57 106 44 87 25 111 155 108 36 41 49 47 47 46 45 47 17 72 144 99 99 106 109 109 137 42 53 64 49 39 49 55 54 54 59 49 43 47 57 58 57 65 65 53 50 72 76 79 77 83 43 67 86 83 85 77 71 69 81 80 67 62 66 57 81 76 74 69 67 70 70 60 89 101 90 158
82 52 42 40 40 47 55 53 52 58 44 44 56 45 44 110 39 53 28 72 64 67 48 40 48 47 46 46 47 49 17 85 163 90 89 92 108 124 128 15 37 43 46 50 52 56 53 56 58 53 51 60 55 60 53 62 63 47 59 89 73 78 79 77 50 91 89 80 72 68 69 72 82 74 66 64 65 60 78 76 75 69 69 67 71 62 79 108 89 152
82 53 42 41 41 47 53 53 52 54 50 39 59 50 37 106 57 58 41 41 31 69 42 41 46 48 47 48 48 46 26 53 144 79 86 100 108 115 135 14 34 58 56 56 54 56 55 56 54 61 57 59 52 58 60 52 52 43 80 86 74 77 83 63 71 93 74 72 72 72 74 79 85 68 66 65 62 64 77 78 74 72 69 66 71 70 62 106 88 143
82 54 40 42 41 48 52 53 53 54 56 35 53 54 39 87 59 58 44 50 50 58 50 41 47 49 47 50 47 47 37 37 113 78 99 103 101 114 119 78 30 26 51 57 55 58 57 55 55 58 54 59 57 52 65 63 42 51 95 74 75 74 92 56 71 80 74 75 78 80 82 88 79 65 68 66 60 65 77 78 73 71 70 67 68 76 57 94 106 163
86 49 38 42 42 49 51 51 51 53 57 38 45 59 44 57 56 63 57 43 52 46 47 41 46 47 49 50 47 48 43 29 104 91 106 100 97 98 100 133 123 53 18 54 56 57 59 58 53 59 43 53 58 54 54 68 52 75 88 72 72 75 89 45 80 78 78 79 85 86 86 83 67 63 67 67 58 65 78 76 74 71 71 69 63 77 61 71 135 197
87 46 40 41 42 49 52 52 53 53 56 44 36 59 48 48 81 81 61 38 56 43 47 44 46 46 54 46 44 49 45 36 105 97 91 92 112 106 93 106 103 130 68 27 62 57 53 58 53 62 59 51 54 57 52 56 57 83 77 72 74 89 63 57 85 79 81 88 84 74 71 64 60 65 70 67 56 63 76 74 72 70 70 70 64 71 72 61 133 193
86 43 39 41 43 48 49 50 54 53 55 51 31 55 50 46 98 78 63 32 60 44 47 44 46 49 54 45 47 50 42 31 90 92 88 96 112 115 118 90 78 105 120 21 50 64 52 55 56 56 65 59 57 56 58 47 51 85 76 74 81 84 47 83 83 83 85 77 62 54 51 52 58 66 67 67 56 61 75 74 75 71 72 71 67 67 78 59 112 171
84 41 39 42 44 48 51 52 49 49 54 55 31 46 55 42 97 80 74 27 66 49 45 44 44 54 48 46 49 37 31 69 84 78 89 112 96 100 121 75 82 92 120 54 16 59 61 54 64 57 60 62 62 60 61 54 53 86 74 75 83 63 72 90 82 81 75 63 63 68 67 66 64 67 67 67 60 57 76 74 74 71 72 71 67 65 78 66 88 146
81 42 39 41 45 48 50 49 46 53 54 57 36 38 57 36 90 73 68 25 65 53 41 45 49 57 45 44 35 42 113 124 87 72 108 110 86 79 119 59 87 109 96 101 36 16 51 57 58 63 56 59 59 62 66 58 59 85 72 76 77 61 84 82 81 79 72 71 74 75 74 70 70 69 67 67 62 54 77 77 74 70 72 73 69 65 71 72 77 152
81 45 39 43 46 48 49 45 48 55 51 56 42 31 56 41 79 69 71 25 61 60 36 43 59 50 38 31 56 98 115 98 77 94 122 87 111 94 108 56 124 148 89 96 140 89 16 28 37 55 65 62 62 62 61 48 61 86 73 78 71 64 81 77 77 74 73 74 74 70 69 68 70 69 65 62 63 54 74 78 74 71 72 72 68 67 65 75 73 194
81 44 38 43 46 49 49 48 51 52 51 55 47 32 49 46 64 74 77 27 54 71 32 51 58 29 27 83 107 84 76 78 79 122 90 81 89 74 100 68 121 124 81 79 123 148 108 79 64 30 27 38 47 47 45 30 58 83 75 83 62 71 80 81 76 68 69 69 71 71 70 68 67 67 64 59 64 56 73 77 74 71 71 73 71 68 61 78 66 204
83 44 38 43 46 48 47 49 49 51 52 55 47 34 40 47 63 82 87 23 42 79 34 56 26 34 100 121 80 78 86 84 110 109 68 99 70 86 90 71 81 65 84 85 97 118 101 109 111 101 79 55 34 39 46 63 75 73 77 80 57 81 85 79 66 66 68 71 69 69 69 67 66 65 63 61 62 51 67 78 74 73 69 73 70 70 59 74 77 199
83 44 40 45 46 46 47 48 49 51 52 52 48 40 35 49 58 85 104 24 34 79 48 27 49 133 114 85 74 80 90 106 103 87 74 92 60 104 80 72 75 75 86 83 97 105 86 84 94 117 134 160 129 130 120 155 93 62 80 70 61 89 77 65 61 67 71 72 71 69 68 66 65 66 65 64 65 49 61 78 72 74 69 73 71 70 66 60 97 201
83 43 40 45 46 48 48 49 48 51 51 52 50 42 31 47 55 82 121 29 29 73 56 50 112 102 81 68 76 94 122 97 87 90 93 76 68 123 71 73 93 99 71 72 108 97 78 91 86 86 96 128 100 126 107 114 71 66 81 64 74 78 62 62 67 71 74 71 65 64 67 65 66 66 65 64 65 54 54 80 73 74 68 73 71 69 69 45 115 196
86 41 40 45 46 46 48 46 47 51 51 52 50 44 34 42 57 81 126 30 27 54 100 102 100 102 106 67 79 92 96 68 99 116 91 64 84 114 69 73 86 84 65 68 98 94 83 81 70 70 85 111 103 112 95 109 72 71 76 64 78 64 60 66 73 77 75 67 61 63 65 64 67 65 65 61 66 57 54 79 71 76 70 72 71 68 73 40 109 171
90 37 41 45 45 46 47 46 52 51 51 52 50 44 39 32 58 84 127 33 30 34 108 127 107 121 115 70 84 100 80 78 119 134 82 69 113 102 68 80 87 77 58 62 69 72 76 69 74 83 81 86 100 89 97 112 66 74 70 66 78 66 73 74 78 76 71 62 61 63 59 63 65 65 65 61 63 51 48 77 70 76 71 69 73 66 73 50 85 175
87 35 43 45 45 48 50 51 52 51 51 52 49 45 44 28 51 86 127 34 29 30 84 128 87 95 77 67 90 116 91 81 111 115 78 76 114 86 64 85 107 102 70 80 85 84 93 95 105 109 108 108 115 113 140 100 56 75 69 70 79 76 80 75 78 74 66 58 60 58 57 64 62 66 62 60 57 47 45 75 69 75 73 71 73 68 71 61 62 182
85 36 44 44 47 46 48 47 47 49 51 51 48 46 47 28 41 92 133 38 28 37 61 99 63 68 66 74 91 100 89 90 100 99 97 102 112 109 113 119 125 129 128 135 135 135 136 134 135 135 133 133 131 130 154 98 52 75 69 74 74 73 73 71 78 69 60 57 61 62 63 66 63 67 59 60 58 57 60 71 65 73 74 71 72 69 68 68 49 181
83 38 45 45 48 46 48 44 46 49 53 49 49 46 47 35 29 87 130 48 24 41 41 132 126 122 127 127 128 125 127 129 129 131 133 133 131 133 134 133 129 131 132 132 131 134 134 135 136 137 140 141 143 142 166 100 47 75 61 50 56 53 56 71 75 60 57 60 66 67 64 66 64 66 58 61 58 71 63 69 61 71 76 70 72 71 66 73 43 179
80 38 44 46 47 46 47 47 50 52 51 51 50 47 46 40 20 79 131 55 19 45 26 146 150 132 133 132 131 132 134 132 133 135 136 137 136 139 141 143 143 144 143 142 142 140 135 135 132 126 119 112 106 99 106 77 51 77 68 34 46 45 55 84 64 54 59 62 68 66 66 65 65 63 61 61 69 76 54 64 57 68 77 71 71 74 64 73 45 173
76 44 46 45 47 47 49 48 50 51 50 49 50 47 48 46 19 64 129 73 16 48 19 122 160 140 143 143 144 143 140 138 138 133 127 121 122 116 113 107 100 95 91 86 79 72 69 70 67 59 58 58 57 55 55 70 61 70 61 41 56 64 84 82 53 59 65 67 72 69 70 68 67 66 67 72 78 64 55 62 51 61 79 72 69 75 64 70 53 155
75 46 47 46 48 48 49 50 51 50 50 49 50 49 48 47 27 43 122 81 17 48 29 80 132 102 99 92 88 83 81 76 75 61 78 76 91 50 55 56 55 55 61 63 60 58 59 60 61 62 64 61 61 62 60 70 67 62 52 45 67 92 87 64 56 67 71 78 75 66 73 68 71 71 72 78 70 57 62 57 51 56 79 75 68 75 66 67 63 130
73 46 47 46 48 47 47 48 51 51 51 49 49 49 47 48 35 29 112 87 18 46 39 55 75 57 58 55 57 60 61 59 62 47 87 79 98 46 65 66 66 68 71 69 69 65 62 61 67 55 58 69 72 68 70 81 76 53 54 52 62 78 59 61 66 75 77 76 68 59 69 66 71 77 79 67 59 60 63 58 50 50 72 75 68 76 67 65 70 115
73 45 46 46 48 47 49 47 49 51 50 49 49 50 49 49 43 23 95 94 23 43 43 51 79 67 57 56 56 57 58 62 63 45 89 85 91 57 66 65 67 69 65 64 70 71 74 99 113 79 92 90 100 95 91 99 108 50 49 54 62 60 49 59 77 79 67 50 62 64 72 70 78 75 64 54 61 63 62 61 52 57 59 73 71 76 71 64 71 115
75 45 47 48 49 48 48 47 49 53 50 49 49 50 48 48 48 22 82 92 24 43 46 46 76 48 70 105 80 81 87 96 98 78 94 98 90 91 90 81 86 78 70 66 86 87 75 98 108 109 137 87 92 104 98 89 125 80 43 60 72 66 52 52 71 65 50 50 65 69 78 82 75 57 55 60 67 63 57 59 65 64 68 69 70 75 73 63 70 118
75 47 46 48 48 49 48 49 51 53 50 49 48 52 50 49 50 26 66 99 26 42 47 41 79 54 107 143 110 109 94 94 112 103 98 106 78 89 94 81 93 93 89 76 97 91 70 69 68 97 126 81 84 98 105 91 97 109 94 48 70 65 57 54 58 58 53 56 77 81 76 55 54 57 63 69 68 58 58 55 78 64 73 71 69 74 75 64 67 120
75 47 46 49 48 49 48 50 50 51 51 49 49 51 49 49 49 32 54 103 27 43 45 35 91 85 92 116 98 107 80 79 113 102 100 103 73 78 90 79 91 101 95 76 101 95 83 88 81 75 78 90 90 91 112 103 74 98 132 38 52 56 56 54 53 56 55 56 67 65 53 48 63 66 68 71 61 56 57 75 60 76 71 71 68 74 77 65 66 123
95 78 79 79 81 83 80 83 85 86 84 82 82 84 83 83 83 70 81 135 62 73 74 69 139 153 116 141 147 153 145 155 174 157 167 147 133 141 146 140 136 141 140 126 157 148 149 165 161 131 132 157 148 157 180 181 155 134 110 116 94 90 91 89 97 96 93 94 92 94 88 98 114 110 110 103 96 98 105 124 112 127 112 116 115 116 125 117 115 154
