P2
# Filtro High-Boost
90 90
255
77 66 66 66 66 66 65 67 67 67 67 69 68 68 68 70 70 68 70 70 70 70 72 70 68 70 68 68 69 71 71 69 69 69 71 73 71 72 74 75 76 77 77 75 74 77 77 79 75 75 76 78 78 76 78 78 78 76 78 76 76 76 78 76 76 76 76 74 77 75 73 75 75 75 74 78 78 76 77 77 77 76 78 76 76 78 78 75 77 87
64 49 49 49 49 49 51 50 50 49 50 52 51 53 51 53 51 51 53 52 54 52 52 52 52 53 53 52 54 55 53 55 53 53 55 55 53 54 56 58 54 39 24 24 26 25 24 41 56 59 60 57 57 57 57 56 58 58 59 59 57 57 59 57 59 59 57 59 57 58 58 56 56 58 59 59 57 58 58 56 57 57 57 59 57 57 57 58 56 75
66 51 49 49 51 51 51 52 50 50 50 52 51 53 51 53 51 51 51 52 52 54 50 52 54 52 52 54 53 55 55 55 55 55 52 54 54 56 57 44 20 48 117 159 168 144 105 50 20 44 60 60 57 60 60 60 60 60 58 58 60 60 58 60 59 57 57 59 59 57 56 56 58 57 59 60 59 56 54 57 59 57 57 57 57 57 57 57 57 76
67 51 49 51 51 48 50 50 50 50 52 52 51 53 52 52 54 52 52 54 54 52 54 54 53 53 54 51 53 55 54 54 54 56 56 55 56 55 33 28 125 233 255 255 241 232 229 197 128 23 32 59 61 60 60 58 60 60 60 60 58 58 58 60 57 57 59 59 57 57 57 59 57 59 56 60 60 55 57 59 59 59 59 59 59 57 57 57 59 78
66 49 49 49 52 50 50 50 50 52 51 51 51 53 52 53 55 55 53 53 53 53 53 55 55 55 53 55 55 54 54 54 54 55 57 57 59 37 35 183 255 240 196 181 177 184 191 178 215 199 33 32 60 60 59 59 59 59 59 60 58 60 60 58 59 57 57 59 59 59 59 59 58 60 58 60 60 58 59 58 59 57 59 59 59 59 57 57 59 78
66 49 51 51 50 52 52 52 52 51 53 51 51 52 54 55 55 55 55 55 53 55 53 55 55 54 54 56 56 54 56 56 55 55 56 59 47 25 174 255 216 191 174 176 180 182 181 185 185 238 197 16 47 62 59 61 61 61 59 60 60 60 58 58 58 57 57 59 59 57 58 58 60 60 60 60 58 58 60 58 59 57 57 57 58 58 60 58 56 76
67 49 49 49 50 50 52 49 51 55 52 52 52 54 53 55 54 54 54 54 54 56 54 52 54 54 56 56 56 56 56 57 55 57 57 57 23 123 255 193 154 183 197 190 191 189 181 180 182 181 255 145 10 61 60 61 61 59 59 59 59 59 60 60 60 60 58 58 58 58 58 60 58 58 60 60 58 58 60 58 59 59 57 56 60 61 60 60 60 79
69 52 50 51 50 50 52 53 51 52 52 54 53 54 56 57 57 57 58 57 56 54 56 56 56 54 56 55 55 53 55 55 56 56 59 42 47 225 223 178 178 168 147 170 195 175 185 187 183 185 194 233 43 43 61 61 61 61 59 61 59 61 59 57 60 60 60 58 60 60 60 59 59 60 58 58 58 58 60 58 58 58 58 60 61 59 59 55 59 81
67 52 52 50 50 52 51 53 52 54 53 56 56 50 33 22 19 18 22 41 58 59 56 55 55 55 55 55 57 55 57 56 58 59 58 26 124 215 167 175 184 185 173 148 149 151 139 166 187 185 164 224 123 17 60 59 60 62 60 59 61 61 61 59 59 59 59 59 59 59 59 61 61 61 58 58 58 60 60 58 58 59 61 61 61 61 61 61 61 80
67 50 52 50 50 52 51 51 52 54 54 54 33 20 67 118 144 137 98 36 9 45 57 56 55 57 57 57 59 56 56 58 57 59 58 29 176 233 184 168 187 190 202 178 166 179 172 149 179 182 176 202 183 19 58 60 61 62 60 61 59 59 61 61 61 61 61 59 59 61 59 59 61 59 59 60 58 58 60 59 61 61 60 60 60 60 62 60 60 82
69 52 52 52 52 51 53 51 52 54 51 25 52 159 255 255 235 254 255 245 122 9 40 57 55 57 55 54 56 56 56 57 57 59 48 51 202 198 223 202 179 195 187 195 186 178 178 187 174 178 185 186 208 36 49 61 60 60 60 60 61 61 61 60 60 60 60 59 59 61 61 61 60 61 59 61 59 59 59 61 62 62 60 62 60 60 60 60 62 82
68 51 51 51 51 51 51 52 54 55 24 62 206 246 239 215 228 222 221 228 255 168 5 46 58 57 58 56 56 58 59 59 58 62 41 69 212 182 187 214 216 167 178 181 199 177 160 162 183 182 177 193 218 49 43 61 63 62 62 62 60 60 58 60 62 62 62 61 61 59 60 62 60 62 60 61 61 59 61 60 60 61 61 62 60 62 64 61 63 84
70 51 53 53 53 53 52 54 54 36 46 199 240 236 182 135 165 172 184 200 195 255 127 7 57 57 56 58 58 57 57 60 58 61 39 77 212 186 189 170 199 212 169 187 195 186 186 154 156 179 175 191 217 57 41 61 60 60 61 62 60 62 62 60 62 62 60 60 60 60 62 61 61 63 62 60 60 60 62 62 63 63 61 61 61 61 61 63 61 81
70 53 52 52 52 52 53 56 54 19 137 244 207 185 147 138 163 173 155 176 205 203 255 41 35 59 56 58 57 59 57 58 62 63 39 80 202 177 186 174 174 218 218 173 176 196 203 184 151 183 188 183 207 54 44 62 60 62 63 61 61 62 62 63 64 62 64 63 62 62 61 63 63 63 63 60 60 62 62 61 61 63 63 63 63 63 63 63 61 86
70 52 52 54 54 53 55 56 37 54 220 212 188 185 225 217 193 193 189 179 196 189 247 145 10 57 56 56 55 59 60 58 59 60 45 64 206 171 184 175 178 176 218 214 176 190 186 180 180 168 186 190 191 38 52 63 62 61 61 63 64 61 53 39 29 27 30 45 59 65 62 63 62 62 63 61 61 61 61 61 61 63 62 62 62 62 63 63 61 80
72 52 54 54 55 55 55 55 20 112 239 186 166 160 235 219 145 203 209 203 172 190 216 200 17 53 60 59 59 60 59 59 61 61 54 43 211 173 179 184 177 180 167 215 228 179 177 170 190 190 162 199 163 22 60 62 63 61 61 63 47 29 44 83 128 132 107 60 19 35 63 66 62 62 62 63 63 61 63 63 62 62 62 62 62 64 61 59 62 82
70 52 52 54 53 55 55 54 18 157 200 168 203 162 162 252 180 144 170 187 161 184 192 224 41 43 60 58 58 57 61 63 61 61 61 15 191 203 167 198 184 177 182 165 180 214 193 175 207 213 178 211 102 26 64 61 61 63 61 37 41 133 214 223 234 249 255 237 182 52 26 61 63 64 62 62 62 62 62 62 64 64 64 64 64 62 61 61 61 82
70 52 52 52 53 54 56 54 26 181 219 166 221 222 173 224 209 196 207 193 193 174 189 230 64 37 61 60 59 61 61 60 58 60 65 31 106 250 152 182 186 173 173 179 153 169 213 197 203 192 185 189 35 49 63 61 63 63 37 64 211 255 219 193 186 189 204 196 244 229 78 24 61 63 62 64 62 64 62 64 63 64 61 64 62 62 63 63 61 82
70 52 52 53 55 54 57 57 28 182 197 164 162 209 222 164 200 186 203 210 183 198 194 225 66 37 62 59 61 61 60 60 62 62 62 59 16 202 198 147 179 195 185 182 179 173 181 214 169 166 201 93 24 63 63 63 64 43 65 196 255 201 168 150 191 190 193 196 213 206 218 75 31 67 66 64 64 62 62 65 63 63 63 66 62 62 62 62 62 83
71 53 53 55 54 53 57 59 23 172 201 178 200 154 201 213 249 182 182 215 203 191 181 213 50 43 61 59 59 61 60 60 62 61 63 66 41 51 241 180 149 174 191 194 189 178 176 167 188 205 127 14 58 66 62 63 55 44 156 218 159 176 192 180 150 181 186 183 197 189 187 198 40 53 64 63 64 62 64 64 65 65 63 62 64 64 64 64 62 85
70 54 56 56 54 57 58 59 25 139 216 160 209 178 199 191 211 218 185 214 198 178 196 189 26 54 60 61 59 59 61 63 62 64 64 64 66 32 65 210 195 155 154 161 161 161 166 180 213 126 10 51 66 64 64 64 37 113 202 233 205 165 191 206 164 166 201 194 179 191 172 206 126 30 67 66 64 62 62 62 61 63 63 64 64 64 60 64 65 86
76 55 57 55 55 58 57 59 34 79 223 168 166 176 196 183 186 237 166 184 192 191 220 132 18 63 61 61 61 57 43 40 41 39 34 41 61 67 37 37 137 205 198 193 190 201 212 176 65 2 53 68 64 63 64 56 45 172 198 196 240 199 193 206 203 155 154 182 190 200 186 172 171 37 58 64 61 63 63 65 63 65 63 63 63 63 63 65 63 84
73 57 56 56 56 58 59 59 54 29 195 217 173 180 196 210 174 206 210 171 203 214 205 43 41 64 62 62 47 43 87 125 147 148 136 95 35 46 66 57 26 39 75 99 101 84 39 0 19 66 68 65 63 65 65 39 87 206 206 195 187 230 191 201 201 180 164 148 158 201 189 177 208 80 40 65 65 65 65 65 63 65 63 65 63 63 67 65 65 86
75 56 58 58 57 57 58 60 60 29 84 221 180 188 168 185 184 174 208 186 222 226 103 21 63 61 61 43 61 139 158 122 100 105 126 177 172 56 37 66 67 56 35 17 14 19 36 65 75 68 64 66 64 64 66 35 129 197 200 197 167 220 173 169 190 191 184 188 165 183 193 178 189 124 31 67 64 64 62 63 65 65 65 64 66 64 64 64 64 86
77 58 57 57 59 60 60 59 62 58 25 113 202 184 168 155 153 156 182 207 211 117 10 53 62 62 43 69 154 123 97 85 94 113 77 87 148 197 54 43 68 68 72 72 75 74 70 68 68 63 65 65 65 68 67 35 163 197 190 183 172 198 209 163 175 202 189 195 221 189 186 175 173 138 30 67 66 64 66 66 64 62 66 63 66 66 64 64 66 87
74 59 59 60 60 58 59 61 60 61 56 26 89 179 193 206 194 179 180 182 80 13 54 64 61 54 48 160 126 87 125 129 144 135 111 91 96 150 204 29 60 65 64 63 65 63 65 63 65 67 67 65 67 66 64 38 183 201 186 179 184 188 253 175 191 194 187 187 214 189 191 185 191 153 27 68 66 65 65 67 65 65 67 67 67 65 65 65 65 89
76 57 58 60 59 57 61 61 63 64 65 62 36 35 76 109 117 126 99 27 17 60 64 62 60 40 108 151 93 127 153 152 133 122 139 124 104 89 204 116 31 67 64 66 67 69 67 65 65 64 68 66 65 64 64 39 182 180 179 172 181 174 220 222 163 202 208 173 168 190 207 188 183 157 29 66 67 68 68 69 71 68 67 66 64 67 67 67 67 89
78 58 60 61 59 63 63 62 50 39 38 33 32 35 36 29 22 18 27 52 67 61 63 64 55 50 144 112 122 164 165 122 116 160 154 138 119 107 126 180 30 63 64 65 67 66 64 67 69 66 68 66 69 66 65 30 184 183 178 186 184 188 175 243 193 207 210 202 159 181 208 188 203 138 28 71 68 58 45 38 40 53 66 70 69 66 66 66 67 89
78 58 59 61 63 62 49 28 51 87 99 130 114 72 25 37 64 68 68 63 62 61 61 62 46 85 155 102 118 135 162 144 134 168 175 142 155 131 112 184 58 54 67 67 67 66 68 66 66 66 68 66 66 65 65 22 186 190 155 188 174 188 170 229 221 181 191 193 181 181 192 196 231 100 38 60 32 51 89 111 101 62 26 47 68 67 66 68 67 85
77 59 61 61 61 37 42 136 213 194 180 220 202 200 175 71 14 50 63 62 63 61 61 66 38 117 131 98 126 135 122 129 179 130 161 146 155 187 160 168 86 44 69 67 66 66 66 68 68 66 66 66 66 68 70 32 132 237 135 194 177 177 185 193 239 190 174 193 199 168 195 200 209 55 32 40 135 220 233 236 224 218 175 52 25 67 69 66 67 85
79 61 63 61 34 61 181 209 183 181 229 187 171 211 232 248 119 17 50 63 63 63 64 66 33 138 136 104 129 182 126 122 137 129 152 155 136 186 166 145 93 41 68 67 66 66 66 66 66 68 68 68 68 67 70 60 44 253 146 178 191 177 182 175 199 234 185 199 197 173 201 223 156 6 46 188 255 244 255 255 236 221 237 255 81 21 66 67 67 85
80 61 60 37 58 208 195 167 193 212 202 179 230 203 188 208 234 128 14 59 63 63 62 64 36 133 142 104 118 163 157 127 124 151 139 142 143 175 109 158 93 41 68 66 68 68 68 66 68 70 71 69 69 69 71 70 23 156 250 143 178 197 192 195 178 230 206 218 242 208 201 220 51 11 182 255 254 235 255 255 239 223 197 235 255 56 34 69 67 87
80 63 52 34 187 255 232 199 197 192 194 230 213 195 188 199 197 240 83 26 64 61 62 66 38 131 151 87 105 112 128 176 113 137 147 136 149 152 133 192 72 50 68 66 68 67 66 68 67 56 43 35 40 39 46 61 63 29 226 207 143 192 204 206 195 199 233 208 198 201 222 105 0 117 255 255 218 255 214 251 255 229 225 187 255 246 12 59 65 87
80 62 31 97 234 234 236 213 161 171 219 212 206 250 178 196 196 206 195 18 55 64 62 65 42 96 179 95 121 130 124 175 122 140 134 113 132 162 157 155 37 63 69 68 67 68 70 56 40 56 109 138 146 124 92 50 38 41 44 223 225 160 160 176 180 150 212 177 168 207 110 8 40 241 255 244 255 189 156 175 165 192 236 231 188 255 99 29 68 85
81 51 50 178 194 204 207 232 194 196 209 193 253 221 178 196 200 186 223 77 33 64 64 64 56 54 221 99 116 114 129 144 154 159 131 121 132 139 136 121 32 71 68 67 68 69 49 43 124 185 223 223 209 205 219 200 107 38 32 30 152 218 196 178 162 161 197 213 169 80 19 33 106 255 244 203 204 179 227 209 177 255 255 248 186 255 201 12 68 87
82 32 110 217 181 185 170 235 235 201 197 228 196 117 113 154 187 194 220 141 18 64 64 65 65 24 163 170 75 112 109 149 176 126 101 112 134 114 172 50 54 67 67 67 69 46 60 170 207 205 195 186 183 178 196 198 212 158 41 45 20 45 108 147 155 163 135 87 26 24 73 34 160 255 235 185 178 194 210 203 201 180 148 228 220 216 230 25 62 88
81 32 152 209 188 219 214 215 255 234 219 162 136 169 192 222 190 201 223 186 22 61 64 65 65 55 46 222 133 109 102 111 118 114 121 105 92 164 98 31 72 68 69 69 54 50 180 218 177 188 173 171 171 161 168 189 192 222 159 35 68 55 22 7 8 7 7 22 61 77 74 34 190 255 224 185 186 219 218 228 255 230 190 177 212 187 230 51 53 88
79 37 169 194 168 171 201 176 227 219 172 175 210 226 194 200 180 199 201 190 24 56 64 66 66 68 39 67 223 149 87 82 95 102 97 109 166 115 19 66 67 69 71 67 36 166 213 176 166 168 173 185 191 187 183 174 197 193 220 105 35 75 78 79 78 76 79 79 76 71 67 39 212 233 219 204 224 255 255 248 251 250 234 163 182 212 230 56 52 89
74 47 194 191 179 178 188 148 135 158 151 223 254 196 207 207 153 195 199 205 33 56 66 64 65 68 66 36 54 174 187 141 141 140 154 164 86 23 64 70 69 68 71 49 76 219 178 167 173 185 192 197 190 190 184 172 161 160 179 187 40 59 67 69 71 69 69 70 70 70 71 33 194 245 247 240 255 226 231 214 191 168 201 255 189 212 216 48 56 88
74 45 187 184 181 186 167 199 177 158 176 173 158 166 207 229 191 195 204 187 26 58 66 66 65 69 67 69 51 29 66 100 116 98 63 30 35 69 70 67 68 70 70 39 150 209 175 176 188 185 192 194 171 151 140 141 145 172 160 211 106 39 71 70 69 71 69 71 70 72 72 28 188 255 197 228 234 196 201 178 218 210 208 232 221 199 191 36 66 91
75 41 200 169 182 183 164 152 169 198 190 173 181 216 177 231 202 187 201 164 12 64 63 64 65 67 67 68 71 71 55 41 33 34 48 68 74 67 67 69 68 71 62 55 187 179 190 204 193 175 169 145 126 146 156 175 189 184 160 166 155 35 68 70 71 69 71 70 70 72 74 29 154 255 193 225 213 182 193 182 243 232 216 254 219 209 142 30 71 90
81 29 204 183 173 179 207 184 176 169 188 187 198 179 154 150 191 181 197 147 18 68 65 64 68 67 63 53 47 48 58 69 75 75 70 68 67 67 67 69 70 71 50 88 222 185 188 182 163 128 123 146 192 201 192 193 181 182 171 137 178 44 62 71 71 71 71 70 72 72 73 50 74 255 201 195 243 253 193 232 201 203 239 255 204 202 64 50 71 87
82 17 163 197 149 174 245 243 199 190 185 187 182 155 194 205 180 178 214 82 32 68 66 67 58 37 42 67 88 84 55 31 39 63 69 68 67 69 67 68 68 71 47 107 206 179 169 142 128 174 206 199 200 200 179 185 175 195 220 193 210 60 55 69 71 70 68 72 72 70 72 72 27 181 255 189 180 247 221 223 185 233 254 239 211 120 32 69 69 91
85 35 95 255 147 150 211 231 192 211 198 186 196 191 198 186 178 190 204 25 55 68 65 43 45 119 183 212 220 219 226 191 94 29 52 70 69 71 68 68 70 73 43 128 177 135 137 163 172 190 189 191 171 180 155 186 218 183 151 170 205 66 52 70 71 72 72 72 71 71 71 76 58 43 209 245 190 199 248 237 255 249 220 221 154 27 57 71 70 93
84 60 18 225 192 139 182 238 189 202 195 210 229 235 221 179 178 215 95 18 71 66 39 78 172 216 182 136 132 116 139 203 222 170 41 46 70 69 68 68 69 73 40 126 195 188 192 181 199 180 169 171 160 174 205 209 169 134 176 193 189 52 57 70 69 70 72 71 73 71 71 73 75 50 37 157 235 219 200 206 215 210 211 148 37 52 73 70 69 91
83 66 33 71 255 154 136 193 187 181 179 185 174 191 198 170 214 161 5 61 68 43 80 201 196 168 143 166 167 173 146 128 175 224 189 37 52 70 70 70 69 75 45 114 186 164 203 173 191 175 162 180 184 178 208 138 149 198 195 190 183 46 59 69 69 70 71 71 71 73 73 71 71 74 59 29 66 138 187 191 176 149 75 24 54 72 71 71 69 92
81 61 63 18 123 249 152 164 232 203 176 172 200 208 171 203 179 20 41 73 53 59 190 181 185 161 189 204 189 179 195 138 157 174 226 164 24 65 69 70 71 72 53 88 182 154 206 215 205 216 210 204 188 199 187 155 192 189 177 197 178 36 66 70 71 72 73 73 73 71 71 73 71 73 72 73 50 24 26 33 28 24 41 70 73 71 71 69 69 94
82 63 65 59 19 96 210 179 193 240 243 207 190 197 194 141 11 32 74 68 36 151 193 166 177 171 163 156 168 155 201 167 141 181 183 237 91 38 71 68 69 71 64 59 201 174 243 199 134 142 109 194 234 221 165 163 189 180 170 203 132 34 72 69 69 72 73 72 72 75 73 73 71 71 73 73 75 79 75 70 73 78 75 70 71 71 69 69 71 92
81 61 62 66 66 33 48 137 169 190 209 188 182 134 42 0 45 74 70 51 77 204 151 170 159 164 167 193 176 154 185 181 137 166 191 206 182 27 65 69 71 71 71 31 176 179 143 130 134 152 143 144 166 126 139 182 186 177 167 191 55 52 71 71 70 70 73 73 72 72 72 71 73 72 74 72 74 72 73 75 73 73 72 70 71 71 71 69 69 94
83 62 64 65 67 66 52 32 34 44 43 36 19 6 35 72 74 70 68 37 139 187 151 175 151 179 208 204 189 172 185 176 158 142 187 176 218 65 50 72 69 71 72 52 76 213 150 172 185 196 177 159 172 174 183 183 183 168 198 137 25 71 72 71 70 72 71 73 72 72 72 72 74 72 74 74 74 72 72 72 73 71 70 72 70 69 69 69 71 94
83 64 64 63 65 65 67 71 66 57 51 51 61 76 76 69 67 69 66 43 176 178 167 181 214 201 183 184 199 191 193 212 229 169 167 178 233 118 32 71 69 71 69 72 32 142 210 163 173 173 163 189 185 181 170 172 173 195 176 34 57 73 70 70 70 72 71 73 74 74 72 72 72 72 72 72 72 72 72 71 73 71 72 72 72 71 69 71 72 95
83 62 62 64 63 63 64 64 66 70 72 72 71 69 68 68 69 70 59 60 206 171 172 171 179 201 155 190 206 191 170 156 194 175 177 180 213 146 26 72 69 71 69 72 66 37 151 187 142 146 146 174 176 177 164 157 192 191 49 41 75 71 70 72 72 71 71 74 72 73 73 74 72 72 74 74 74 74 74 72 70 73 71 70 70 70 70 70 70 95
81 63 63 62 62 65 65 62 66 66 68 67 67 67 70 68 68 70 53 74 191 159 179 161 141 187 213 178 176 208 205 196 185 166 183 186 189 163 29 71 71 71 68 68 73 60 36 108 196 200 177 172 160 176 190 208 166 30 38 74 71 70 72 72 71 71 73 74 75 77 77 75 75 74 72 73 71 74 74 76 76 71 71 71 73 73 71 72 72 93
82 61 61 63 62 63 65 64 66 65 66 70 67 69 68 68 68 70 52 84 184 146 177 183 170 181 178 141 170 196 164 186 188 176 181 187 200 157 31 71 69 72 72 72 72 73 71 40 61 126 160 189 188 178 133 67 13 51 79 73 70 69 71 71 71 71 75 71 61 54 51 50 55 71 77 76 75 73 72 74 74 72 73 71 71 73 73 71 72 95
80 61 61 62 64 65 65 64 64 65 65 66 69 68 68 68 70 70 54 78 191 153 187 178 179 195 163 193 220 175 141 157 209 177 171 180 202 148 28 71 71 72 70 70 70 72 72 76 58 29 16 22 25 14 12 40 74 78 70 71 73 75 73 73 73 76 58 46 64 92 108 104 79 39 43 73 76 73 74 72 72 72 71 73 73 73 71 71 71 95
83 63 62 64 63 63 63 64 66 67 65 68 69 68 70 68 70 69 58 66 199 153 197 196 167 208 206 220 179 151 176 164 157 196 175 182 209 125 32 73 69 69 70 72 72 70 71 70 75 81 80 72 70 79 83 79 74 73 73 73 73 74 72 73 71 47 58 141 226 255 255 246 245 198 86 30 69 76 73 74 74 74 70 72 72 70 73 73 73 97
83 62 64 65 63 63 65 64 64 67 66 68 69 68 70 68 70 72 65 47 191 144 173 188 193 179 139 136 156 177 180 182 138 200 173 183 203 68 47 72 69 71 70 72 72 72 72 71 73 72 72 75 74 74 72 72 73 71 71 71 71 72 73 74 49 69 201 255 255 215 157 156 171 245 255 120 24 71 76 73 74 74 72 72 76 74 70 74 74 96
81 62 64 65 63 65 65 64 64 65 66 66 67 70 71 69 69 69 70 31 178 185 146 182 189 161 161 173 198 174 187 210 172 160 171 171 170 29 65 71 69 70 72 70 71 71 71 69 73 73 72 74 75 73 74 72 71 73 73 71 75 71 73 57 58 188 255 255 152 136 172 186 167 142 224 255 101 33 78 75 73 70 74 72 74 73 75 74 72 96
81 62 64 63 65 64 64 64 66 67 66 68 70 71 69 69 71 71 72 50 91 217 132 175 203 179 172 192 169 167 183 211 180 147 155 196 93 36 72 69 71 70 72 72 71 73 71 71 69 71 71 72 73 75 75 74 72 72 72 74 70 73 72 43 136 236 255 225 167 199 221 221 235 230 185 252 255 39 62 76 73 74 74 72 74 73 75 73 72 98
85 64 63 63 64 66 66 63 67 67 66 67 68 71 71 71 71 69 69 71 30 186 177 142 169 159 179 200 170 178 172 172 179 179 187 169 25 66 72 71 70 72 72 71 71 71 73 73 73 71 73 73 74 75 75 73 73 74 72 72 74 73 60 68 207 243 255 158 192 209 200 216 220 235 205 197 255 134 30 77 75 73 73 73 75 73 74 74 74 98
84 65 65 62 66 65 67 67 65 64 68 67 67 70 69 71 71 71 70 71 55 59 217 150 134 153 182 183 185 180 171 179 174 187 181 33 48 73 72 70 70 72 69 71 73 71 73 71 73 71 71 70 72 75 75 75 75 75 73 73 74 74 46 114 225 234 238 173 249 241 212 197 202 222 237 209 248 231 25 72 76 73 73 75 73 72 74 72 70 96
86 64 66 66 66 65 67 67 66 68 68 69 67 68 71 69 69 70 72 72 73 44 71 214 175 124 181 194 184 175 184 177 185 181 43 34 75 73 74 70 70 72 72 73 73 71 73 71 71 73 72 74 73 75 74 74 75 71 75 75 73 73 42 153 233 233 224 195 232 231 234 222 224 250 224 210 218 255 52 63 76 73 74 74 74 72 74 72 73 97
86 64 64 66 64 65 67 66 66 68 67 65 69 70 71 71 70 70 69 71 72 74 48 58 158 170 167 171 173 187 188 183 123 18 37 79 73 71 70 72 72 70 72 71 71 73 71 69 71 73 74 75 74 74 74 74 74 75 73 75 73 74 41 175 220 228 234 252 217 174 245 235 228 246 249 216 210 255 71 56 77 74 72 72 75 72 73 73 73 97
84 64 66 68 64 65 67 66 68 67 69 67 70 69 70 70 72 73 73 73 71 73 74 60 38 72 97 113 133 129 83 37 13 58 83 77 74 72 75 72 72 70 70 73 73 71 71 71 73 72 72 75 74 82 74 74 76 76 73 75 77 74 42 198 222 226 213 178 179 212 235 230 210 247 247 208 211 247 77 54 76 74 71 69 71 71 71 71 71 97
86 64 66 64 65 67 66 66 67 67 71 70 68 71 74 73 71 73 72 72 72 72 72 73 74 62 44 34 27 22 29 60 80 66 46 36 36 41 56 71 73 73 72 71 71 73 73 71 71 72 74 73 74 80 74 76 76 74 75 73 75 74 36 190 222 227 209 185 234 255 226 243 210 216 232 215 212 232 65 56 74 72 73 71 71 73 73 73 73 97
88 66 66 66 65 67 66 67 69 68 68 68 69 72 71 73 73 72 74 74 72 74 72 74 74 75 81 80 80 83 82 66 44 61 108 138 139 116 69 31 46 72 73 70 73 73 71 71 75 74 72 73 74 74 74 74 76 74 73 73 75 77 29 187 240 209 224 233 245 222 241 248 215 213 230 214 219 212 45 68 73 72 73 71 71 71 71 71 71 95
85 64 66 63 65 68 67 68 70 68 68 71 70 72 70 71 73 73 74 74 74 74 74 72 74 73 73 73 72 73 48 58 135 205 247 239 235 250 234 182 72 31 66 73 73 72 71 73 72 72 74 73 75 74 72 76 76 76 76 74 72 77 37 137 255 189 224 225 212 230 255 254 211 223 212 196 223 158 31 74 75 73 71 71 73 74 74 72 73 95
87 66 66 65 68 67 70 70 71 71 69 71 70 72 70 72 71 71 71 70 72 72 74 72 73 73 75 74 70 46 80 180 199 189 189 184 193 195 181 226 228 104 30 67 74 74 74 72 72 72 72 73 75 74 76 74 74 76 76 76 74 78 65 46 250 224 215 220 221 237 255 252 205 223 189 193 227 78 47 75 72 73 71 73 73 72 74 74 74 94
87 65 65 66 68 67 70 69 69 70 70 70 70 70 70 72 71 73 71 73 73 72 72 74 75 75 75 75 51 80 195 210 182 147 198 213 206 186 175 187 195 239 104 34 73 73 72 74 74 74 74 75 75 74 76 74 74 74 74 74 74 76 78 35 131 255 210 212 191 176 206 229 205 214 212 245 158 31 70 73 72 72 71 73 71 73 70 72 74 96
89 65 67 66 67 68 72 69 71 72 72 72 72 72 70 73 73 73 75 73 73 70 72 75 73 73 75 66 59 189 201 190 200 149 154 187 199 182 167 209 213 181 212 65 49 76 72 74 73 73 73 73 74 76 76 76 76 76 74 76 76 74 78 71 29 175 255 207 178 188 161 196 233 195 234 191 39 57 76 72 74 74 72 73 71 73 73 71 71 96
90 64 68 68 67 68 70 69 72 72 70 70 71 71 71 71 73 72 72 70 73 72 74 73 73 75 76 46 124 215 183 187 176 185 152 162 203 201 184 175 213 206 207 178 30 73 73 74 73 73 75 74 76 76 76 76 74 76 74 74 74 76 75 78 64 28 134 247 247 232 218 200 215 212 163 40 46 77 73 72 74 74 70 73 71 71 71 71 73 98
88 68 66 66 69 68 69 71 72 72 70 73 73 71 71 73 71 72 75 71 73 72 74 73 73 76 66 65 189 176 195 178 174 188 193 121 149 210 207 205 214 242 172 203 76 52 74 73 75 73 75 76 76 76 76 74 74 74 76 76 76 76 75 77 78 73 34 55 143 194 200 185 149 84 27 54 77 75 72 72 74 74 74 73 73 68 72 73 74 96
88 68 66 66 69 70 69 70 70 71 73 71 73 73 71 71 71 72 74 71 71 74 74 73 73 76 45 116 224 167 175 218 186 186 208 205 123 163 199 229 217 208 190 202 148 33 77 75 73 73 75 74 74 74 76 74 74 76 76 76 74 74 77 78 76 78 81 60 27 21 26 22 22 45 73 79 74 72 72 74 72 72 74 72 71 72 70 71 72 96
90 68 68 67 68 69 71 70 72 73 73 73 71 71 73 73 72 74 72 72 72 74 73 73 73 75 44 157 223 193 131 175 209 170 213 217 194 122 153 217 211 185 201 221 197 29 74 74 75 75 73 73 74 74 76 76 76 74 76 76 76 74 75 77 78 76 75 79 83 80 75 77 81 81 75 73 75 74 72 74 72 74 72 72 73 72 72 73 73 97
90 67 67 67 68 71 70 70 71 71 73 73 73 73 73 73 72 74 72 72 74 73 73 73 75 69 58 186 213 187 168 193 232 154 166 197 224 173 111 191 232 184 181 193 210 40 69 74 73 75 73 75 76 78 74 74 74 74 74 76 76 74 74 77 77 75 77 76 78 77 76 76 74 76 76 75 73 73 74 72 72 73 70 74 73 69 69 73 73 95
90 69 67 68 71 71 70 74 73 72 72 72 71 71 71 73 73 71 72 72 74 73 75 75 75 65 62 207 183 180 179 177 209 213 161 195 205 234 154 140 228 204 183 179 221 51 65 74 73 73 73 74 74 74 74 74 74 76 76 74 76 76 74 75 73 75 77 75 77 77 75 76 74 74 74 74 75 71 74 74 71 71 71 75 75 71 72 71 71 95
89 69 66 68 71 72 70 71 72 74 74 74 73 71 75 72 71 73 72 72 75 75 75 74 75 65 71 210 169 184 181 160 185 218 198 178 200 199 221 146 184 228 193 172 220 51 65 76 75 74 76 74 76 78 76 76 76 76 74 76 74 75 73 77 77 73 75 75 75 77 75 76 74 73 73 75 77 73 74 74 71 73 73 71 71 72 70 72 72 93
89 70 70 67 71 72 71 73 72 74 73 72 72 73 74 72 72 74 72 73 75 75 74 74 77 65 61 199 174 180 178 167 190 189 204 199 178 184 210 182 141 177 179 191 210 41 70 75 76 76 74 74 76 73 75 75 75 73 74 73 77 77 77 75 75 75 76 76 74 74 76 74 76 75 75 75 73 73 73 74 70 73 71 71 71 70 70 72 69 95
91 70 71 71 70 69 72 74 73 75 73 74 72 70 70 74 72 72 75 75 73 75 74 74 75 71 53 219 172 176 183 166 249 217 208 222 179 171 184 213 168 134 174 210 182 31 76 73 74 74 76 74 78 75 76 77 77 75 79 77 76 73 75 73 77 75 74 74 76 76 76 74 74 73 73 75 71 74 74 74 74 73 71 71 73 73 71 73 71 99
90 71 70 70 73 73 74 75 75 73 73 75 73 74 74 73 73 74 73 75 75 75 75 74 74 77 33 210 189 170 179 161 207 219 194 204 205 152 185 195 206 157 136 208 126 38 76 73 78 76 76 75 77 75 73 75 77 75 77 75 73 73 77 75 75 76 76 76 76 74 74 76 74 75 73 73 73 73 73 72 74 72 73 71 73 73 71 73 74 96
92 73 72 72 73 74 73 75 73 73 73 75 75 75 75 75 75 73 71 73 75 75 72 74 76 80 38 148 228 154 169 177 163 154 141 133 216 238 199 203 194 178 165 208 60 58 75 73 76 75 75 77 77 75 75 77 75 75 77 77 77 79 79 77 75 74 74 78 76 74 76 74 76 75 73 73 75 75 73 74 74 74 72 73 73 73 72 73 73 95
92 69 70 69 73 70 73 77 75 75 75 73 75 73 73 75 73 75 75 71 73 76 74 76 75 79 63 61 238 165 157 170 175 184 177 180 186 170 218 205 179 106 173 160 25 75 74 73 74 78 73 77 75 75 77 75 75 75 75 77 77 75 75 78 74 76 76 74 76 76 74 76 76 73 75 75 73 75 75 72 74 74 74 72 70 74 72 73 71 95
90 71 72 71 73 72 73 73 75 75 73 75 75 75 74 74 74 75 75 75 75 76 76 76 73 78 78 33 158 226 144 146 172 182 168 165 188 150 165 206 146 162 193 42 58 77 73 75 74 76 74 74 75 75 75 75 77 75 75 77 77 75 74 72 74 76 76 76 74 74 78 76 72 75 75 73 73 75 75 72 70 70 72 74 72 72 73 71 71 97
94 72 72 71 74 74 73 75 75 73 75 74 74 76 74 76 76 74 73 75 73 74 74 74 76 76 75 66 43 216 200 153 152 164 165 170 184 181 149 165 147 215 94 34 79 75 75 72 76 74 76 76 76 76 76 76 75 77 77 77 77 77 75 75 77 73 74 74 74 74 76 76 74 75 75 75 73 71 75 74 71 73 72 74 74 72 73 71 71 97
93 72 70 73 73 72 73 75 77 74 74 76 76 74 74 74 74 76 73 73 73 75 76 76 74 74 76 78 57 53 201 203 142 152 155 157 173 168 158 164 200 97 18 76 78 74 74 76 76 74 74 76 75 76 74 74 75 75 77 77 76 76 76 78 78 79 75 74 76 76 74 74 76 75 73 71 73 75 73 72 72 73 70 72 74 72 73 73 71 97
93 72 72 70 69 72 74 73 74 74 74 74 74 76 74 74 76 76 75 71 73 75 74 74 76 77 77 75 77 55 48 151 194 192 180 173 166 176 202 174 63 19 76 78 78 74 74 74 74 74 74 76 76 78 72 74 77 75 75 75 77 78 78 76 76 77 77 76 76 78 76 73 75 73 74 74 73 75 75 74 72 72 74 74 72 72 71 73 73 97
94 72 72 70 73 73 74 73 75 76 76 76 72 73 75 74 74 76 74 73 75 73 75 76 76 75 75 75 78 80 68 37 62 117 151 168 159 134 77 18 41 83 78 76 76 74 74 75 75 75 74 74 76 74 74 76 75 77 79 77 75 77 76 77 75 75 75 73 76 76 74 73 73 73 72 74 74 71 74 72 74 76 72 72 74 72 72 72 73 97
94 70 72 72 71 73 72 72 77 74 72 74 74 74 75 72 74 76 75 75 75 73 75 74 76 74 76 75 75 75 78 80 65 42 29 27 23 21 41 77 85 77 75 74 76 76 74 75 72 74 74 76 74 74 76 74 77 78 76 76 75 75 77 77 75 75 75 75 76 74 74 75 73 74 74 74 74 72 74 72 76 74 74 70 72 72 74 74 71 93
96 70 72 70 70 73 73 72 73 75 74 76 76 74 76 74 74 75 73 73 73 73 75 73 73 74 74 77 77 77 77 77 77 82 87 84 85 85 84 77 75 75 76 74 76 74 72 75 74 76 74 76 76 76 74 75 77 78 76 78 77 75 75 77 75 77 77 77 75 76 74 73 75 71 74 74 74 73 74 74 72 72 74 70 72 74 72 73 73 91
107 94 94 94 93 97 97 94 96 99 99 99 99 101 101 101 97 99 99 100 98 100 97 99 99 99 99 98 102 98 100 100 100 102 99 101 100 100 100 98 101 99 99 97 101 101 99 99 99 101 99 101 101 99 99 100 104 102 102 102 102 98 100 102 102 98 100 102 100 101 99 99 98 98 98 96 96 100 100 96 96 96 98 96 96 98 96 95 95 111
