P2
# Filtro High-Boost
90 90
255
113 80 81 70 77 86 81 80 72 71 77 71 73 67 65 68 73 70 70 73 65 67 75 75 67 72 72 72 82 76 84 79 73 78 69 74 72 80 74 78 87 81 64 67 64 64 67 68 74 62 63 64 67 70 69 67 67 66 65 69 72 75 73 63 64 64 59 59 59 62 63 67 58 65 67 61 59 66 72 74 67 63 58 57 58 58 63 64 56 74
98 55 47 45 50 50 57 52 50 56 47 41 45 45 50 52 51 35 44 49 46 41 47 60 58 54 51 50 53 48 39 45 60 57 44 48 47 51 48 60 61 49 52 57 58 74 83 77 57 59 72 60 48 46 41 33 35 37 39 51 39 44 50 37 39 49 43 42 44 48 58 52 42 54 43 41 43 44 43 37 37 37 30 35 38 34 34 36 36 57
89 52 45 50 37 37 48 49 47 50 43 35 38 41 48 45 50 45 61 65 59 41 42 46 44 52 55 53 58 60 64 61 53 47 47 62 58 59 72 62 53 39 58 71 66 87 66 60 63 64 70 62 56 58 48 47 49 50 51 59 35 37 48 41 48 51 47 49 46 45 44 42 52 60 50 46 38 39 38 42 37 40 36 38 38 36 34 38 44 60
90 55 48 47 37 45 50 48 44 41 36 35 38 40 50 49 52 51 59 62 61 43 44 51 44 48 52 56 54 66 62 63 61 61 54 67 65 64 74 92 100 88 100 100 94 97 98 93 93 93 89 92 77 70 59 55 59 65 42 42 36 49 44 32 40 33 40 39 36 40 37 34 37 40 49 49 40 42 39 37 36 38 40 41 37 34 35 41 42 59
103 60 59 59 44 55 51 39 43 51 51 43 48 40 42 40 41 55 49 46 48 49 57 57 54 44 48 53 51 62 54 54 58 60 55 49 78 109 108 85 50 21 8 0 0 0 0 0 0 6 22 49 73 101 98 64 52 47 51 51 48 59 47 33 37 33 40 44 41 37 37 43 44 39 42 39 41 34 40 37 38 46 50 44 40 39 36 38 37 62
83 47 55 56 64 70 51 46 44 57 54 53 45 39 41 37 43 47 48 46 59 48 50 46 52 59 50 52 57 58 53 62 59 48 56 78 90 46 0 0 0 0 0 0 3 3 0 0 0 0 0 0 0 5 43 85 108 70 40 36 49 52 39 35 41 42 46 45 51 42 39 37 37 46 54 43 46 49 39 39 41 52 58 51 43 47 38 33 43 70
104 47 47 57 60 55 49 47 35 48 52 62 53 46 44 52 62 40 41 48 65 53 49 47 50 51 41 60 70 65 60 61 69 82 95 51 0 0 0 8 24 20 13 12 11 9 10 7 11 12 12 10 4 0 0 0 53 107 80 66 57 50 49 46 55 46 50 51 63 64 61 47 57 76 71 52 39 54 53 55 45 50 49 45 39 46 46 46 46 65
97 56 46 39 50 51 58 55 46 59 64 63 44 44 59 65 64 58 64 57 60 42 50 44 43 42 55 62 55 51 57 59 87 91 16 0 0 0 0 0 3 0 0 0 0 0 7 7 8 10 8 8 9 11 9 0 0 14 103 105 82 72 60 56 55 51 51 49 45 37 42 57 71 69 70 48 38 54 62 52 50 42 37 53 51 49 53 57 47 61
104 79 78 71 75 70 67 69 59 62 58 43 32 44 64 63 58 60 70 66 70 61 66 58 48 53 66 63 60 69 76 91 105 17 0 0 0 0 0 19 31 18 5 6 7 5 3 2 2 5 4 9 10 8 6 9 7 0 0 94 107 73 56 54 56 49 63 62 54 45 53 55 64 58 52 38 54 65 48 49 67 52 42 50 54 52 59 58 56 68
95 66 86 89 77 58 54 69 76 69 55 50 55 56 63 59 63 62 67 68 68 66 56 64 60 53 68 75 71 77 83 105 28 0 0 6 48 92 97 113 114 105 76 46 33 34 20 14 13 11 9 7 10 11 10 8 10 10 0 0 100 87 71 61 64 55 75 74 76 80 74 68 65 62 62 49 55 58 46 40 55 58 55 50 59 46 63 71 75 79
116 68 62 58 65 53 47 50 56 77 83 72 73 66 69 73 76 66 77 64 68 61 52 65 71 70 78 80 78 84 103 46 0 0 37 99 147 143 140 144 148 148 145 129 114 102 65 38 25 15 13 14 11 10 11 5 9 12 9 0 9 105 87 61 57 59 61 50 53 72 64 73 72 64 66 53 56 62 62 52 39 47 53 43 52 46 50 63 65 82
131 67 76 71 59 59 75 65 61 82 72 65 79 69 67 66 68 57 70 76 78 69 73 84 66 58 55 56 85 100 61 0 0 24 77 144 142 128 136 141 139 135 135 134 135 116 81 42 25 19 19 16 14 11 7 5 8 10 10 6 0 59 116 88 54 37 44 64 75 75 67 74 76 73 58 55 62 64 74 67 53 61 59 58 62 66 65 66 54 87
130 76 113 99 64 94 81 114 124 108 81 84 97 75 76 74 86 63 70 83 79 74 71 84 75 64 63 65 82 63 0 0 3 40 66 99 118 113 112 115 115 116 115 112 94 58 38 26 26 26 17 10 12 15 10 6 10 10 10 10 0 1 111 54 37 40 54 83 45 68 72 88 60 84 62 58 55 56 61 61 65 79 78 70 75 73 68 70 64 87
120 83 106 92 76 86 67 110 85 90 91 101 122 102 104 120 106 80 100 81 78 86 75 63 54 60 73 127 79 0 0 1 6 40 68 86 100 94 89 82 84 102 108 98 65 35 37 35 31 30 29 27 18 12 12 11 9 10 11 7 4 0 30 20 34 49 38 43 15 29 76 54 46 82 49 69 59 62 66 56 63 75 75 72 74 67 74 73 68 83
96 48 56 55 49 41 34 90 89 80 131 122 82 58 49 114 135 134 124 69 72 103 80 63 87 99 115 138 9 0 6 0 28 60 82 109 121 115 104 94 94 123 152 157 139 110 99 93 81 65 47 42 23 11 12 8 9 9 8 8 7 0 15 35 23 37 26 21 23 34 55 27 50 43 25 103 78 77 83 79 76 73 66 61 77 82 87 78 61 75
105 31 12 26 56 48 38 31 69 72 85 73 52 48 38 38 117 86 113 140 134 117 120 116 131 133 174 96 0 4 8 0 24 73 104 111 102 112 126 122 141 137 98 65 65 84 86 90 81 65 44 38 24 15 15 7 9 10 10 7 8 5 12 31 10 25 37 40 35 31 17 31 53 35 26 70 81 73 75 73 71 72 70 64 76 65 66 41 41 61
62 33 31 27 33 46 49 29 37 51 32 37 51 36 31 34 9 0 13 54 121 102 99 109 105 112 131 33 0 11 11 0 25 70 50 12 0 16 102 119 101 17 0 0 0 14 14 11 11 10 5 9 16 15 17 7 7 10 10 11 10 6 10 23 12 21 24 28 36 30 28 30 46 24 34 10 56 87 73 69 70 77 77 86 82 56 51 31 45 49
52 38 31 32 60 47 30 39 50 42 27 30 23 17 21 20 20 38 28 0 25 102 113 107 68 72 79 25 0 13 12 1 0 0 0 13 0 0 16 107 41 0 0 12 39 13 1 0 0 0 0 12 16 15 16 10 6 8 10 10 10 7 4 22 19 17 15 11 26 27 27 40 18 3 32 25 43 99 76 56 66 66 71 59 52 53 44 53 53 48
54 39 39 37 46 36 43 48 35 34 28 34 40 22 25 29 23 37 43 19 104 118 94 30 43 63 98 65 0 9 11 0 28 13 24 40 0 0 8 112 39 0 6 54 77 0 0 0 3 53 79 50 26 15 14 8 9 10 7 10 11 8 3 22 21 18 19 17 14 14 9 25 21 13 18 15 32 95 79 58 56 58 59 44 35 49 46 44 33 52
65 43 41 48 47 37 46 52 38 38 41 43 45 10 28 31 19 33 28 27 63 63 17 9 11 12 87 32 0 11 9 0 70 130 79 44 19 59 67 118 27 0 29 66 47 54 56 73 93 101 95 47 18 8 10 8 9 11 8 8 8 11 3 14 11 9 15 17 20 28 24 19 18 20 24 24 26 69 97 59 55 48 49 49 44 47 45 39 31 57
70 19 34 42 38 38 40 35 32 29 36 25 18 20 28 29 12 15 21 12 11 18 20 39 29 13 32 0 12 9 8 0 50 119 136 139 145 135 120 126 17 8 67 143 149 161 167 156 109 57 31 29 15 10 13 8 9 10 8 5 8 12 1 13 33 17 10 8 13 14 8 9 9 0 0 0 0 22 69 62 49 39 41 52 65 55 42 43 45 62
55 5 38 43 36 38 42 40 22 17 34 30 23 25 33 25 19 18 22 23 21 5 11 35 24 26 17 6 12 10 12 0 8 84 114 118 123 79 106 131 24 16 45 99 98 108 115 101 70 33 25 26 16 14 13 9 10 10 10 8 8 11 2 23 64 51 48 70 66 69 53 56 61 58 56 52 50 38 27 45 53 46 52 49 49 56 51 47 55 69
29 3 21 46 32 23 22 36 22 25 40 40 35 23 26 17 17 23 23 24 21 22 19 24 20 19 4 8 10 10 12 0 0 65 102 116 79 8 136 157 43 30 19 108 86 85 91 72 48 24 23 17 12 15 14 9 7 10 8 10 10 10 5 3 10 5 9 22 29 32 22 22 25 34 41 49 55 57 70 84 79 61 44 28 26 18 27 66 82 54
32 15 13 40 42 30 25 29 24 26 29 31 32 30 35 29 23 32 29 22 21 22 21 27 23 22 9 10 8 11 10 1 0 26 62 74 75 19 42 52 0 0 0 104 130 81 72 36 23 21 16 14 15 18 17 10 7 8 9 5 10 11 7 5 14 13 14 11 9 4 8 12 9 4 5 4 8 23 25 22 17 20 18 23 20 15 8 11 9 26
27 17 9 12 47 37 31 29 33 32 26 24 24 28 39 32 23 27 25 22 31 25 24 29 24 23 10 9 10 8 9 7 0 23 33 31 110 199 108 0 0 11 20 59 56 27 28 25 25 24 18 15 16 18 14 10 7 7 8 9 11 11 8 2 15 23 21 23 23 21 16 17 15 15 23 22 24 22 10 9 14 21 26 30 21 34 45 34 31 46
28 18 14 10 42 37 31 31 28 23 24 26 26 26 32 29 25 26 27 31 37 24 22 29 22 25 15 7 10 11 15 10 0 15 49 36 0 8 76 48 28 30 28 1 2 31 46 45 32 29 25 20 17 15 12 8 9 11 8 8 7 7 10 8 12 22 18 26 14 18 20 25 14 14 14 11 18 31 29 29 30 35 41 42 36 30 32 18 15 29
33 17 13 25 45 36 31 31 27 29 33 32 31 30 23 20 24 27 28 24 22 25 24 19 16 26 18 7 10 13 13 7 5 0 34 78 78 101 56 31 28 18 16 34 55 59 55 42 30 26 25 18 14 13 11 6 9 11 10 10 8 8 10 8 5 21 21 22 20 24 24 22 23 25 30 30 29 41 47 46 46 40 31 25 19 9 11 21 19 30
30 12 21 28 32 37 33 31 27 29 30 25 30 23 20 24 23 18 18 16 12 16 18 21 20 29 15 7 10 10 9 10 10 1 0 14 59 113 72 7 0 5 26 43 44 45 39 26 21 17 24 15 14 14 11 9 9 12 11 10 7 8 8 11 3 23 27 15 22 32 27 28 22 23 23 25 19 19 19 9 10 8 1 3 9 12 31 38 23 33
30 16 17 15 11 26 34 34 29 25 27 23 26 22 26 21 24 25 33 35 32 31 35 33 31 42 23 4 15 10 9 11 10 10 0 0 0 41 152 193 170 100 62 52 45 39 24 12 18 20 18 15 12 11 12 8 11 12 9 8 10 11 7 8 2 18 37 28 24 31 34 31 24 21 22 20 26 29 26 19 23 23 26 31 33 30 36 44 37 38
25 18 9 9 12 5 17 39 28 23 23 23 29 22 21 27 24 23 28 23 27 24 27 31 25 32 32 2 9 11 11 11 12 9 10 7 0 0 27 86 92 56 40 33 24 19 19 19 18 16 15 11 12 15 13 8 9 9 10 7 9 11 10 8 2 18 35 36 32 32 40 33 34 29 34 32 26 34 30 35 42 34 33 33 25 15 33 32 24 28
26 16 17 19 18 8 7 30 35 28 32 27 25 17 15 22 17 17 24 23 24 22 26 34 38 40 52 6 3 12 11 8 12 12 9 8 9 0 0 0 0 0 10 11 11 14 17 18 14 10 11 15 20 16 14 7 9 9 10 9 11 12 12 10 3 16 24 19 13 11 15 18 17 16 23 22 13 23 13 26 27 23 15 13 23 24 39 46 35 34
22 11 17 17 14 17 12 13 32 34 33 32 29 26 26 29 30 31 36 33 34 38 38 37 38 39 54 23 0 10 9 9 11 9 12 10 8 9 4 0 7 10 6 4 9 9 11 12 15 12 9 16 20 20 19 10 9 9 9 7 11 12 9 8 5 10 19 19 19 18 20 17 18 16 14 14 8 13 13 9 5 8 4 5 11 20 16 12 18 50
17 8 7 6 7 12 8 0 16 32 26 27 27 30 30 32 29 31 33 38 42 43 43 46 39 36 42 48 10 1 11 12 9 8 10 8 8 7 7 5 17 47 24 11 15 13 15 16 18 19 17 19 21 16 13 6 9 9 9 9 10 12 9 10 5 14 20 20 14 13 17 14 12 12 10 9 12 18 17 9 6 10 11 10 10 16 18 18 18 52
38 32 29 25 12 9 17 25 31 25 29 39 45 41 39 43 46 46 44 41 36 36 43 45 36 38 40 51 35 0 11 11 10 12 10 7 8 8 9 5 0 44 49 31 27 23 16 15 15 19 26 29 29 19 6 5 10 12 11 9 7 6 8 10 6 11 26 36 39 48 61 60 47 46 42 37 50 58 38 32 32 39 46 56 57 44 29 25 33 63
54 37 36 37 37 37 39 36 33 38 41 25 22 32 41 33 16 23 45 56 44 43 43 52 47 53 36 33 35 2 11 11 11 10 11 9 11 11 7 4 0 19 49 39 38 34 23 18 21 26 33 38 37 31 18 6 9 13 10 11 11 11 14 9 7 5 9 13 6 4 6 8 11 28 50 52 42 45 40 49 42 36 31 33 22 12 24 25 15 30
51 35 33 35 38 39 38 38 47 49 29 21 20 14 12 12 12 8 8 24 16 29 18 20 30 13 14 18 15 6 12 10 11 9 9 9 6 4 2 4 7 7 23 38 39 38 33 29 30 32 34 35 38 33 26 8 5 11 11 10 12 11 14 8 10 8 5 10 7 3 5 6 0 5 10 0 0 0 0 29 50 29 33 31 14 17 31 23 16 29
56 42 36 37 39 35 40 41 26 24 30 31 27 16 17 16 28 34 12 9 8 16 19 10 17 9 10 23 17 10 14 11 11 9 6 2 0 12 15 25 59 47 28 48 35 30 37 31 38 46 49 50 57 58 47 16 7 10 10 11 14 10 12 8 10 10 5 10 14 18 14 9 11 10 0 0 0 3 11 33 62 50 22 10 18 21 40 35 20 24
32 29 41 44 31 25 25 14 20 35 27 23 18 11 25 22 21 23 19 18 23 17 15 20 27 20 15 14 9 8 12 12 13 6 0 12 29 31 37 48 70 83 64 73 60 44 52 66 75 72 69 65 70 71 46 15 9 10 7 11 16 13 13 8 10 8 8 7 10 24 26 34 37 60 70 81 75 72 54 43 45 16 13 26 17 22 20 12 17 30
39 18 24 25 19 20 22 16 27 21 24 22 26 23 34 33 34 20 16 15 31 21 14 17 25 18 14 11 8 11 12 9 6 0 17 47 61 70 85 84 83 84 85 79 69 73 76 81 91 87 78 68 54 42 34 10 7 12 8 17 17 11 11 8 13 10 8 11 8 3 6 9 1 0 53 114 57 37 5 0 7 8 15 20 19 15 16 16 30 39
43 26 22 21 14 18 31 31 19 19 26 14 33 27 37 26 25 21 16 17 28 25 15 18 24 21 16 12 11 12 9 8 11 0 41 90 80 74 84 89 89 91 94 93 84 76 78 84 91 87 84 77 61 44 48 27 12 16 8 12 10 7 9 10 12 9 5 8 10 5 6 14 16 3 10 49 46 68 63 57 49 50 44 40 33 42 51 45 34 38
41 31 26 29 32 17 22 35 20 29 24 12 35 27 27 21 22 23 17 16 21 23 16 25 28 21 12 12 11 10 10 10 11 15 65 94 84 86 93 91 91 86 87 92 85 77 80 88 91 83 80 78 69 45 33 16 4 14 8 13 11 7 10 9 7 7 8 9 10 10 7 11 16 18 22 9 20 10 32 9 39 18 0 13 18 12 14 17 0 24
41 30 23 27 31 22 15 37 57 50 52 34 31 22 26 28 16 24 22 21 25 28 27 33 18 8 10 12 9 9 16 11 0 19 83 90 90 96 96 93 90 85 86 89 86 78 84 87 79 73 68 64 62 46 31 4 12 16 10 11 11 4 5 7 7 9 11 13 8 8 10 4 1 4 8 10 32 36 64 67 86 85 68 82 69 72 67 65 70 62
38 20 20 26 21 16 15 15 19 20 54 61 60 38 33 35 23 21 16 19 29 29 18 11 7 10 14 10 4 5 16 12 2 68 99 83 86 92 92 90 88 83 83 88 87 84 86 84 80 78 71 66 65 47 34 7 14 12 9 7 6 14 13 11 7 12 13 19 16 11 12 9 7 6 4 2 0 0 0 4 13 49 59 50 33 75 68 82 78 47
43 23 20 26 17 20 23 16 16 7 5 10 39 49 47 41 34 21 18 28 30 13 6 12 13 12 13 9 5 19 51 43 66 100 89 88 88 90 94 92 86 84 90 91 87 83 81 79 83 84 77 72 62 49 23 7 9 8 6 6 13 16 24 35 47 37 32 33 23 16 15 10 7 8 9 9 6 5 8 3 0 0 0 6 0 2 0 4 0 16
38 21 19 26 26 26 24 20 14 18 19 7 2 28 23 22 33 47 47 34 10 4 8 9 12 10 7 10 9 33 95 93 94 99 93 91 86 86 83 73 73 87 91 92 91 88 86 85 87 88 84 69 46 32 21 12 13 11 10 21 33 38 43 32 22 8 4 4 1 2 4 5 5 6 10 10 8 5 7 10 17 15 8 8 5 10 37 74 69 79
34 17 19 19 16 16 18 14 11 15 6 5 8 0 0 0 10 53 50 7 1 10 11 11 12 5 5 14 4 0 67 125 119 106 102 89 79 58 57 64 82 96 93 95 95 94 92 92 91 86 80 93 77 41 22 12 12 19 27 28 18 7 0 0 0 2 4 5 6 6 4 6 6 6 8 8 6 6 6 3 9 11 7 10 12 6 0 1 32 90
35 22 20 17 18 20 19 23 30 34 26 32 34 39 51 54 44 26 6 0 7 10 11 12 9 6 12 16 11 0 0 19 59 103 122 124 66 37 86 106 97 93 94 94 94 91 93 86 83 98 116 82 26 9 11 9 12 9 4 0 0 4 6 8 7 6 6 6 6 6 6 7 7 4 6 4 5 6 7 2 11 12 12 9 8 8 10 7 0 8
34 22 20 21 18 19 26 27 21 18 23 20 22 20 18 17 1 0 2 10 8 10 12 10 4 6 11 14 26 19 7 0 0 0 6 21 2 38 99 135 136 131 128 130 129 126 123 106 113 103 51 0 0 4 7 4 6 6 8 7 7 6 2 2 4 7 7 6 4 7 6 6 7 5 7 7 5 4 8 5 8 9 15 17 16 16 12 13 15 20
34 17 10 21 16 31 27 8 1 4 14 0 2 1 6 7 2 8 8 13 7 9 8 5 8 12 19 21 23 22 22 21 23 9 0 0 0 0 0 0 8 15 28 52 67 80 84 68 38 0 0 0 7 12 11 5 9 9 6 5 4 5 3 6 8 8 8 8 6 7 6 7 7 5 7 6 7 5 7 6 9 9 10 18 14 17 14 13 15 24
21 22 20 19 19 20 27 26 20 22 30 35 33 30 24 1 6 9 10 11 9 9 6 8 11 20 23 18 16 20 14 23 29 20 13 22 18 14 9 1 0 0 0 0 0 0 0 0 0 0 8 9 13 12 7 3 4 4 5 4 6 6 13 11 5 7 10 8 5 6 4 4 5 6 7 6 6 4 5 5 9 10 5 7 5 6 8 9 16 28
19 13 21 19 20 22 25 28 26 31 32 35 37 48 27 4 9 10 9 5 7 6 6 10 13 21 15 13 23 17 11 18 15 15 20 22 25 26 20 20 25 18 17 22 20 11 9 9 12 13 10 8 9 5 1 5 7 7 6 7 7 8 13 8 4 7 8 5 6 6 7 5 6 5 5 7 11 7 5 7 9 12 9 11 15 8 8 7 8 17
25 10 9 14 12 12 11 14 10 10 7 6 4 9 5 3 7 6 6 7 10 7 9 9 10 14 14 16 17 12 15 13 9 10 17 15 19 18 16 15 22 14 17 16 8 8 9 12 13 11 9 4 6 5 4 7 7 6 6 8 7 12 11 8 6 5 12 15 14 13 10 9 9 7 9 13 11 7 6 2 4 7 5 6 20 19 13 14 16 14
25 10 10 11 8 9 10 10 9 10 10 10 14 17 10 5 10 9 8 6 9 9 8 8 12 14 12 13 12 11 15 12 10 8 17 15 20 20 14 12 14 13 11 7 9 10 10 9 8 7 6 4 8 8 6 8 9 8 9 8 8 7 6 9 10 11 14 12 10 10 9 10 9 8 10 8 4 5 7 1 3 5 5 3 13 23 22 30 13 10
23 8 11 18 12 12 13 8 10 12 13 13 11 6 10 11 8 8 8 6 6 11 8 10 12 9 9 14 11 11 12 8 4 5 13 8 9 10 10 12 12 8 6 10 9 9 10 9 7 5 7 5 5 3 3 5 4 6 8 6 7 5 6 11 11 11 12 10 10 11 12 13 14 13 8 2 4 2 7 7 6 5 5 6 5 11 6 14 9 16
17 7 30 33 31 27 23 19 24 28 29 26 15 5 9 6 6 12 11 11 9 11 8 8 10 8 11 10 9 12 10 9 9 9 11 9 9 9 9 11 9 5 7 8 12 12 8 7 6 4 5 5 7 5 6 5 5 9 7 2 4 5 10 8 9 11 12 13 12 10 11 11 8 6 6 2 5 5 1 9 8 5 5 7 2 9 14 17 12 12
16 31 38 34 33 32 32 33 27 34 35 32 14 3 7 6 6 9 8 11 8 9 8 8 6 8 11 11 8 12 11 9 12 11 10 8 7 7 10 7 8 8 8 13 9 8 8 8 8 7 7 7 6 7 5 4 5 7 6 3 5 6 9 10 9 11 10 11 11 5 2 0 0 3 7 4 0 3 0 4 8 6 3 6 3 7 20 18 22 22
40 39 37 37 33 36 32 35 38 40 34 32 6 5 7 7 10 11 6 7 6 8 10 10 6 6 11 12 10 12 8 5 10 10 9 8 5 9 9 8 11 10 10 7 7 11 7 7 8 6 8 6 7 10 7 7 6 5 5 5 7 10 8 11 11 13 11 10 6 4 2 3 4 5 6 5 6 6 2 1 10 6 4 4 5 4 17 27 29 36
38 18 17 17 15 16 15 18 19 15 12 3 5 9 7 9 14 11 6 4 7 9 11 11 10 9 8 7 10 7 5 9 11 10 8 11 11 10 9 9 11 8 8 6 9 9 5 5 6 8 7 7 7 2 5 7 6 3 5 4 6 13 10 7 7 6 7 5 5 5 6 3 2 3 6 1 6 6 6 0 8 6 2 5 3 3 6 13 10 18
19 6 9 9 10 10 10 8 4 6 2 6 7 9 9 5 7 8 8 12 11 8 8 10 10 8 9 6 8 9 9 9 9 8 9 9 7 5 6 4 8 9 9 11 9 7 6 6 7 7 7 5 3 6 6 8 7 4 5 6 10 8 6 6 4 4 0 5 5 2 4 2 2 2 2 0 1 1 2 0 5 3 0 3 2 5 4 6 7 15
25 16 14 14 13 14 16 17 11 5 5 12 10 8 7 8 11 9 6 9 9 6 6 7 10 8 8 9 9 11 8 7 8 5 8 6 6 6 6 5 5 8 6 9 10 6 6 7 7 6 5 5 3 6 3 5 4 4 6 6 12 9 4 3 0 2 0 5 5 1 1 1 1 0 2 0 2 4 2 0 5 7 3 4 5 8 10 13 11 15
21 12 9 15 15 14 11 8 7 10 8 8 11 11 10 10 10 8 6 6 6 9 11 10 10 9 6 6 6 6 9 6 5 5 6 6 6 6 6 8 7 8 9 5 6 3 5 6 7 6 5 8 6 4 2 2 3 2 3 7 10 6 0 0 0 5 4 3 3 2 5 7 6 5 4 0 8 8 4 0 2 7 1 1 2 5 6 10 14 21
25 14 19 22 15 7 3 6 8 10 11 6 6 8 10 11 11 11 11 10 6 8 8 8 10 9 8 9 11 6 9 10 11 6 6 6 5 6 8 11 10 8 6 4 5 7 7 7 7 7 6 5 5 7 4 3 4 1 6 8 6 3 2 1 1 2 6 8 4 2 1 6 11 9 7 0 2 2 3 2 2 5 0 3 6 6 4 6 11 17
24 14 19 11 3 5 6 8 10 10 10 6 9 6 5 6 7 11 8 9 9 11 10 7 8 8 9 10 10 8 8 8 9 8 6 8 8 8 8 8 6 5 6 4 6 6 6 6 7 6 3 1 5 7 2 3 3 3 10 7 3 3 3 1 0 0 6 8 3 1 0 1 0 1 5 2 4 1 1 1 4 6 0 2 0 3 5 5 10 20
25 17 12 5 5 9 11 9 8 10 8 7 12 9 6 8 5 7 6 6 9 8 8 10 9 5 8 9 11 9 10 7 8 10 5 9 12 7 4 6 7 7 7 6 8 7 5 7 7 3 4 7 8 7 4 2 3 7 7 0 1 4 2 0 1 0 4 4 4 4 3 3 1 0 1 0 4 1 0 0 1 1 0 1 4 5 7 5 10 23
29 18 8 7 7 6 10 8 5 10 6 5 8 9 8 12 12 12 7 8 8 6 9 11 11 9 7 7 8 5 4 4 5 5 9 9 7 6 4 6 9 7 7 9 11 7 5 5 5 5 6 6 6 5 2 7 9 9 2 0 2 6 3 1 1 1 1 2 2 2 1 2 2 0 1 1 1 3 2 0 0 0 2 8 9 8 8 6 8 21
30 14 12 7 7 8 10 10 8 11 12 15 15 15 14 11 11 10 11 13 9 5 6 9 6 6 7 7 8 11 10 8 6 7 10 10 7 7 8 7 7 5 5 6 7 5 5 5 7 8 7 3 1 3 2 4 7 6 3 1 3 4 3 8 8 7 4 6 7 5 6 4 2 2 2 0 1 3 2 1 0 2 5 4 6 6 2 4 10 18
24 8 12 8 8 9 7 10 9 14 15 14 20 8 1 7 9 11 13 14 10 6 4 7 10 9 9 8 7 10 15 16 14 12 7 9 9 10 10 5 6 5 6 5 5 5 4 5 4 6 7 7 6 2 3 4 5 4 5 3 2 5 2 6 6 8 8 8 6 4 4 4 3 5 8 1 2 1 1 1 1 4 6 7 4 1 1 2 7 15
18 8 10 8 8 8 7 11 11 18 11 9 7 7 27 21 9 14 15 10 8 13 16 8 0 0 0 0 0 0 0 0 1 4 8 9 10 7 5 3 3 3 6 5 6 7 7 7 7 7 6 8 8 6 4 3 2 2 2 2 4 7 3 4 5 4 7 7 3 3 6 6 5 6 8 6 3 2 2 0 1 4 2 5 4 4 7 6 3 16
12 9 10 9 8 8 8 12 12 12 17 19 24 40 20 0 12 20 23 19 22 25 8 0 6 34 53 60 57 42 25 12 0 0 0 0 0 0 1 4 4 5 5 7 9 9 7 7 9 6 7 5 5 6 8 8 6 6 7 4 6 6 5 3 3 5 6 6 4 5 6 5 4 1 6 5 2 5 6 1 6 6 4 4 6 6 5 5 6 14
11 13 13 11 9 9 10 12 7 10 18 20 13 5 2 28 21 10 18 12 19 5 10 23 63 67 60 60 59 56 48 44 37 33 19 12 3 0 0 0 5 6 8 7 6 6 5 5 7 6 5 5 6 5 6 8 5 7 6 5 6 7 7 8 5 5 6 9 6 6 5 8 4 1 4 4 4 5 6 2 4 3 6 6 3 3 8 8 4 13
14 8 8 8 6 6 6 8 6 12 18 17 6 11 18 18 3 16 13 8 5 10 11 42 51 43 49 51 50 52 50 39 45 45 37 42 48 50 35 9 0 0 0 2 8 6 3 5 7 7 6 5 6 5 3 5 5 6 7 4 5 8 7 7 6 9 8 11 8 8 7 7 6 6 6 5 4 1 5 4 9 6 4 5 8 7 5 5 5 11
11 8 11 8 8 9 9 7 5 9 13 6 10 17 11 6 9 10 10 8 9 10 9 44 36 32 39 39 35 40 50 48 46 41 35 33 32 37 36 25 10 0 0 0 0 0 3 5 6 6 5 5 6 6 5 6 7 7 9 7 5 7 6 7 7 7 7 6 6 9 9 7 6 8 7 7 6 4 7 4 7 7 4 6 9 8 5 6 4 14
10 9 9 8 11 10 7 9 9 7 7 7 12 12 8 11 11 14 14 8 11 7 10 33 35 31 30 31 30 29 36 38 36 39 41 35 33 32 31 34 40 43 35 21 16 3 0 1 4 4 4 4 5 4 4 4 6 6 2 1 2 3 1 4 3 2 4 6 6 6 7 5 0 3 7 7 6 6 6 2 0 1 8 5 4 4 4 6 3 11
10 10 9 8 9 10 10 12 9 11 10 8 8 7 7 12 10 6 7 9 9 10 4 11 18 11 9 12 20 23 31 30 32 32 35 36 38 37 39 39 43 49 51 54 44 20 3 7 5 0 0 0 1 0 2 1 0 2 10 15 18 17 11 13 9 8 6 7 6 7 6 6 4 5 7 5 3 6 7 3 0 0 0 2 2 1 3 7 3 10
10 8 10 7 6 8 11 8 4 9 9 11 8 9 8 7 7 8 8 11 6 11 5 5 9 4 0 6 17 22 27 27 29 30 34 32 27 30 33 33 17 7 27 56 68 63 31 3 6 13 17 12 29 30 23 22 20 15 11 14 17 18 10 9 13 16 13 14 7 3 0 4 7 9 10 5 5 3 6 7 5 5 4 4 4 5 4 7 6 7
10 5 6 10 7 9 8 6 5 5 5 8 5 10 10 10 10 12 11 8 5 6 0 0 0 2 10 12 15 24 26 25 31 31 33 30 24 26 37 37 23 0 0 0 24 45 53 41 17 12 18 13 16 25 22 14 13 20 16 8 9 15 18 14 7 7 8 9 12 9 5 1 0 5 7 7 8 5 5 1 5 6 8 7 7 6 4 4 3 9
15 10 8 7 7 7 9 9 7 9 9 9 8 11 11 11 9 9 9 6 0 6 22 34 32 35 48 33 8 10 21 19 19 22 19 19 27 14 3 21 49 57 31 0 0 0 14 25 24 17 15 13 7 3 8 14 9 8 14 8 9 10 13 24 18 10 8 11 8 9 8 6 1 5 7 6 6 6 7 5 4 2 5 8 8 6 3 7 5 10
14 7 8 8 4 8 12 8 6 9 10 10 10 8 5 8 8 8 9 6 27 43 38 16 8 43 47 34 21 5 5 14 18 16 18 27 40 38 14 0 3 34 56 52 23 0 0 5 13 22 27 17 14 12 8 9 17 15 13 17 10 7 8 4 13 18 11 4 8 11 10 9 4 5 9 8 7 6 6 7 5 6 5 5 4 3 6 8 5 7
12 8 7 7 9 11 10 8 6 9 10 10 10 6 8 9 8 10 5 13 26 7 0 15 39 38 31 47 44 28 8 2 11 19 18 15 20 35 53 49 7 0 14 40 49 30 9 1 5 9 15 21 16 13 8 6 12 11 12 17 18 13 12 14 8 9 11 7 11 11 9 8 6 6 8 9 7 10 7 6 7 6 5 5 5 5 7 7 5 9
15 7 7 9 11 11 10 10 7 11 10 9 10 5 8 10 10 8 4 15 13 5 31 50 24 8 38 43 31 33 27 16 8 11 16 9 3 0 13 43 61 30 0 0 9 26 38 17 4 1 5 8 8 8 7 9 12 11 10 12 16 17 11 13 16 12 9 8 8 9 9 5 5 6 7 9 9 12 10 8 9 8 7 6 7 7 7 7 7 10
12 7 5 7 5 8 8 7 4 8 9 9 10 11 10 8 10 10 8 16 12 27 35 13 0 25 32 36 42 30 20 21 15 8 9 14 17 12 4 6 28 41 23 5 4 9 19 25 27 9 7 7 4 8 11 9 10 5 4 5 7 8 12 9 9 10 8 6 9 8 10 10 6 8 8 8 7 7 7 5 5 8 7 7 7 6 8 8 8 10
15 8 7 8 7 9 8 6 6 11 10 10 10 10 10 10 7 8 8 12 16 18 9 3 15 19 25 43 26 17 13 14 14 13 9 7 12 17 15 7 4 7 12 15 12 5 3 11 23 20 9 9 9 11 8 8 10 8 8 6 6 5 6 6 5 6 8 6 11 8 6 8 5 5 7 7 5 6 6 7 7 7 6 6 9 6 8 8 6 11
13 7 8 8 7 9 12 12 8 10 9 9 10 5 7 11 10 10 9 8 11 10 13 16 20 33 35 17 6 8 6 7 7 7 8 7 7 9 8 9 7 6 7 6 12 11 7 8 6 8 10 8 11 9 6 11 11 10 11 9 11 11 6 6 8 10 11 10 10 8 10 8 6 7 12 10 7 6 7 6 6 7 5 5 7 8 7 6 6 10
12 7 7 8 8 6 8 9 7 10 7 9 11 8 8 11 9 8 10 11 6 8 14 16 27 30 10 7 6 6 6 8 8 6 7 9 8 7 5 9 8 6 8 8 10 8 6 9 9 6 5 5 7 9 9 7 9 9 9 9 10 10 10 11 11 10 9 10 10 6 6 7 6 6 8 8 8 8 7 6 5 5 3 5 9 8 8 8 8 10
12 7 8 7 10 7 7 8 8 11 10 11 10 6 8 11 10 9 9 9 6 5 8 9 17 9 7 6 8 10 8 11 8 6 6 11 10 9 9 9 8 8 9 7 10 10 6 9 9 7 5 6 6 5 5 5 5 7 5 6 10 8 9 10 8 10 9 11 10 9 9 10 8 5 5 6 7 6 8 5 7 5 5 5 7 7 8 9 7 10
10 8 10 7 7 6 8 9 7 9 7 10 8 6 8 11 7 8 7 7 6 6 9 9 15 12 7 8 11 8 10 8 10 10 8 8 10 8 8 8 8 9 8 8 11 10 6 7 9 6 7 8 8 8 8 8 6 6 5 6 8 7 7 9 8 8 9 10 6 5 11 12 7 6 6 7 7 5 3 5 6 8 8 6 5 6 5 7 7 9
12 5 5 7 8 8 13 12 8 9 7 12 9 7 9 11 11 9 7 8 8 9 10 9 11 9 8 9 9 11 9 8 8 11 10 8 9 11 9 11 12 9 10 9 11 11 9 7 10 10 10 9 6 6 8 6 6 9 7 6 9 7 5 7 10 11 10 11 8 8 6 9 8 6 6 5 5 6 5 4 6 6 5 4 2 4 4 6 5 9
12 6 9 11 14 11 9 9 6 13 10 8 11 7 7 8 8 8 7 7 8 5 10 12 9 5 8 10 7 7 8 12 8 9 9 9 7 10 8 10 10 7 7 7 7 7 8 8 7 7 6 5 7 6 6 7 7 6 6 7 6 6 8 6 5 10 12 9 9 11 7 7 7 9 9 8 6 5 6 1 6 10 7 6 2 2 4 6 5 10
15 12 12 10 9 7 7 8 4 6 7 5 4 4 4 6 6 4 5 5 5 5 7 8 6 5 7 8 7 5 4 8 7 7 8 6 6 7 5 5 3 3 7 7 7 5 4 5 7 7 7 6 7 7 5 7 7 5 5 5 8 8 8 8 5 4 5 7 7 10 8 7 6 9 10 7 5 3 2 0 0 2 5 3 0 0 0 1 0 6
17 12 8 9 7 8 10 9 6 9 4 2 2 0 1 2 3 4 5 7 6 6 6 8 6 1 4 7 6 7 6 6 10 10 10 8 8 9 3 5 7 4 7 6 6 7 7 6 9 10 10 9 8 6 7 8 8 11 9 3 8 6 5 8 6 8 9 8 9 12 9 8 6 6 4 1 3 3 1 2 0 0 0 0 0 0 1 0 0 8
