P2
# Filtro High-Boost
90 90
255
166 130 130 114 124 137 130 128 117 115 123 114 116 109 106 111 117 113 113 117 107 109 121 121 111 117 117 118 131 123 134 127 120 126 113 120 118 129 122 128 140 131 107 111 108 110 114 115 122 106 106 107 110 113 111 108 107 106 106 111 116 120 117 103 104 103 97 96 97 101 103 109 97 106 108 100 97 106 114 117 107 101 93 92 93 93 100 102 91 109
154 108 95 91 98 99 109 102 98 106 92 83 88 89 96 100 98 78 90 98 93 85 94 112 110 104 101 100 105 99 86 95 114 109 92 97 97 104 101 117 118 101 104 112 115 138 150 141 113 116 132 115 98 93 85 73 76 78 82 97 81 88 95 78 80 93 85 84 86 92 106 98 86 102 87 83 85 86 85 76 75 74 64 71 75 69 70 73 73 92
143 104 93 98 80 81 96 98 94 97 87 75 78 84 94 92 98 93 115 122 112 87 88 94 92 103 108 106 113 117 122 118 107 98 99 119 116 119 137 125 111 92 117 135 130 159 132 122 125 127 135 123 113 114 98 95 98 99 100 109 76 78 93 83 92 96 91 94 90 89 88 85 99 111 97 91 79 79 78 82 75 79 73 76 75 72 70 76 84 97
144 109 99 95 81 92 99 96 90 85 78 75 79 82 96 96 101 102 114 118 116 90 91 101 92 97 104 110 109 126 122 123 119 119 110 129 129 130 144 166 172 152 167 166 159 163 164 156 156 158 154 160 142 133 118 111 114 121 89 87 79 95 88 71 80 72 82 81 76 81 77 74 79 84 96 95 82 83 79 76 75 78 81 82 75 71 72 80 82 96
162 116 114 114 93 107 101 84 89 99 99 88 93 83 85 84 86 106 100 96 98 99 109 110 106 92 99 107 106 121 111 111 116 119 112 106 145 186 181 145 94 52 33 14 8 1 10 10 15 29 52 91 127 168 167 124 109 100 103 100 96 110 92 72 76 72 82 88 84 78 77 86 88 82 87 82 84 74 81 76 78 90 96 88 81 79 74 77 76 100
135 99 110 111 122 129 102 93 90 109 106 104 92 82 85 81 90 96 97 96 113 99 101 95 103 113 102 106 115 117 110 123 119 105 114 140 152 89 18 0 0 0 1 9 12 11 7 5 5 2 0 0 0 27 83 145 181 133 92 84 101 103 84 77 84 86 92 91 100 87 83 80 82 95 106 89 92 95 82 81 85 100 109 99 87 91 79 72 85 112
163 99 99 113 118 111 101 96 80 98 105 118 104 93 91 104 118 89 90 100 123 106 99 96 100 102 90 118 133 127 121 123 135 149 161 94 14 0 3 18 39 34 23 22 20 18 19 15 20 22 21 19 11 0 0 2 98 177 146 129 116 104 100 94 106 94 99 101 117 119 114 97 112 139 132 104 84 104 103 105 92 98 97 91 83 92 92 92 91 106
156 115 101 91 106 107 116 110 98 115 122 119 92 92 114 125 124 116 124 115 119 94 103 94 92 91 111 122 115 110 119 123 158 156 45 0 3 7 0 0 18 0 0 5 7 7 16 15 17 19 17 16 18 20 17 3 0 42 172 182 154 138 119 111 109 103 103 101 96 85 92 113 134 133 132 99 85 106 117 104 100 89 81 103 101 99 105 110 94 101
167 148 148 138 142 135 130 132 119 123 116 94 78 95 124 124 118 122 135 130 135 121 126 115 101 108 128 126 124 137 147 166 177 47 0 0 3 9 27 55 72 53 31 28 26 20 15 12 10 13 12 18 20 17 14 17 16 0 5 161 187 143 117 112 112 103 122 122 111 98 109 114 127 118 108 87 107 122 99 100 124 103 89 100 106 105 115 114 109 113
156 133 161 165 147 120 113 134 144 135 116 107 112 115 126 122 127 127 134 135 134 130 116 126 120 112 134 146 142 151 157 179 64 0 14 34 101 168 181 206 208 194 149 103 79 74 49 34 29 24 20 17 20 21 19 16 19 19 0 12 169 160 140 123 125 112 140 139 142 148 141 134 129 124 121 103 110 115 98 89 108 112 108 101 114 98 122 134 137 129
186 138 130 125 132 114 105 111 121 150 157 141 142 133 137 143 147 134 148 132 136 126 113 130 138 137 148 153 152 160 178 90 0 12 78 178 255 255 255 255 255 255 255 234 207 181 121 74 50 32 27 27 23 20 21 12 18 22 18 0 37 179 162 125 116 116 120 107 113 140 131 143 141 128 129 110 113 122 121 106 88 99 107 94 107 100 106 125 126 134
208 139 152 144 126 125 147 136 134 162 148 138 156 142 138 137 139 124 141 150 152 139 144 159 134 122 118 121 160 175 112 0 0 54 143 251 255 248 255 255 255 255 255 251 244 207 147 84 53 41 38 32 28 22 16 13 17 20 19 14 0 108 196 159 109 84 95 123 141 142 134 144 147 141 119 113 122 126 139 129 110 121 119 118 124 129 129 129 112 141
207 153 203 183 134 173 160 206 223 201 165 169 185 155 156 154 169 137 146 163 157 150 145 161 147 132 132 135 153 116 9 0 18 80 133 193 228 224 224 228 229 231 229 221 187 128 89 64 58 54 39 26 27 29 20 14 19 20 19 19 0 21 178 107 81 84 104 144 96 129 138 160 124 155 125 118 114 116 124 124 130 149 149 138 145 142 135 137 126 142
191 159 190 171 147 160 139 201 172 180 182 195 220 191 194 219 202 168 192 165 159 169 153 136 124 133 153 220 143 15 11 10 25 84 137 174 200 195 188 179 183 209 218 201 147 97 91 82 71 65 60 53 37 26 24 21 18 20 21 15 11 0 60 52 71 91 78 85 49 70 137 109 100 147 106 133 122 127 133 120 130 147 147 143 146 137 145 142 131 136
155 103 113 112 104 93 87 166 170 161 232 219 162 126 114 207 240 241 227 153 157 198 166 143 176 195 216 235 43 2 15 8 56 113 157 202 224 219 206 193 194 234 255 255 241 196 176 164 144 117 87 75 45 25 24 18 18 18 17 16 15 5 33 64 51 71 58 51 54 71 101 66 98 90 70 178 149 149 158 152 148 144 135 128 150 156 161 145 118 123
161 72 45 64 106 96 84 78 133 142 161 143 111 101 87 92 202 165 203 244 240 220 224 219 241 246 255 173 0 14 17 5 51 129 181 194 185 204 229 228 251 239 180 130 128 152 153 156 140 113 81 68 46 31 29 17 18 19 19 15 16 14 26 55 29 51 68 73 68 63 46 66 97 73 64 129 151 145 149 145 142 143 140 132 148 131 129 91 86 101
101 70 65 62 72 91 95 69 82 103 78 82 98 75 67 73 42 20 54 117 216 198 197 210 204 213 230 81 0 22 21 8 49 117 96 47 24 59 185 215 186 60 0 0 3 44 44 37 35 31 22 27 35 31 32 17 16 19 19 21 19 15 22 42 29 42 48 55 67 59 57 61 83 54 68 43 114 162 145 139 139 149 149 160 152 115 104 74 88 83
85 75 66 68 107 91 68 80 95 84 63 65 55 45 48 47 47 72 62 0 79 192 209 197 143 148 150 63 2 25 23 10 11 0 17 37 13 0 58 187 92 0 0 33 71 36 16 3 0 0 3 33 35 31 30 21 14 17 19 20 20 16 13 39 37 35 34 29 50 52 53 71 41 21 61 57 92 176 148 120 131 131 137 120 108 106 91 101 97 81
88 76 77 76 89 76 85 92 74 71 62 69 74 48 51 56 49 69 78 52 175 203 170 79 94 122 166 112 6 19 21 2 55 43 60 78 3 11 46 188 83 0 26 97 132 26 0 0 28 97 132 89 50 31 27 18 18 19 15 19 21 17 12 39 39 36 37 35 32 33 28 49 43 32 40 41 73 167 151 121 115 117 117 95 81 98 93 88 70 86
103 81 80 91 90 77 88 96 76 74 78 79 80 31 54 58 43 62 56 60 114 117 53 38 39 44 143 64 7 22 18 0 119 213 151 102 67 120 137 201 69 12 67 128 110 119 119 140 165 173 159 87 40 22 22 18 18 21 17 16 17 21 11 28 27 25 32 36 40 51 46 39 37 40 46 49 59 127 170 119 111 99 99 99 91 94 90 80 68 93
108 47 69 82 77 77 79 71 65 60 70 54 43 44 54 55 32 35 44 34 35 44 47 71 57 37 60 14 25 19 17 0 96 206 239 244 251 237 218 217 58 37 124 240 255 255 255 255 195 116 72 60 35 24 25 18 19 20 17 12 16 22 9 28 58 39 30 28 36 38 29 30 29 14 11 14 23 59 127 120 100 85 87 101 119 105 86 86 88 101
84 25 71 81 72 74 79 75 50 43 66 60 49 51 61 49 40 39 44 46 43 21 31 64 49 49 34 17 24 21 23 2 35 156 212 222 226 167 202 228 70 49 98 184 194 211 219 192 138 76 56 52 34 29 26 19 20 20 19 16 17 20 10 41 100 84 81 112 109 113 90 93 100 97 95 91 91 79 69 95 105 94 99 94 94 103 96 92 103 111
48 19 46 83 66 53 51 68 49 52 73 74 66 50 53 40 39 46 46 47 43 43 40 48 42 38 15 18 20 20 22 8 17 121 186 212 159 63 233 255 91 63 58 190 172 172 175 141 98 57 49 37 28 30 27 19 16 19 17 19 19 19 13 13 26 22 28 47 58 62 48 47 52 64 75 87 97 102 121 142 135 109 84 61 57 46 59 113 135 89
50 32 32 72 78 62 54 58 51 54 58 61 62 59 66 57 48 59 55 46 44 45 44 52 46 42 22 21 18 21 20 8 7 59 120 145 150 76 102 105 23 17 0 177 221 154 136 82 57 48 37 31 31 34 32 21 16 16 18 13 19 21 15 14 28 28 31 29 26 20 24 29 26 20 22 23 30 52 57 53 47 50 46 51 45 39 31 36 33 49
44 34 25 33 83 71 62 58 63 61 53 51 51 57 71 61 48 53 51 47 58 50 48 55 47 43 23 20 20 18 19 16 9 49 72 77 189 255 183 0 0 30 48 108 110 71 69 60 55 50 39 33 33 34 28 21 16 15 16 18 21 21 17 10 29 42 41 44 43 40 34 35 32 32 43 43 47 47 32 30 37 47 54 59 47 63 78 62 57 72
45 36 31 30 76 72 63 61 57 50 51 53 53 53 61 57 51 52 53 59 66 49 46 54 44 46 30 17 20 22 27 20 7 34 88 79 27 56 141 92 56 57 56 24 29 70 89 85 64 56 48 39 34 30 24 18 18 21 17 17 15 15 19 17 25 41 37 48 33 38 40 47 32 32 32 29 40 59 58 58 59 66 74 75 66 57 60 41 35 49
52 34 30 50 80 70 62 61 55 57 63 61 60 58 48 43 48 52 54 48 45 49 48 41 37 48 35 18 20 24 24 16 13 6 62 129 138 175 113 72 60 44 41 67 98 106 100 79 60 51 48 37 29 26 22 15 18 21 20 19 16 16 19 17 15 39 42 44 41 47 48 44 45 48 55 55 55 73 82 80 80 71 58 50 41 27 31 44 41 50
48 28 41 52 60 69 64 61 55 57 58 52 58 48 43 48 47 40 41 38 32 38 41 45 44 54 33 19 21 20 19 20 19 9 3 37 109 191 141 52 30 36 61 83 86 86 75 54 45 38 45 32 29 27 22 19 19 23 21 19 15 17 17 21 12 42 51 36 46 60 54 54 45 46 47 50 42 43 43 30 30 27 17 19 27 31 58 69 48 55
47 33 34 32 28 50 63 64 58 52 54 48 52 46 50 44 48 50 61 64 60 59 65 62 60 74 45 15 27 20 19 21 20 19 7 0 11 85 244 255 255 169 111 95 84 73 50 32 38 39 36 31 26 23 24 18 21 23 18 17 19 21 16 17 11 36 65 54 50 60 64 60 49 45 46 43 51 55 51 42 47 46 50 56 59 57 67 78 67 62
41 35 23 23 27 19 38 70 56 49 49 48 55 45 43 51 48 47 55 49 54 51 56 62 55 63 59 14 20 22 22 21 23 18 19 15 1 0 65 152 160 106 78 65 50 42 40 38 36 32 30 25 26 29 25 18 18 18 20 16 18 21 20 17 10 35 62 65 59 60 71 61 62 55 61 59 51 61 56 63 73 62 60 60 49 38 64 63 51 49
41 31 33 35 34 21 22 56 65 56 61 54 51 39 36 46 40 40 50 50 51 49 56 67 74 77 89 22 12 23 21 17 23 23 18 17 18 6 0 0 6 15 29 29 27 31 34 35 29 23 24 30 37 32 27 17 18 18 20 18 21 23 23 19 11 31 45 40 32 30 35 39 38 36 45 44 32 45 32 49 51 45 33 31 45 48 69 80 64 57
36 24 33 33 28 32 26 31 59 64 63 62 57 53 53 57 59 61 68 65 67 73 74 74 76 77 94 47 4 20 19 19 21 19 22 19 16 17 11 6 19 26 20 17 23 23 25 27 31 26 23 33 38 38 34 21 18 18 18 16 21 23 19 17 14 23 37 39 39 37 40 37 38 35 32 31 24 30 30 24 19 22 17 18 28 41 37 33 41 78
30 23 21 20 20 26 22 11 38 62 55 56 57 61 61 64 60 64 67 75 80 82 83 87 78 73 80 84 27 10 21 23 19 17 20 17 16 15 14 13 33 77 47 29 33 29 31 33 36 37 36 39 42 33 27 16 19 19 18 18 20 22 18 19 14 28 38 41 34 33 40 36 32 32 29 28 32 40 38 26 22 27 29 29 29 37 40 40 41 82
61 58 55 49 31 26 37 50 60 53 59 72 81 76 73 78 82 83 83 80 73 74 84 87 74 76 77 89 61 8 21 22 20 23 20 15 16 16 17 13 10 74 85 60 53 46 35 33 34 40 51 56 56 40 19 15 20 23 21 18 16 15 17 20 15 23 45 61 66 79 97 96 79 79 75 69 87 97 70 61 61 71 80 94 94 76 55 49 61 96
85 69 68 69 69 68 72 69 66 73 76 53 48 62 74 62 40 50 81 97 81 80 80 93 86 93 69 62 61 12 22 22 22 20 21 18 21 21 16 12 0 41 86 75 72 65 49 41 45 53 65 72 70 59 37 17 19 24 20 21 21 22 25 18 16 14 21 28 20 18 21 25 29 54 84 87 74 78 73 87 79 71 63 65 48 33 49 50 36 50
83 69 67 69 73 75 73 73 85 87 59 47 43 35 31 31 31 26 27 49 39 57 42 45 58 35 35 38 32 17 23 21 22 19 19 19 15 14 12 18 25 29 54 76 77 75 66 61 63 67 71 74 77 68 52 23 15 22 22 21 23 22 26 17 19 17 13 21 17 13 16 17 10 20 28 12 0 0 17 61 91 62 64 59 34 38 58 47 36 47
89 77 71 72 74 68 75 76 55 52 59 59 51 35 36 35 52 59 30 25 25 35 39 28 37 25 25 42 32 22 26 22 22 19 15 12 12 30 38 56 105 92 69 95 78 69 78 71 82 94 99 100 109 107 85 35 18 20 20 22 27 21 23 17 19 19 13 20 26 33 28 23 27 29 18 14 16 21 33 66 106 88 47 29 39 43 69 62 40 41
55 58 75 80 61 52 52 37 44 64 54 47 39 30 48 45 44 45 39 37 44 36 33 40 49 39 31 28 21 19 24 24 24 16 11 32 60 67 80 100 133 152 127 137 118 96 107 128 142 139 133 126 130 127 85 35 21 21 17 23 30 25 24 17 20 17 17 16 21 41 45 56 62 97 117 136 128 120 93 78 81 40 33 49 37 45 42 32 37 49
63 42 50 51 42 43 46 38 52 45 48 46 51 47 62 61 61 41 35 34 55 42 31 36 47 36 29 24 19 22 24 20 16 9 40 89 115 132 156 159 160 163 165 155 139 142 147 157 172 166 152 134 111 89 70 29 20 24 18 30 31 22 21 17 24 20 17 21 17 11 17 22 14 13 96 184 109 79 32 21 30 29 38 44 42 37 39 39 56 63
69 52 46 44 34 40 58 58 42 42 51 36 61 55 67 52 50 43 35 36 52 47 33 37 45 40 32 25 22 24 20 19 24 12 81 158 152 148 165 173 174 177 181 179 164 152 156 166 176 170 162 148 120 90 87 52 26 29 18 24 21 16 18 20 22 18 13 17 19 13 15 26 30 17 33 90 89 116 108 98 86 86 77 71 63 75 87 79 63 62
66 58 52 55 59 38 46 65 46 59 51 36 66 55 54 45 45 45 36 35 43 45 36 47 50 39 25 24 22 21 22 22 26 41 122 173 165 170 181 180 179 173 174 180 169 157 161 172 176 164 157 150 131 92 67 37 16 27 18 24 21 16 19 18 16 16 17 19 20 20 16 21 29 33 41 28 47 37 68 39 80 51 5 42 49 42 45 47 21 46
66 56 47 53 57 44 35 66 95 88 91 68 64 51 54 55 38 47 44 42 48 52 50 57 35 20 22 24 20 21 32 27 13 54 153 173 177 186 187 183 179 171 172 176 171 160 167 171 160 149 140 130 122 92 63 19 25 29 21 22 21 12 14 17 17 20 23 25 18 18 20 11 8 12 19 23 55 64 104 111 140 140 117 135 120 124 119 116 119 99
61 42 42 50 43 36 34 36 42 45 92 104 103 73 66 66 48 44 36 41 54 53 36 25 19 22 26 21 14 19 37 36 31 130 182 166 173 182 182 179 176 168 169 176 174 169 170 167 161 156 143 132 125 93 66 22 28 24 19 16 16 27 27 26 21 27 28 36 31 23 23 18 14 13 11 10 6 11 11 22 37 87 102 90 69 126 119 138 130 79
68 46 42 49 37 41 44 35 34 23 22 31 72 86 83 74 64 46 41 53 54 29 17 24 25 24 25 19 17 42 93 91 129 183 174 175 175 178 183 180 171 170 179 181 175 168 165 161 166 165 153 140 120 94 50 22 21 19 16 17 28 34 45 60 76 61 54 54 39 29 26 19 14 16 17 17 13 12 17 12 9 4 8 23 16 21 17 31 21 37
60 42 39 49 49 48 45 39 30 35 36 21 17 53 47 46 63 83 82 60 24 14 18 19 23 20 16 21 22 64 159 168 178 189 182 179 170 168 164 151 153 174 181 183 182 177 173 171 173 172 164 137 98 69 45 27 26 23 23 38 55 63 69 55 40 21 14 13 8 9 11 11 11 13 18 19 16 12 14 19 29 27 18 19 15 24 63 117 113 121
55 36 39 39 35 35 37 32 28 33 20 19 23 13 11 15 32 90 83 21 9 20 22 22 23 13 14 27 15 16 117 207 209 197 193 174 156 125 125 139 166 188 185 188 188 186 182 181 179 171 159 168 135 77 44 26 25 34 45 46 33 19 3 0 1 9 11 12 13 12 10 12 12 12 15 15 13 13 13 9 18 22 16 20 23 17 11 16 61 134
56 43 40 35 37 40 39 44 53 58 48 56 59 66 82 86 73 48 19 6 16 20 21 23 18 14 24 30 25 9 6 52 113 178 206 207 127 89 161 195 188 185 188 188 189 184 185 174 167 183 200 144 58 28 25 20 23 19 12 3 5 10 12 14 13 12 12 12 12 12 12 14 13 10 12 10 11 12 14 8 20 23 23 20 18 18 21 19 7 20
54 42 39 40 37 39 49 49 41 37 44 40 42 40 38 35 12 5 10 19 17 19 22 19 12 15 24 29 46 36 21 7 0 6 34 53 27 77 166 223 229 224 222 227 228 224 219 193 197 177 98 10 1 15 17 12 14 13 15 14 13 12 6 7 10 14 14 12 10 14 12 12 13 11 13 13 11 9 15 11 16 19 28 31 30 30 24 26 28 32
54 35 26 40 35 56 51 24 14 18 32 14 16 14 19 18 9 16 17 23 15 18 16 13 17 24 36 40 43 41 41 39 42 24 5 1 3 3 4 19 41 52 71 104 126 144 149 124 79 14 0 9 17 22 20 12 16 16 12 11 9 11 8 12 15 15 15 15 12 14 12 13 13 11 13 12 13 11 13 13 17 18 21 32 27 31 27 26 29 38
35 40 38 38 39 41 50 48 39 43 54 62 59 54 43 9 14 18 19 20 18 17 13 17 22 36 42 36 33 38 30 43 50 37 27 39 34 29 23 14 9 0 0 0 0 0 0 0 0 7 18 18 23 22 14 8 9 10 11 9 12 13 22 20 12 14 18 16 11 12 10 10 11 12 14 12 12 10 11 11 17 19 13 16 14 16 18 20 30 43
32 27 39 37 38 42 46 50 48 54 57 61 64 78 46 12 17 19 17 12 15 13 14 20 26 38 31 28 42 33 25 35 31 31 37 41 45 46 38 37 43 34 32 38 34 22 19 18 22 24 19 16 17 11 6 11 13 13 12 14 14 16 23 16 10 14 16 13 14 13 14 11 13 11 11 14 20 14 11 13 17 21 18 21 27 19 18 17 19 28
39 23 22 29 26 26 26 30 24 24 21 20 18 23 16 11 15 13 13 15 19 15 18 19 21 28 28 31 33 26 29 26 21 23 33 31 37 36 32 31 40 29 32 30 18 18 19 23 24 21 17 10 12 11 9 13 14 13 13 16 15 22 20 16 13 12 22 27 25 24 19 18 17 15 17 22 19 14 12 6 9 14 12 14 35 34 27 28 29 24
39 22 23 24 20 22 23 23 21 23 23 22 27 31 20 13 19 17 16 13 17 18 17 17 23 27 25 26 25 23 28 24 21 18 31 30 37 37 28 25 28 26 22 17 19 20 20 18 17 15 13 10 15 14 12 15 16 15 17 16 16 15 14 18 19 21 26 23 21 20 19 20 18 17 19 15 9 10 13 5 7 10 11 9 25 40 39 49 26 18
37 20 26 36 28 28 28 22 24 27 29 28 24 15 20 20 16 16 16 13 14 20 17 20 23 19 20 27 23 22 23 18 12 14 25 19 20 22 21 24 23 18 14 20 18 18 19 18 14 11 13 11 11 8 8 11 10 13 15 12 14 11 13 21 21 22 23 21 20 21 23 24 25 23 15 6 8 6 13 13 12 10 10 12 13 22 18 28 21 26
30 21 55 60 57 51 45 40 46 52 53 47 29 13 17 13 14 22 20 20 18 20 17 17 19 17 22 21 19 23 20 18 18 19 21 19 19 19 19 21 18 13 15 17 22 22 17 15 13 10 11 11 13 10 12 10 11 16 13 7 9 11 19 17 19 22 23 24 23 19 20 20 15 12 12 6 9 9 4 15 14 10 10 13 8 19 27 32 25 22
30 56 69 64 63 61 60 61 54 63 64 56 28 10 14 13 14 18 16 20 16 18 17 16 14 17 21 22 18 23 21 18 22 21 20 17 15 15 19 16 17 17 17 23 18 17 16 16 15 14 14 14 12 13 11 9 11 13 12 8 11 13 17 19 19 22 20 21 21 12 7 4 3 7 13 8 3 7 3 9 14 12 8 11 8 16 35 35 40 36
63 68 67 67 61 65 59 63 68 70 60 54 16 12 14 15 19 20 13 14 13 16 19 19 14 14 21 22 20 22 17 13 20 20 18 17 12 18 18 17 21 19 19 15 15 20 15 14 15 13 15 12 14 17 13 13 12 10 10 10 14 18 16 20 21 23 21 19 13 9 6 7 8 9 11 9 11 11 5 4 17 12 9 8 10 11 31 46 49 55
59 37 36 36 34 35 33 37 38 32 27 13 13 18 15 18 25 21 13 11 15 18 21 21 19 18 16 15 19 15 12 18 21 19 17 20 20 19 17 17 20 17 16 14 18 17 12 11 13 15 14 13 13 7 11 13 12 8 10 9 13 23 19 14 14 13 14 11 10 10 11 6 5 6 10 4 10 11 10 3 14 11 6 9 7 8 15 26 23 30
32 18 22 22 23 23 23 20 14 16 10 14 15 18 18 12 15 17 16 21 20 16 16 19 19 17 18 14 16 18 18 18 18 16 17 17 14 12 13 10 16 17 18 20 17 14 12 12 14 14 13 10 8 11 12 14 13 9 10 12 18 16 13 12 9 8 2 10 10 5 8 5 4 4 4 2 3 4 5 0 9 7 3 7 6 11 11 15 16 25
39 30 28 28 26 27 30 30 21 13 12 22 19 17 15 17 21 18 14 17 17 14 14 15 19 17 16 17 17 20 16 15 16 12 15 13 12 12 12 11 12 16 13 17 18 12 12 14 14 12 11 10 8 11 7 10 8 8 11 12 21 16 9 7 2 5 2 9 9 4 3 3 3 0 4 0 4 7 5 1 9 12 6 8 10 14 18 23 21 25
34 25 22 29 29 26 22 17 16 19 17 17 21 21 19 20 20 17 14 13 13 17 20 19 19 18 14 13 14 14 17 13 12 11 12 12 12 12 13 16 14 16 17 11 12 8 11 12 14 12 11 14 12 9 6 5 7 5 7 14 18 12 2 2 2 8 8 7 6 5 9 12 11 9 7 2 12 13 7 2 5 11 3 3 6 10 13 19 25 33
40 28 35 38 28 16 10 14 17 20 21 14 14 16 19 21 21 21 20 19 14 16 17 17 19 18 16 18 20 14 17 19 20 13 12 12 11 13 16 20 18 15 12 9 11 13 13 14 14 13 12 10 10 13 8 6 8 4 11 15 12 7 4 2 2 4 11 13 8 5 3 10 17 15 12 1 4 5 6 4 4 8 2 6 10 11 9 13 21 28
39 28 34 23 11 12 13 16 19 20 19 14 18 14 12 14 15 20 16 18 18 20 19 15 16 16 18 19 19 16 16 16 17 16 13 15 16 16 15 15 13 11 12 10 12 12 12 12 13 12 7 5 10 13 6 7 7 7 17 13 7 6 6 2 0 2 10 13 7 3 2 3 1 4 9 4 7 3 3 3 7 9 2 4 3 7 11 12 20 31
40 32 24 13 12 17 20 18 17 19 17 15 22 18 14 16 13 15 14 14 18 16 17 19 18 12 16 18 20 18 19 14 16 18 12 17 21 14 10 12 14 14 14 13 15 14 11 13 13 8 9 13 14 13 8 6 7 13 13 3 4 7 4 1 2 2 7 8 8 7 6 6 3 1 3 2 7 3 0 0 2 2 2 4 8 10 13 12 20 35
46 33 18 15 15 14 19 17 13 20 15 13 17 19 17 22 22 22 16 17 16 14 18 21 20 17 15 15 16 12 11 11 12 12 17 17 15 13 10 12 16 14 14 17 19 14 11 11 11 11 12 12 11 10 6 12 15 15 6 2 5 10 6 3 3 4 4 5 5 5 4 5 4 1 3 3 3 5 4 1 0 0 5 14 15 14 15 13 17 33
46 27 23 15 15 16 19 19 17 22 23 28 28 27 26 22 22 20 22 24 18 12 14 18 14 13 15 15 16 20 19 17 14 15 19 19 15 14 15 14 14 11 11 12 14 11 10 10 13 15 13 8 5 7 5 8 13 11 7 4 6 8 7 13 14 12 9 11 12 10 11 8 5 5 4 2 3 5 4 2 0 4 9 9 12 11 6 10 19 28
38 19 23 17 16 18 15 20 19 26 28 27 35 19 10 17 20 22 25 26 21 15 12 15 19 17 17 16 15 19 26 27 24 21 15 17 17 18 18 11 12 10 12 11 11 11 9 11 10 12 14 13 11 6 7 8 10 8 9 6 5 9 6 11 12 14 15 14 11 9 8 8 7 9 13 4 4 3 3 2 3 7 11 13 9 5 5 7 14 24
29 18 20 17 16 16 15 21 22 32 24 22 19 20 45 36 20 28 29 23 20 26 29 18 7 0 0 6 3 1 4 5 8 11 15 17 18 13 10 7 7 8 12 11 12 14 14 14 14 14 12 15 14 12 9 7 6 6 6 6 8 12 7 9 10 9 13 13 8 7 11 11 10 11 14 11 6 5 4 2 3 8 6 10 9 9 13 12 9 25
20 18 20 18 17 16 17 23 24 25 32 35 42 64 37 8 25 36 40 35 39 42 20 10 23 64 92 102 98 75 50 29 10 2 0 0 0 1 5 9 9 10 11 13 16 16 14 14 16 12 13 11 11 12 14 14 11 11 13 9 11 12 10 8 8 11 12 12 9 10 12 10 9 5 11 10 5 9 10 4 10 11 8 8 11 11 10 11 12 22
19 23 24 21 18 18 19 22 16 22 34 37 28 16 12 47 37 23 34 25 34 16 24 46 105 116 109 110 108 102 88 80 68 60 39 28 15 7 0 3 11 12 14 13 12 12 11 11 14 12 11 11 12 10 12 14 11 13 12 10 12 13 13 15 11 11 13 17 13 12 11 14 9 5 9 9 8 10 11 6 8 7 11 11 8 8 14 15 10 20
22 17 17 17 14 14 14 16 14 23 32 31 16 23 33 33 13 30 25 19 14 22 27 75 93 85 95 98 96 99 95 79 85 82 69 74 81 82 60 22 6 1 3 7 14 12 8 10 13 13 12 10 12 10 8 10 11 12 13 9 11 15 14 14 12 16 15 19 16 15 14 13 12 12 12 10 9 5 10 9 15 11 9 10 14 13 10 10 11 18
18 16 20 16 16 18 18 15 12 18 24 15 21 30 22 15 19 21 21 18 19 21 25 77 70 67 77 77 72 80 93 91 87 80 70 67 65 70 67 49 26 4 5 3 0 3 8 10 12 12 10 10 12 12 10 12 13 14 16 13 11 13 12 14 14 14 14 13 13 17 17 13 12 14 13 13 12 9 12 8 12 12 9 12 16 14 10 11 9 21
17 17 18 17 21 19 15 18 18 15 15 16 23 23 17 21 21 25 25 17 21 17 24 58 64 59 58 60 60 61 72 75 73 76 78 70 67 65 63 65 72 75 63 43 33 13 6 6 9 9 9 9 10 9 9 9 12 13 8 7 8 9 7 10 9 7 10 12 13 13 14 11 4 8 13 13 12 12 11 5 2 4 13 10 9 9 9 11 8 17
17 19 18 16 18 19 19 22 18 20 19 17 17 15 15 22 20 14 16 18 18 20 13 25 36 27 24 30 42 49 61 61 65 65 69 70 73 71 74 73 78 85 89 93 79 43 15 16 12 3 3 5 7 7 9 8 5 9 20 27 31 30 21 23 18 16 13 14 13 13 12 11 9 10 13 11 8 12 13 7 2 0 3 6 6 4 7 13 8 16
17 16 19 15 13 16 20 16 11 17 18 20 16 18 17 15 16 17 17 20 14 20 13 14 20 14 8 19 36 45 53 55 58 61 66 64 57 61 65 65 41 26 53 95 112 104 57 15 16 24 29 24 47 49 40 38 35 28 23 27 31 33 22 19 24 28 24 25 15 8 4 8 13 16 17 11 10 8 11 12 9 9 8 9 9 10 9 13 11 12
17 12 13 18 15 17 16 13 12 12 12 16 13 19 19 19 20 22 21 16 12 14 6 5 8 14 25 28 32 45 50 50 58 59 62 59 50 53 67 68 48 16 0 9 49 78 87 68 34 26 33 27 31 44 39 28 27 36 30 19 20 29 33 27 17 17 17 18 22 17 10 5 3 10 14 14 15 11 10 5 10 11 14 13 13 12 9 9 7 14
23 18 16 14 14 15 18 17 14 17 18 18 17 21 21 21 18 18 18 15 7 18 40 57 56 62 81 60 24 26 40 39 40 45 41 42 53 36 20 43 81 93 57 5 0 7 31 46 44 34 30 27 19 13 19 27 21 20 27 19 20 21 26 40 32 21 17 21 16 17 15 12 5 10 14 13 13 12 13 10 9 6 11 15 15 12 8 13 10 16
22 15 16 16 11 16 22 16 13 18 19 20 19 17 13 17 17 17 18 16 46 69 63 36 28 77 84 66 45 20 18 29 35 34 37 51 69 67 35 0 19 62 91 85 43 3 3 15 27 39 46 32 27 24 18 19 31 28 26 31 22 17 19 14 25 32 21 11 16 20 19 16 9 11 17 16 14 13 13 14 11 12 11 11 9 8 12 14 10 12
20 16 14 15 18 21 19 16 14 18 20 20 19 14 16 18 17 19 13 26 45 22 11 35 69 70 63 85 78 53 23 13 24 36 35 32 40 62 87 81 25 0 33 68 79 52 21 9 14 20 29 37 29 25 17 15 23 23 24 31 33 26 24 26 18 19 21 15 20 20 17 15 12 12 16 17 15 19 14 13 14 12 11 11 11 11 13 13 11 15
23 14 14 17 20 21 19 19 15 20 20 18 19 13 16 19 19 17 12 28 27 18 55 81 48 28 71 80 63 62 49 32 20 24 31 22 14 11 32 74 97 54 8 11 24 47 62 32 13 9 14 18 18 17 16 18 23 21 20 23 29 31 22 25 29 23 18 17 16 18 17 12 11 13 14 17 17 21 18 15 17 15 14 12 14 14 14 14 14 16
20 14 12 14 12 16 16 15 11 16 18 18 20 21 19 17 19 19 17 29 26 47 59 30 11 49 62 69 76 56 40 38 29 19 20 27 31 25 15 20 51 68 41 15 13 21 35 44 45 20 16 15 11 17 21 18 20 13 11 13 16 17 23 19 18 20 16 14 18 16 19 18 13 15 16 16 14 14 14 11 11 15 14 14 14 13 15 15 15 16
24 16 14 16 15 18 16 14 14 20 20 20 20 19 19 19 15 17 17 23 30 34 23 15 32 40 51 75 50 35 28 27 26 24 19 16 23 30 28 17 14 19 25 27 23 14 12 23 40 35 19 18 18 20 17 17 19 17 16 14 14 12 14 14 12 14 16 14 20 16 13 16 11 12 15 15 12 13 13 14 14 14 12 12 16 13 15 15 13 18
21 14 16 16 15 17 22 22 17 19 18 18 19 13 15 21 19 19 18 17 22 22 26 32 39 58 61 36 19 19 16 16 16 15 17 15 16 19 17 18 15 14 16 15 22 21 15 17 15 18 19 16 20 18 14 20 21 19 20 18 20 20 14 14 16 19 21 19 19 16 18 15 13 14 21 19 14 13 14 12 12 13 11 11 14 15 14 13 13 16
19 14 14 16 16 13 16 18 15 19 16 18 21 16 16 21 18 17 19 21 14 17 27 31 48 52 24 18 15 14 14 17 16 13 15 18 17 15 13 18 16 14 16 17 19 17 14 18 18 13 12 12 14 17 17 15 17 17 17 18 19 19 19 21 21 19 18 20 19 14 13 14 13 13 16 16 16 15 14 12 11 10 8 11 16 15 16 16 15 16
19 14 16 14 18 14 15 16 17 21 19 21 19 14 16 21 19 18 18 18 13 13 18 21 33 22 17 15 17 19 17 21 16 14 14 20 19 18 18 18 16 16 18 15 19 19 14 17 17 14 11 13 13 12 12 12 12 14 12 13 19 16 18 19 17 19 18 21 19 18 18 19 16 11 11 13 14 12 15 11 13 10 10 11 13 14 15 17 14 16
17 16 18 14 14 13 16 18 15 18 15 19 17 14 16 21 15 16 15 15 13 14 18 19 28 23 16 17 21 17 19 17 19 19 17 17 19 17 17 17 17 18 16 17 21 19 14 15 17 13 14 15 15 15 15 15 13 13 11 13 16 15 15 17 16 17 18 19 14 12 20 22 15 13 12 13 13 10 8 10 12 14 14 12 10 12 11 13 13 15
19 12 12 15 16 16 23 22 16 18 15 22 18 15 17 20 20 17 14 16 16 17 19 19 21 18 16 18 18 20 18 16 17 21 19 16 18 20 18 20 22 18 19 18 20 20 17 15 19 18 18 17 13 13 15 13 13 16 14 13 17 14 12 14 19 20 19 21 16 16 14 17 16 13 12 11 10 11 10 8 11 12 10 9 6 8 9 12 10 15
20 13 17 20 24 20 18 17 13 22 19 16 19 14 14 15 15 15 14 14 15 12 19 22 17 12 16 18 14 14 16 21 16 18 17 17 15 18 16 18 18 14 14 14 14 14 15 15 14 14 13 11 14 12 12 14 14 12 12 14 13 13 15 13 12 18 21 18 18 20 15 14 14 17 17 15 11 10 11 4 11 16 12 11 5 5 8 11 10 15
24 21 21 19 17 14 14 15 10 12 13 10 9 8 8 11 11 9 10 10 10 11 14 15 12 11 13 15 13 11 10 15 14 14 15 13 12 13 11 10 8 8 13 13 13 11 9 11 14 14 14 12 13 13 11 13 13 11 11 11 15 15 15 15 11 10 11 14 15 19 16 14 12 16 17 13 9 6 5 2 2 5 9 6 1 0 1 3 1 9
25 20 14 15 13 14 16 15 11 14 8 5 4 1 3 4 6 7 9 12 10 10 11 13 10 4 8 12 10 12 11 11 16 16 16 14 13 14 6 9 11 8 12 10 10 12 12 10 15 16 16 15 13 10 12 13 13 17 15 7 13 11 9 13 11 13 15 14 15 19 15 13 11 11 8 3 6 5 2 3 1 0 0 0 0 0 2 1 0 11
