P2
# Filtro High-Boost
90 90
255
255 255 255 255 255 255 255 255 255 255 255 255 255 255 255 255 255 255 255 255 255 255 255 255 255 255 255 255 255 255 255 255 255 255 255 255 255 255 255 255 255 255 255 255 255 255 255 255 255 255 255 255 255 255 255 255 255 255 255 255 255 255 255 255 255 255 255 255 255 255 255 255 255 255 255 255 255 255 255 255 255 255 255 255 255 255 255 255 255 255
255 226 226 226 226 226 226 226 226 226 226 226 226 226 226 226 226 226 226 226 226 226 226 226 226 226 226 226 226 226 226 226 226 226 226 226 226 226 226 226 226 226 226 226 226 225 223 224 232 244 246 246 244 235 224 223 225 226 226 226 226 226 226 226 226 226 226 226 226 226 226 226 226 226 226 226 226 226 226 226 226 226 226 226 226 226 226 226 226 255
255 226 226 226 226 226 226 226 226 226 226 226 226 226 226 226 226 226 226 226 226 226 226 226 226 226 226 226 226 226 226 226 226 226 226 226 226 226 226 226 226 226 226 225 224 233 250 255 255 247 255 255 248 255 255 255 240 225 224 226 226 226 226 226 226 226 226 226 226 226 226 226 226 226 226 226 226 226 226 226 226 226 226 226 226 226 226 226 226 255
255 226 226 226 226 226 226 226 226 226 226 226 226 226 226 226 226 226 226 226 226 226 226 226 226 226 226 226 226 226 226 226 226 226 226 226 226 226 226 226 226 226 225 235 255 255 253 143 51 0 0 0 0 15 198 209 255 255 245 225 225 226 226 226 226 226 226 226 226 226 226 226 226 226 226 226 226 226 226 226 226 226 226 226 226 226 226 226 226 255
255 226 226 226 226 226 226 226 226 226 226 226 226 226 226 226 226 226 226 226 226 226 226 226 226 226 226 226 226 226 226 226 226 226 226 226 226 226 226 227 226 224 244 255 189 13 0 0 0 0 0 0 0 0 0 0 0 165 255 255 232 224 226 227 226 226 226 226 226 226 226 226 226 226 226 226 226 226 226 226 226 226 226 226 226 226 226 226 226 255
255 226 226 226 226 226 226 226 226 226 226 226 226 226 226 226 226 226 226 226 226 226 226 226 226 226 226 226 226 226 226 226 226 226 226 226 226 226 226 226 222 245 255 102 0 0 0 0 0 0 0 0 0 0 0 0 0 0 0 185 255 251 225 226 227 226 226 226 226 226 226 226 226 226 226 226 226 226 226 226 226 226 226 226 226 226 226 226 226 255
255 226 226 226 226 226 226 226 226 226 226 226 226 226 226 226 226 226 226 226 226 226 226 226 226 226 226 226 226 226 226 226 226 226 226 226 226 226 226 225 246 255 111 0 0 0 0 0 0 0 0 0 0 0 0 14 28 0 0 0 80 253 255 223 226 226 226 226 226 226 226 226 226 226 226 226 226 226 226 226 226 226 226 226 226 226 226 226 226 255
255 226 226 226 226 226 226 226 226 226 226 226 226 226 226 226 226 226 226 226 226 226 226 226 226 226 226 226 226 226 226 226 226 226 226 226 226 226 225 236 255 109 0 0 0 0 0 0 0 0 0 0 0 0 0 40 113 95 22 0 0 28 255 240 225 226 226 226 226 226 226 226 226 226 226 226 226 226 226 226 226 226 226 226 226 226 226 226 226 255
255 226 226 226 226 226 226 226 226 226 226 226 226 226 226 226 226 226 226 226 226 226 226 226 226 226 226 226 226 226 226 226 226 226 226 226 226 226 224 255 169 0 0 0 0 0 0 0 0 0 0 0 0 0 0 32 146 160 81 23 0 0 180 255 227 225 226 226 226 226 226 226 226 226 226 226 226 226 226 226 226 226 226 226 226 226 226 226 226 255
255 226 226 226 226 226 226 226 226 226 226 226 226 226 226 226 226 226 226 226 226 226 226 226 226 226 226 226 226 226 226 226 226 226 226 226 226 225 237 255 27 0 0 0 0 0 0 0 0 0 0 0 0 0 0 53 133 101 49 39 12 0 0 241 251 224 226 226 226 226 226 226 226 226 226 226 226 226 226 226 226 226 226 226 226 226 226 226 226 255
255 226 226 226 226 226 226 226 226 226 226 226 226 226 226 226 226 226 226 226 226 226 226 226 226 226 226 226 226 226 226 226 226 226 226 226 226 223 255 167 0 0 0 0 0 0 0 0 0 0 0 0 0 0 1 41 50 12 0 3 0 0 0 203 255 226 225 226 226 226 226 226 226 226 226 226 226 226 226 226 226 226 226 226 226 226 226 226 226 255
255 226 226 226 226 226 226 226 226 226 226 226 226 226 226 226 226 226 226 226 226 226 226 226 226 226 226 226 226 226 226 226 226 226 226 226 226 222 255 115 0 0 0 0 0 0 0 0 0 0 0 0 0 0 1 6 0 0 0 0 0 0 0 0 239 255 224 226 226 226 226 226 226 226 226 226 226 226 226 226 226 226 226 226 226 226 226 226 226 255
255 226 226 226 226 226 226 226 226 226 226 226 226 226 226 226 226 226 226 226 226 226 226 226 226 226 226 226 226 226 226 226 226 226 226 226 226 225 255 120 0 0 0 0 0 0 0 0 0 0 0 0 0 0 0 0 0 0 0 0 0 0 0 0 76 255 228 226 226 226 226 226 226 226 226 226 226 226 226 226 226 226 226 226 226 226 226 226 226 255
255 226 226 226 226 226 226 226 226 226 226 226 226 226 226 226 226 226 226 226 226 226 226 226 226 226 226 226 226 226 226 226 226 226 226 226 225 233 255 38 0 0 0 1 6 2 0 0 0 0 0 0 0 0 0 0 11 0 0 0 0 0 0 0 0 255 233 225 226 226 226 226 226 226 226 226 226 226 226 226 226 226 226 226 226 226 226 226 226 255
255 226 226 226 226 226 226 226 226 226 226 226 226 226 226 226 226 226 226 226 226 226 226 226 226 226 226 226 226 226 226 226 226 226 226 226 225 235 255 46 0 0 0 0 0 37 12 0 0 0 0 0 0 0 0 0 0 71 20 0 0 0 0 0 3 255 238 225 226 226 226 226 226 226 226 226 226 226 226 226 226 226 226 226 226 226 226 226 226 255
255 226 226 226 226 226 226 226 226 226 226 226 226 226 226 226 226 226 226 226 226 226 226 226 226 226 226 226 226 226 226 226 226 226 226 226 225 235 255 36 0 0 0 31 50 0 47 12 0 0 0 0 0 86 141 142 90 10 41 2 0 0 0 0 0 208 254 224 226 226 226 226 226 226 226 226 226 226 226 226 226 226 226 226 226 226 226 226 226 255
255 226 226 226 226 226 226 226 226 226 226 226 226 226 226 226 226 226 226 226 226 226 226 226 226 226 226 226 226 226 226 226 226 226 226 226 225 235 255 40 0 0 70 208 222 98 0 0 0 0 0 0 124 180 184 220 247 103 0 5 1 0 0 0 0 190 255 223 226 226 226 226 226 226 226 226 226 226 226 226 226 226 226 226 226 226 226 226 226 255
255 226 226 226 226 226 226 226 226 226 226 226 226 226 226 226 226 226 226 226 226 226 226 226 226 226 226 226 226 226 226 226 226 226 226 226 225 235 255 45 0 11 190 255 255 255 92 0 0 0 0 111 252 255 255 255 252 164 11 0 0 0 0 0 0 121 255 222 226 226 226 226 226 226 226 226 226 226 226 226 226 226 226 226 226 226 226 226 226 255
255 226 226 226 226 226 226 226 226 226 226 226 226 226 226 226 226 226 226 226 226 226 226 226 226 226 226 226 226 226 226 226 226 226 226 226 225 234 255 41 0 78 255 143 138 255 255 0 0 0 0 234 255 247 83 124 255 255 122 0 0 0 0 0 0 134 255 221 226 226 226 226 226 226 226 226 226 226 226 226 226 226 226 226 226 226 226 226 226 255
255 226 226 226 226 226 226 226 226 226 226 226 226 226 226 226 226 226 226 226 226 226 226 226 226 226 226 226 226 226 226 226 226 226 226 226 226 228 255 77 0 144 160 0 18 123 255 62 0 10 0 255 255 0 0 69 66 255 255 0 0 0 0 0 0 133 255 221 226 226 226 226 226 226 226 226 226 226 226 226 226 226 226 226 226 226 226 226 226 255
255 226 226 226 226 226 226 226 226 226 226 226 226 226 226 226 226 226 226 226 226 226 226 226 226 226 226 226 226 226 226 226 226 226 226 226 226 222 255 137 0 169 107 0 94 67 255 75 0 11 0 255 250 0 0 13 0 217 255 10 0 0 0 0 0 133 255 221 226 226 226 226 226 226 226 226 226 226 226 226 226 226 226 226 226 226 226 226 226 255
255 226 226 226 226 226 226 226 226 226 226 226 226 226 226 226 226 226 226 226 226 226 226 226 226 226 226 226 226 226 226 226 226 226 226 226 226 221 255 124 0 128 149 0 19 14 228 49 0 6 0 183 228 0 0 0 0 152 255 6 0 0 0 0 0 136 255 222 226 226 226 226 226 226 226 226 226 226 226 226 226 226 226 226 226 226 226 226 226 255
255 226 226 226 226 226 226 226 226 226 226 226 226 226 226 226 226 226 226 226 226 226 226 226 226 226 226 226 226 226 226 226 226 226 226 226 226 221 255 125 0 19 255 0 0 4 168 191 207 194 149 143 134 0 0 0 0 255 255 15 0 0 0 0 0 132 255 223 226 226 226 226 226 226 226 226 226 226 226 226 226 226 226 226 226 226 226 226 226 255
255 226 226 226 226 226 226 226 226 226 226 226 226 226 226 226 226 226 226 226 226 226 226 226 226 226 226 226 226 226 226 226 226 226 226 226 226 222 255 116 0 0 255 209 20 168 188 200 207 192 159 188 226 169 37 38 219 255 156 0 0 0 0 0 0 63 255 228 226 226 226 226 226 226 226 226 226 226 226 226 226 226 226 226 226 226 226 226 226 255
255 226 226 226 226 226 226 226 226 226 226 226 226 226 226 227 232 235 236 235 235 235 235 235 236 235 231 228 226 226 226 226 226 226 226 226 226 222 255 194 0 0 52 198 170 200 195 188 188 192 196 194 196 211 223 196 198 195 0 0 0 0 0 0 0 34 255 235 225 226 226 226 226 226 226 226 226 226 226 226 226 226 226 226 226 226 226 226 226 255
255 226 226 226 226 226 226 226 226 226 226 226 226 227 233 230 213 198 202 202 202 202 202 202 202 199 211 229 229 232 227 227 226 226 226 226 226 223 255 205 0 0 68 129 176 183 182 189 190 188 187 185 189 185 177 183 182 208 153 0 0 0 0 0 0 0 255 239 225 226 226 226 226 226 226 226 226 226 226 226 226 226 226 226 226 226 226 226 226 255
255 226 226 226 226 226 226 226 226 226 226 226 228 237 223 207 210 209 215 214 213 215 215 213 213 214 215 218 219 219 231 229 226 226 226 226 226 223 255 212 0 56 166 161 182 183 182 194 188 187 185 190 191 183 185 182 138 170 217 0 0 0 0 0 0 0 255 243 224 226 226 226 226 226 226 226 226 226 226 226 226 226 226 226 226 226 226 226 226 255
255 226 226 226 226 226 226 226 226 226 226 226 236 199 173 211 223 214 214 230 227 224 218 228 232 217 211 212 203 184 197 236 226 226 226 226 226 223 255 210 0 79 175 174 177 186 184 191 187 190 189 191 195 202 157 147 135 166 178 0 0 0 0 0 0 0 228 255 223 226 226 226 226 226 226 226 226 226 226 226 226 226 226 226 226 226 226 226 226 255
255 226 226 226 226 226 226 226 226 226 226 226 236 201 172 198 189 195 195 200 200 197 191 202 204 192 196 192 195 175 183 238 226 226 226 226 226 223 255 203 0 0 74 163 208 195 193 191 187 197 199 199 156 113 119 162 168 179 96 0 0 21 33 0 0 0 54 255 232 225 226 226 226 226 226 226 226 226 226 226 226 226 226 226 226 226 226 226 226 255
255 226 226 226 226 226 226 226 226 226 226 226 228 240 207 194 200 198 200 199 194 196 197 198 194 191 199 201 202 197 227 232 226 226 226 226 226 223 255 181 0 0 38 41 150 205 201 196 193 169 130 61 70 129 169 152 138 125 116 0 0 59 178 115 19 0 0 225 255 224 226 226 226 226 226 226 226 226 226 226 226 226 226 226 226 226 226 226 226 255
255 226 226 226 226 226 226 226 226 226 226 226 226 232 218 203 190 174 181 193 178 180 177 182 186 179 173 188 198 210 231 229 226 226 226 226 226 224 246 255 0 11 252 107 46 104 138 136 113 93 112 125 168 165 124 147 202 202 249 19 0 0 130 198 132 0 0 65 255 230 225 226 226 226 226 226 226 226 226 226 226 226 226 226 226 226 226 226 226 255
255 226 226 226 226 226 226 226 226 226 226 226 226 233 225 187 172 160 175 169 165 164 168 162 173 167 163 176 185 204 239 226 226 226 226 226 227 223 242 255 0 0 255 203 117 78 150 183 173 179 179 159 136 125 134 188 203 211 214 126 0 0 24 159 178 18 0 0 212 255 223 226 226 226 226 226 226 226 226 226 226 226 226 226 226 226 226 226 226 255
255 226 226 226 226 226 226 226 226 226 226 226 226 229 222 211 184 169 177 173 171 164 167 169 176 177 176 176 206 223 231 226 226 226 226 226 226 224 255 178 0 5 230 202 195 98 59 112 122 117 92 90 109 174 192 191 241 255 252 237 0 0 0 14 27 0 0 0 67 255 233 225 226 226 226 226 226 226 226 226 226 226 226 226 226 226 226 226 226 255
255 226 226 226 226 226 226 226 226 226 226 226 226 227 236 220 178 169 171 174 170 169 169 169 172 171 167 179 213 234 227 226 226 226 226 226 223 251 249 9 0 2 248 214 196 191 139 82 83 79 99 164 197 186 193 240 255 255 255 255 126 0 0 0 0 0 0 0 0 192 255 226 226 226 226 226 226 226 226 226 226 226 226 226 226 226 226 226 226 255
255 226 226 226 226 226 226 226 226 226 226 226 226 226 232 214 191 170 168 165 162 164 165 165 169 164 165 189 237 232 226 226 226 226 226 224 238 255 91 0 0 19 255 241 181 186 214 204 206 208 198 196 194 214 230 255 252 248 247 255 255 0 0 0 0 0 0 0 0 1 255 247 224 226 226 226 226 226 226 226 226 226 226 226 226 226 226 226 226 255
255 226 226 226 226 226 226 226 226 226 226 226 226 226 233 238 132 155 160 149 149 154 156 152 152 154 155 125 220 237 226 226 226 224 226 254 255 175 0 0 0 158 255 255 236 168 177 193 186 183 170 197 229 255 255 252 248 248 248 252 255 134 0 0 0 0 0 0 0 0 135 255 227 225 227 226 226 226 226 226 226 226 226 226 226 226 226 226 226 255
255 226 226 226 226 226 226 226 226 226 226 226 226 226 232 249 47 90 149 150 147 147 147 147 147 154 97 51 248 232 223 224 223 231 255 252 35 0 0 0 91 255 255 251 255 204 178 173 162 178 211 254 255 253 248 248 248 248 248 246 255 255 0 0 0 0 0 0 0 0 0 214 255 221 226 227 226 226 226 226 226 226 226 226 226 226 226 226 226 255
255 226 226 226 226 226 226 226 226 226 226 226 226 226 224 255 113 64 152 143 140 140 140 140 140 157 75 80 255 236 246 248 255 255 225 23 0 0 0 14 255 255 248 248 254 255 231 201 214 238 255 255 249 248 248 248 248 248 248 247 255 255 79 0 0 0 0 0 0 0 0 45 255 247 223 226 226 226 226 226 226 226 226 226 226 226 226 226 226 255
255 226 226 226 226 226 226 226 226 226 226 226 226 226 223 255 130 61 160 144 140 144 148 140 143 168 64 104 255 255 239 255 234 72 0 0 0 0 0 165 255 253 248 248 248 253 255 249 255 255 252 248 248 248 248 248 248 248 248 248 246 255 213 0 0 0 0 0 0 0 0 0 102 255 244 225 226 226 226 226 226 226 226 226 226 226 226 226 226 255
255 226 226 226 226 226 226 226 226 226 226 226 226 226 223 255 144 57 158 148 136 142 146 136 145 165 85 81 161 25 0 0 0 0 0 0 0 0 36 255 255 247 248 248 248 248 248 253 251 248 248 248 248 248 248 248 248 248 248 249 249 255 255 0 0 0 0 0 0 0 0 0 0 99 255 229 225 226 226 226 226 226 226 226 226 226 226 226 226 255
255 226 226 226 226 226 226 226 226 226 226 226 226 226 224 255 140 59 153 148 144 145 145 145 145 158 109 39 0 0 0 0 0 0 0 0 0 0 123 255 255 250 248 249 249 252 253 251 252 253 249 249 248 249 249 251 251 252 255 255 245 255 255 73 0 0 0 0 0 0 0 0 0 0 243 255 225 226 226 226 226 226 226 226 226 226 226 226 226 255
255 226 226 226 226 226 226 226 226 226 226 226 226 226 224 255 142 74 153 130 139 131 129 139 127 150 123 70 0 0 0 0 0 0 0 0 0 0 164 238 255 255 250 249 250 247 240 228 227 242 248 249 248 250 249 250 253 255 243 236 224 226 255 195 0 0 0 0 0 0 0 0 0 0 0 255 248 224 226 226 226 226 226 226 226 226 226 226 226 255
255 226 226 226 226 226 226 226 226 226 226 226 226 226 223 255 148 78 156 142 140 140 142 142 138 156 130 67 0 0 0 0 0 0 0 0 0 48 169 153 199 221 237 250 250 236 221 209 221 232 250 249 248 252 236 209 191 189 177 181 190 174 227 255 8 0 0 0 0 0 0 0 0 0 0 141 255 237 225 226 226 226 226 226 226 226 226 226 226 255
255 226 226 226 226 226 226 226 226 226 226 226 226 225 233 255 163 87 132 109 131 116 111 134 107 127 126 69 0 0 0 0 0 0 0 0 0 94 176 167 216 238 247 252 249 254 233 233 255 252 250 248 248 250 249 244 223 206 199 185 184 175 181 255 212 0 0 76 31 0 0 0 0 0 0 0 125 255 225 226 226 226 226 226 226 226 226 226 226 255
255 226 226 226 226 226 226 226 226 226 226 226 225 228 255 155 18 114 136 100 116 105 99 119 95 125 130 70 0 0 0 0 0 0 3 0 0 149 230 255 255 255 250 249 248 253 235 239 253 248 248 248 248 249 249 255 255 255 255 245 225 197 175 203 255 45 0 10 31 47 6 0 0 0 0 0 39 255 235 225 226 226 226 226 226 226 226 226 226 255
255 226 226 226 226 226 226 226 226 226 226 226 224 255 233 0 0 97 154 132 142 128 128 141 131 157 98 67 0 20 4 0 0 22 46 0 28 247 255 255 250 248 248 248 248 249 250 248 249 248 248 248 248 248 248 248 248 250 252 255 255 250 223 171 249 206 0 0 0 23 46 0 0 0 0 0 0 168 255 226 226 226 226 226 226 226 226 226 226 255
255 226 226 226 226 226 226 226 226 226 226 226 228 255 55 0 40 81 112 72 93 67 59 96 70 108 60 72 0 31 5 0 0 65 0 0 163 255 255 248 248 248 248 248 248 248 249 249 249 248 248 248 248 248 248 248 248 248 248 248 249 255 255 222 196 255 48 0 0 0 23 22 0 0 0 0 0 0 255 233 225 226 226 226 226 226 226 226 226 255
255 226 226 226 226 226 226 226 226 226 226 226 228 255 10 0 67 116 91 59 88 70 61 91 59 95 98 72 0 55 0 0 20 39 0 21 255 255 247 248 248 248 248 248 248 248 248 248 248 248 248 248 248 248 248 248 248 248 248 248 248 248 252 255 217 241 199 0 0 48 28 43 7 0 0 0 0 0 211 255 223 226 226 226 226 226 226 226 226 255
255 226 226 226 226 226 226 226 226 226 226 226 224 255 197 0 42 78 96 81 109 89 78 114 76 107 61 64 60 24 0 0 63 0 0 189 255 247 248 248 248 248 248 248 249 251 249 249 248 248 248 248 248 248 248 248 248 248 248 248 248 248 248 253 250 255 255 0 0 101 57 21 45 0 0 0 0 0 164 255 223 226 226 226 226 226 226 226 226 255
255 226 226 226 226 226 226 226 226 226 226 226 225 235 255 71 19 60 102 25 76 30 20 86 23 94 34 183 92 0 0 17 47 0 26 255 255 247 248 248 248 248 248 248 250 245 249 249 248 248 248 248 248 248 248 248 248 248 248 248 248 248 248 248 250 255 255 106 0 54 26 0 72 23 0 0 0 0 108 255 228 226 226 226 226 226 226 226 226 255
255 226 226 226 226 226 226 226 226 226 226 226 226 223 249 255 117 50 123 70 107 73 62 109 67 119 66 98 21 0 0 33 8 0 166 255 247 248 248 248 248 248 248 249 252 228 241 252 248 248 248 248 248 248 248 248 248 248 248 248 248 248 248 248 248 246 255 175 0 0 0 0 30 45 0 0 0 0 0 255 242 224 226 226 226 226 226 226 226 255
255 226 226 226 226 226 226 226 226 226 226 226 227 225 233 255 19 0 55 0 82 52 43 91 0 39 0 40 40 0 0 4 0 6 255 255 247 248 248 248 248 248 248 251 247 222 245 252 248 248 248 248 248 248 248 248 248 248 248 248 248 248 248 248 248 246 255 220 0 0 0 0 0 47 0 0 0 0 0 175 255 223 226 226 226 226 226 226 226 255
255 226 226 226 226 226 226 226 226 226 226 226 226 225 243 255 67 66 116 35 97 50 35 102 32 100 84 101 40 0 0 0 0 137 255 250 248 248 248 248 248 248 248 252 242 226 248 252 248 248 248 248 248 248 248 248 248 248 248 248 248 248 248 248 248 246 255 255 0 0 0 0 0 60 3 0 0 0 0 94 255 227 226 226 226 226 226 226 226 255
255 226 226 226 226 226 226 226 226 226 226 226 226 226 255 161 0 35 151 101 116 92 83 119 90 146 66 31 107 0 0 0 0 221 255 246 248 248 248 248 248 248 248 253 240 215 248 251 248 248 248 248 248 248 248 248 248 248 248 248 248 248 248 248 248 246 255 254 0 0 0 0 0 61 0 0 0 0 0 0 253 240 225 226 226 226 226 226 226 255
255 226 226 226 226 226 226 226 226 226 226 226 226 226 255 129 0 20 139 24 110 55 37 119 21 112 51 0 118 0 0 0 0 255 255 247 248 248 248 248 248 248 248 253 241 211 253 251 248 248 248 248 248 248 248 248 248 248 248 248 248 248 248 248 248 247 255 255 13 0 0 0 0 41 0 0 0 0 0 0 255 250 224 226 226 226 226 226 226 255
255 226 226 226 226 226 226 226 226 226 226 226 226 225 247 225 21 20 48 0 91 17 0 98 0 36 104 71 56 0 0 0 44 255 255 247 248 248 248 248 248 248 248 255 238 213 249 251 248 248 248 248 248 248 248 248 248 248 248 248 248 248 248 248 248 247 254 255 33 0 0 0 8 24 0 0 0 0 0 0 176 255 225 226 226 226 226 226 226 255
255 226 226 226 226 226 226 226 226 226 226 226 226 226 228 255 232 205 80 50 103 65 55 103 67 79 56 48 0 0 0 0 87 255 255 247 248 248 248 248 248 248 248 255 228 215 252 251 248 248 248 248 248 248 248 248 248 248 248 248 248 248 248 248 248 247 252 255 26 0 0 0 19 35 0 0 0 0 0 0 131 255 223 226 226 226 226 226 226 255
255 226 226 226 226 226 226 226 226 226 226 226 226 226 226 227 242 255 255 255 255 255 255 255 255 255 0 0 0 0 0 0 59 255 255 247 248 248 248 248 248 248 248 255 231 222 255 248 248 248 248 248 248 248 248 248 248 248 248 248 248 248 248 248 248 248 252 255 26 0 0 0 30 18 0 0 0 0 0 0 45 255 224 226 226 226 226 226 226 255
255 226 226 226 226 226 226 226 226 226 226 226 226 226 226 226 225 225 229 232 232 232 232 228 255 131 0 0 8 14 0 0 131 255 255 247 248 248 248 248 248 248 248 255 232 227 254 248 248 248 248 248 248 248 248 248 248 248 248 248 248 248 248 248 248 248 250 255 92 0 0 0 46 2 0 0 0 0 0 0 49 255 224 226 226 226 226 226 226 255
255 226 226 226 226 226 226 226 226 226 226 226 226 226 226 226 226 226 226 226 225 225 225 221 255 91 0 0 0 10 1 0 177 255 252 248 248 248 248 248 248 248 248 253 227 229 254 248 248 248 248 248 248 248 248 248 248 248 248 248 248 248 248 248 248 248 248 255 111 0 0 9 34 0 0 0 0 0 0 0 111 255 224 226 226 226 226 226 226 255
255 226 226 226 226 226 226 226 226 226 226 226 226 226 226 226 226 226 226 226 226 226 226 222 255 99 0 0 0 0 0 0 177 255 249 248 248 248 248 248 248 248 248 255 222 220 255 248 248 248 248 248 248 248 248 248 248 248 248 248 248 248 248 248 248 247 251 255 41 0 15 47 22 20 31 9 0 0 0 0 165 255 223 226 226 226 226 226 226 255
255 226 226 226 226 226 226 226 226 226 226 226 226 226 226 226 226 226 226 226 226 226 226 222 255 98 0 36 165 114 0 0 204 255 249 248 248 248 248 248 248 248 248 255 223 219 255 248 248 248 248 248 248 248 248 248 248 248 248 248 248 248 248 248 252 255 255 255 9 0 25 9 0 4 21 28 47 52 0 0 138 255 223 226 226 226 226 226 226 255
255 226 226 226 226 226 226 226 226 226 226 226 226 226 226 226 226 226 226 226 226 226 226 224 255 204 107 217 240 253 158 0 68 255 255 247 248 248 248 248 248 248 248 255 226 224 255 248 248 248 248 248 248 248 248 248 248 248 248 248 248 248 248 255 255 235 252 184 0 0 0 0 0 0 0 0 0 98 7 0 235 255 224 226 226 226 226 226 226 255
255 226 226 226 226 226 226 226 226 226 226 226 226 226 226 226 226 226 226 226 226 226 226 230 254 186 174 205 184 188 238 120 0 255 255 247 248 248 248 248 248 248 248 254 228 228 254 248 248 248 248 248 248 248 248 248 248 248 248 248 248 248 249 255 198 164 168 207 109 0 0 0 0 0 0 0 0 29 0 91 243 251 227 226 226 226 226 226 226 255
255 226 226 226 226 226 226 226 226 226 226 226 226 226 226 226 226 226 226 226 226 225 227 255 173 118 160 186 190 187 190 223 138 214 255 249 248 248 248 248 248 248 248 253 227 223 252 249 248 248 248 248 248 248 248 248 248 248 248 248 248 248 255 247 139 176 170 224 146 0 0 0 0 0 0 0 5 0 113 216 102 205 241 225 226 226 226 226 226 255
255 226 226 226 226 226 226 226 226 226 226 226 226 226 226 226 226 226 226 224 224 228 255 224 112 135 164 191 187 181 186 191 199 145 232 255 247 248 248 248 248 248 248 253 235 223 250 249 248 248 248 248 248 248 248 248 248 248 248 248 248 247 255 246 139 183 193 202 81 0 0 0 0 0 0 0 0 30 200 199 134 201 244 225 226 226 226 226 226 255
255 226 226 226 226 226 226 226 226 226 226 226 226 226 226 226 225 225 231 248 255 255 226 105 118 165 181 189 184 187 187 182 194 153 157 255 254 248 248 248 248 248 248 249 251 251 250 249 248 248 248 248 248 248 248 248 248 248 248 248 249 253 255 240 147 182 194 176 90 0 0 0 0 0 0 0 0 181 219 192 138 202 244 225 226 226 226 226 226 255
255 226 226 226 226 226 226 226 226 226 226 226 226 226 226 228 243 247 252 182 174 149 92 119 155 179 187 187 183 187 185 188 183 203 138 184 255 249 248 248 248 248 248 248 248 248 248 248 248 248 248 248 248 248 248 248 248 248 248 248 252 252 215 196 151 185 192 156 130 77 0 0 0 0 0 21 128 206 194 194 136 208 244 225 226 226 226 226 226 255
255 226 226 226 226 226 226 226 226 226 226 226 226 226 226 243 212 166 165 109 80 122 139 169 177 183 186 186 187 187 183 184 179 196 175 122 255 255 247 248 248 248 248 248 248 248 248 248 248 248 248 248 248 248 248 248 248 248 248 248 255 241 187 196 155 178 187 154 137 133 98 61 48 59 89 136 156 176 175 192 169 199 249 227 226 226 226 226 226 255
255 226 226 226 226 226 226 226 226 226 226 226 226 226 231 238 98 110 174 185 184 190 183 182 180 185 183 185 189 187 186 186 182 182 212 134 88 255 252 248 248 248 248 248 248 248 248 248 248 248 248 248 248 248 248 248 248 248 248 248 255 243 194 204 146 162 188 161 145 131 136 147 153 145 142 154 175 186 182 187 191 125 204 245 226 226 226 226 226 255
255 226 226 226 226 226 226 226 226 226 226 226 226 226 232 234 147 172 184 183 180 181 186 182 186 181 184 191 187 182 182 188 188 179 189 205 98 225 255 247 248 248 248 248 248 248 248 248 248 248 248 248 248 248 248 248 248 248 248 248 255 242 194 209 159 152 188 159 153 149 146 139 146 138 153 176 192 194 182 187 192 177 164 241 238 226 226 226 226 255
255 226 226 226 226 226 226 226 226 226 226 226 226 226 234 235 142 178 189 187 186 190 190 188 182 186 187 185 183 184 184 184 185 185 185 201 161 160 255 253 248 248 248 248 248 248 248 248 248 248 248 248 248 248 248 248 248 248 248 248 254 248 201 214 130 118 164 156 163 163 153 153 159 168 176 179 187 184 183 189 189 192 155 150 241 245 228 226 226 255
255 226 226 226 226 226 226 226 226 226 226 226 226 225 238 216 120 183 187 184 191 191 179 185 185 189 183 185 187 185 186 184 187 189 185 186 196 133 215 255 248 248 248 248 248 248 248 248 248 248 248 248 248 248 248 248 248 248 248 248 250 255 224 209 85 120 162 171 175 177 171 177 178 179 178 180 185 184 188 186 183 188 199 154 168 201 244 228 226 255
255 226 226 226 226 226 226 226 226 226 226 226 226 226 237 221 99 166 190 186 185 187 185 190 185 187 188 187 189 185 185 189 181 183 187 185 198 177 127 255 255 248 248 248 248 248 248 248 248 248 248 248 248 248 248 248 248 248 248 247 252 255 238 73 87 147 161 178 178 182 180 179 178 177 177 186 188 188 184 180 184 186 190 193 181 123 209 241 227 255
255 226 226 226 226 226 226 226 226 226 226 226 226 226 227 255 151 128 189 185 187 189 187 184 179 187 188 186 185 185 187 187 181 188 185 183 182 200 155 163 255 255 247 248 248 248 248 248 248 248 248 248 248 248 248 248 248 248 247 252 255 255 24 0 108 146 161 179 181 190 189 178 183 186 189 188 183 186 182 186 186 187 186 186 194 181 173 224 232 255
255 226 226 226 226 226 226 226 226 226 226 226 226 226 225 255 165 114 186 187 186 187 179 186 184 187 189 185 186 181 187 181 187 189 183 184 184 185 191 107 198 255 248 248 248 248 248 248 248 248 248 248 248 248 248 248 247 246 255 255 255 16 0 14 128 155 167 180 185 190 188 186 188 186 187 185 185 190 184 188 185 185 187 188 185 189 177 216 237 255
255 226 226 226 226 226 226 226 226 226 226 226 226 226 224 250 173 113 181 184 182 186 185 186 185 181 189 185 185 183 189 187 185 187 184 186 185 176 203 173 134 255 255 247 247 248 248 248 248 248 248 248 248 247 246 246 255 255 255 179 0 0 0 30 122 159 169 180 188 185 181 187 185 185 183 189 189 183 185 183 187 187 189 183 188 197 157 198 239 255
255 226 226 226 226 226 226 226 226 226 226 226 226 226 225 255 185 121 182 188 186 189 187 185 190 185 188 185 187 191 185 187 183 185 186 182 185 183 191 205 106 116 255 255 254 246 246 246 246 246 246 246 251 255 255 255 255 255 67 0 0 0 0 35 125 157 161 177 186 185 189 187 185 184 185 187 185 185 189 187 187 183 189 194 191 144 122 222 235 255
255 226 226 226 226 226 226 226 226 226 226 226 226 226 233 246 140 129 184 193 187 182 188 184 184 183 183 185 189 187 183 183 188 185 189 183 185 182 175 175 159 65 74 252 255 255 255 255 255 255 255 255 255 255 255 200 62 0 0 0 0 0 0 35 142 152 161 181 188 187 185 187 185 185 187 187 184 183 183 187 192 195 188 157 141 170 226 245 227 255
255 226 226 226 226 226 226 226 226 226 226 226 226 226 240 201 129 155 180 182 184 186 188 183 190 191 186 192 179 187 187 183 188 183 189 187 186 184 179 168 159 129 0 0 107 184 228 246 247 219 182 128 98 29 0 0 0 0 0 0 0 0 0 49 142 159 168 186 189 185 179 187 187 187 185 185 184 187 193 193 180 145 139 174 225 248 237 227 226 255
255 226 226 226 226 226 226 226 226 226 226 226 226 226 242 165 132 160 157 164 165 175 178 184 184 184 189 190 186 191 189 189 186 182 183 189 185 187 188 174 160 141 57 0 0 0 0 0 0 0 0 0 0 0 0 0 0 0 0 0 0 0 0 76 137 156 163 188 191 187 183 186 188 186 189 188 188 195 185 152 119 161 234 249 237 227 226 226 226 255
255 226 226 226 226 226 226 226 226 226 226 226 226 226 236 224 141 115 132 150 148 154 158 158 157 159 171 182 180 187 191 187 183 188 183 183 190 189 185 162 146 120 96 10 0 0 0 0 0 0 0 0 0 0 0 0 0 0 0 0 0 0 1 84 120 144 152 179 192 192 190 187 185 184 191 184 184 170 90 164 231 253 235 226 226 226 226 226 226 255
255 226 226 226 226 226 226 226 226 226 226 226 226 226 227 248 221 97 89 58 85 117 119 134 151 151 135 150 161 160 169 184 189 194 193 193 192 186 173 141 122 116 84 8 0 0 0 0 0 0 0 0 0 0 0 0 0 0 0 0 0 0 0 68 119 140 144 155 176 182 184 179 181 169 164 163 124 68 141 255 242 226 226 226 226 226 226 226 226 255
255 226 226 226 226 226 226 226 226 226 226 226 226 226 226 228 241 255 229 137 150 57 94 80 86 116 119 122 137 135 133 157 175 171 175 172 169 157 138 119 110 102 54 0 0 0 0 0 0 0 0 0 0 0 0 0 0 0 0 0 161 53 0 32 107 123 126 144 153 157 160 152 149 145 134 93 57 142 255 238 225 226 226 226 226 226 226 226 226 255
255 226 226 226 226 226 226 226 226 226 226 226 226 226 226 226 226 230 243 255 255 236 253 170 117 44 42 61 63 83 109 126 129 134 135 137 133 127 115 103 103 65 0 0 82 95 179 204 255 255 255 255 255 255 255 255 255 255 255 255 255 255 75 14 93 117 115 125 130 144 138 135 140 123 66 70 232 255 236 225 226 226 226 226 226 226 226 226 226 255
255 226 226 226 226 226 226 226 226 226 226 226 226 226 226 226 226 226 225 224 227 235 239 255 255 221 220 148 96 114 39 43 83 114 122 125 112 112 104 93 45 5 92 215 255 255 255 255 245 242 242 242 242 242 242 242 242 243 244 236 224 255 241 0 26 111 124 121 112 122 128 129 108 40 89 242 255 229 225 226 226 226 226 226 226 226 226 226 226 255
255 226 226 226 226 226 226 226 226 226 226 226 226 226 226 226 226 226 226 226 226 226 225 225 229 243 253 255 255 255 208 151 64 34 51 77 79 80 68 23 0 181 255 255 231 222 222 224 224 224 224 224 224 224 224 224 224 224 224 225 225 229 255 167 0 3 63 96 107 107 91 49 26 99 243 255 226 225 226 226 226 226 226 226 226 226 226 226 226 255
255 226 226 226 226 226 226 226 226 226 226 226 226 226 226 226 226 226 226 226 226 226 226 226 226 225 224 224 224 230 254 255 255 158 52 36 43 34 17 17 184 255 231 223 225 226 226 226 226 226 226 226 226 226 226 226 226 226 226 226 226 225 236 255 204 68 0 33 35 38 15 65 198 255 245 226 225 226 226 226 226 226 226 226 226 226 226 226 226 255
255 226 226 226 226 226 226 226 226 226 226 226 226 226 226 226 226 226 226 226 226 226 226 226 226 226 226 226 226 225 224 225 241 255 255 253 253 253 254 254 255 232 225 226 226 226 226 226 226 226 226 226 226 226 226 226 226 226 226 226 226 226 225 229 255 255 251 254 250 250 245 255 255 231 225 226 226 226 226 226 226 226 226 226 226 226 226 226 226 255
255 255 255 255 255 255 255 255 255 255 255 255 255 255 255 255 255 255 255 255 255 255 255 255 255 255 255 255 255 255 255 255 255 255 255 255 255 255 255 255 255 255 255 255 255 255 255 255 255 255 255 255 255 255 255 255 255 255 255 255 255 255 255 255 255 255 255 255 255 255 255 255 255 255 255 255 255 255 255 255 255 255 255 255 255 255 255 255 255 255
